<?xml version="1.0" encoding="UTF-8" standalone="no"?>
<!DOCTYPE svg PUBLIC "-//W3C//DTD SVG 1.1//EN"
 "http://www.w3.org/Graphics/SVG/1.1/DTD/svg11.dtd">
<!-- Generated by graphviz version 13.1.2 (20250809.0930)
 -->
<!-- Title: snakemake_dag Pages: 1 -->
<svg width="1237pt" height="519pt"
 viewBox="0.00 0.00 1237.00 519.00" xmlns="http://www.w3.org/2000/svg" xmlns:xlink="http://www.w3.org/1999/xlink">
<g id="graph0" class="graph" transform="scale(1 1) rotate(0) translate(4 515.25)">
<title>snakemake_dag</title>
<polygon fill="white" stroke="none" points="-4,4 -4,-515.25 1232.88,-515.25 1232.88,4 -4,4"/>
<!-- 0 -->
<g id="node1" class="node">
<title>0</title>
<path fill="none" stroke="#68d856" stroke-width="2" d="M882.88,-36C882.88,-36 852.88,-36 852.88,-36 846.88,-36 840.88,-30 840.88,-24 840.88,-24 840.88,-12 840.88,-12 840.88,-6 846.88,0 852.88,0 852.88,0 882.88,0 882.88,0 888.88,0 894.88,-6 894.88,-12 894.88,-12 894.88,-24 894.88,-24 894.88,-30 888.88,-36 882.88,-36"/>
<text xml:space="preserve" text-anchor="middle" x="867.88" y="-15.62" font-family="sans" font-size="10.00">all</text>
</g>
<!-- 1 -->
<g id="node2" class="node">
<title>1</title>
<path fill="none" stroke="#56d8c1" stroke-width="2" d="M908.12,-108C908.12,-108 827.62,-108 827.62,-108 821.62,-108 815.62,-102 815.62,-96 815.62,-96 815.62,-84 815.62,-84 815.62,-78 821.62,-72 827.62,-72 827.62,-72 908.12,-72 908.12,-72 914.12,-72 920.12,-78 920.12,-84 920.12,-84 920.12,-96 920.12,-96 920.12,-102 914.12,-108 908.12,-108"/>
<text xml:space="preserve" text-anchor="middle" x="867.88" y="-87.62" font-family="sans" font-size="10.00">build_PharmacoSet</text>
</g>
<!-- 1&#45;&gt;0 -->
<g id="edge1" class="edge">
<title>1&#45;&gt;0</title>
<path fill="none" stroke="grey" stroke-width="2" d="M867.88,-71.34C867.88,-64.75 867.88,-57.08 867.88,-49.67"/>
<polygon fill="grey" stroke="grey" stroke-width="2" points="871.38,-49.93 867.88,-39.93 864.38,-49.93 871.38,-49.93"/>
</g>
<!-- 2 -->
<g id="node3" class="node">
<title>2</title>
<path fill="none" stroke="#56d86b" stroke-width="2" d="M681.12,-180C681.12,-180 558.62,-180 558.62,-180 552.62,-180 546.62,-174 546.62,-168 546.62,-168 546.62,-156 546.62,-156 546.62,-150 552.62,-144 558.62,-144 558.62,-144 681.12,-144 681.12,-144 687.12,-144 693.12,-150 693.12,-156 693.12,-156 693.12,-168 693.12,-168 693.12,-174 687.12,-180 681.12,-180"/>
<text xml:space="preserve" text-anchor="middle" x="619.88" y="-159.62" font-family="sans" font-size="10.00">build_MultiAssayExperiment</text>
</g>
<!-- 2&#45;&gt;1 -->
<g id="edge2" class="edge">
<title>2&#45;&gt;1</title>
<path fill="none" stroke="grey" stroke-width="2" d="M683.42,-143.06C720.04,-132.73 765.97,-119.76 802.84,-109.36"/>
<polygon fill="grey" stroke="grey" stroke-width="2" points="803.38,-112.84 812.05,-106.76 801.48,-106.1 803.38,-112.84"/>
</g>
<!-- 3 -->
<g id="node4" class="node">
<title>3</title>
<path fill="none" stroke="#5682d8" stroke-width="2" d="M295.5,-252C295.5,-252 220.25,-252 220.25,-252 214.25,-252 208.25,-246 208.25,-240 208.25,-240 208.25,-228 208.25,-228 208.25,-222 214.25,-216 220.25,-216 220.25,-216 295.5,-216 295.5,-216 301.5,-216 307.5,-222 307.5,-228 307.5,-228 307.5,-240 307.5,-240 307.5,-246 301.5,-252 295.5,-252"/>
<text xml:space="preserve" text-anchor="middle" x="257.88" y="-231.62" font-family="sans" font-size="10.00">make_RNASEQ_SE</text>
</g>
<!-- 3&#45;&gt;2 -->
<g id="edge6" class="edge">
<title>3&#45;&gt;2</title>
<path fill="none" stroke="grey" stroke-width="2" d="M308.21,-223.27C366.4,-212.01 463.16,-193.3 533.46,-179.71"/>
<polygon fill="grey" stroke="grey" stroke-width="2" points="533.69,-183.23 542.85,-177.89 532.37,-176.36 533.69,-183.23"/>
</g>
<!-- 4 -->
<g id="node5" class="node">
<title>4</title>
<path fill="none" stroke="#80d856" stroke-width="2" d="M91.75,-345.62C91.75,-345.62 12,-345.62 12,-345.62 6,-345.62 0,-339.62 0,-333.62 0,-333.62 0,-321.62 0,-321.62 0,-315.62 6,-309.62 12,-309.62 12,-309.62 91.75,-309.62 91.75,-309.62 97.75,-309.62 103.75,-315.62 103.75,-321.62 103.75,-321.62 103.75,-333.62 103.75,-333.62 103.75,-339.62 97.75,-345.62 91.75,-345.62"/>
<text xml:space="preserve" text-anchor="middle" x="51.88" y="-325.25" font-family="sans" font-size="10.00">download_RNASEQ</text>
</g>
<!-- 4&#45;&gt;3 -->
<g id="edge11" class="edge">
<title>4&#45;&gt;3</title>
<path fill="none" stroke="grey" stroke-width="2" d="M77.29,-308.82C87.97,-301.79 100.73,-293.98 112.88,-288 139.14,-275.07 169.38,-263.53 195.43,-254.54"/>
<polygon fill="grey" stroke="grey" stroke-width="2" points="196.24,-257.96 204.59,-251.44 193.99,-251.33 196.24,-257.96"/>
</g>
<!-- 5 -->
<g id="node6" class="node">
<title>5</title>
<path fill="none" stroke="#59d856" stroke-width="2" d="M238.12,-367.25C238.12,-367.25 133.62,-367.25 133.62,-367.25 127.63,-367.25 121.62,-361.25 121.62,-355.25 121.62,-355.25 121.62,-300 121.62,-300 121.62,-294 127.62,-288 133.62,-288 133.62,-288 238.12,-288 238.12,-288 244.12,-288 250.12,-294 250.12,-300 250.12,-300 250.12,-355.25 250.12,-355.25 250.12,-361.25 244.12,-367.25 238.12,-367.25"/>
<text xml:space="preserve" text-anchor="middle" x="185.88" y="-353.75" font-family="sans" font-size="10.00">getGENCODEannotation</text>
<text xml:space="preserve" text-anchor="middle" x="185.88" y="-339.5" font-family="sans" font-size="10.00">gencode_release: 19</text>
<text xml:space="preserve" text-anchor="middle" x="185.88" y="-325.25" font-family="sans" font-size="10.00">refDir: metadata</text>
<text xml:space="preserve" text-anchor="middle" x="185.88" y="-311" font-family="sans" font-size="10.00">ref_build: GRCh37</text>
<text xml:space="preserve" text-anchor="middle" x="185.88" y="-296.75" font-family="sans" font-size="10.00">species: homo_sapiens</text>
</g>
<!-- 5&#45;&gt;3 -->
<g id="edge12" class="edge">
<title>5&#45;&gt;3</title>
<path fill="none" stroke="grey" stroke-width="2" d="M216.83,-287.24C223.25,-279.06 229.9,-270.61 235.92,-262.94"/>
<polygon fill="grey" stroke="grey" stroke-width="2" points="238.63,-265.15 242.06,-255.13 233.13,-260.83 238.63,-265.15"/>
</g>
<!-- 6 -->
<g id="node7" class="node">
<title>6</title>
<path fill="none" stroke="#56d8d8" stroke-width="2" d="M377.75,-345.62C377.75,-345.62 280,-345.62 280,-345.62 274,-345.62 268,-339.62 268,-333.62 268,-333.62 268,-321.62 268,-321.62 268,-315.62 274,-309.62 280,-309.62 280,-309.62 377.75,-309.62 377.75,-309.62 383.75,-309.62 389.75,-315.62 389.75,-321.62 389.75,-321.62 389.75,-333.62 389.75,-333.62 389.75,-339.62 383.75,-345.62 377.75,-345.62"/>
<text xml:space="preserve" text-anchor="middle" x="328.88" y="-325.25" font-family="sans" font-size="10.00">downloadGenomeFiles</text>
</g>
<!-- 6&#45;&gt;3 -->
<g id="edge13" class="edge">
<title>6&#45;&gt;3</title>
<path fill="none" stroke="grey" stroke-width="2" d="M315.19,-308.96C305.13,-295.99 291.27,-278.1 279.7,-263.16"/>
<polygon fill="grey" stroke="grey" stroke-width="2" points="282.51,-261.08 273.62,-255.32 276.98,-265.37 282.51,-261.08"/>
</g>
<!-- 7 -->
<g id="node8" class="node">
<title>7</title>
<path fill="none" stroke="#d88556" stroke-width="2" d="M477.12,-252C477.12,-252 420.62,-252 420.62,-252 414.62,-252 408.62,-246 408.62,-240 408.62,-240 408.62,-228 408.62,-228 408.62,-222 414.62,-216 420.62,-216 420.62,-216 477.12,-216 477.12,-216 483.12,-216 489.12,-222 489.12,-228 489.12,-228 489.12,-240 489.12,-240 489.12,-246 483.12,-252 477.12,-252"/>
<text xml:space="preserve" text-anchor="middle" x="448.88" y="-231.62" font-family="sans" font-size="10.00">make_CNV_SE</text>
</g>
<!-- 7&#45;&gt;2 -->
<g id="edge7" class="edge">
<title>7&#45;&gt;2</title>
<path fill="none" stroke="grey" stroke-width="2" d="M489.83,-216.23C512.06,-207.13 539.87,-195.75 564.05,-185.85"/>
<polygon fill="grey" stroke="grey" stroke-width="2" points="565.23,-189.15 573.16,-182.12 562.58,-182.67 565.23,-189.15"/>
</g>
<!-- 8 -->
<g id="node9" class="node">
<title>8</title>
<path fill="none" stroke="#afd856" stroke-width="2" d="M476.12,-345.62C476.12,-345.62 419.62,-345.62 419.62,-345.62 413.62,-345.62 407.62,-339.62 407.62,-333.62 407.62,-333.62 407.62,-321.62 407.62,-321.62 407.62,-315.62 413.62,-309.62 419.62,-309.62 419.62,-309.62 476.12,-309.62 476.12,-309.62 482.12,-309.62 488.12,-315.62 488.12,-321.62 488.12,-321.62 488.12,-333.62 488.12,-333.62 488.12,-339.62 482.12,-345.62 476.12,-345.62"/>
<text xml:space="preserve" text-anchor="middle" x="447.88" y="-325.25" font-family="sans" font-size="10.00">downloadCNV</text>
</g>
<!-- 8&#45;&gt;7 -->
<g id="edge14" class="edge">
<title>8&#45;&gt;7</title>
<path fill="none" stroke="grey" stroke-width="2" d="M448.07,-308.96C448.2,-296.74 448.38,-280.17 448.54,-265.8"/>
<polygon fill="grey" stroke="grey" stroke-width="2" points="452.04,-265.99 448.65,-255.95 445.04,-265.91 452.04,-265.99"/>
</g>
<!-- 9 -->
<g id="node10" class="node">
<title>9</title>
<path fill="none" stroke="#56d8a9" stroke-width="2" d="M602.38,-252C602.38,-252 523.38,-252 523.38,-252 517.38,-252 511.38,-246 511.38,-240 511.38,-240 511.38,-228 511.38,-228 511.38,-222 517.38,-216 523.38,-216 523.38,-216 602.38,-216 602.38,-216 608.38,-216 614.38,-222 614.38,-228 614.38,-228 614.38,-240 614.38,-240 614.38,-246 608.38,-252 602.38,-252"/>
<text xml:space="preserve" text-anchor="middle" x="562.88" y="-231.62" font-family="sans" font-size="10.00">make_Mutation_SE</text>
</g>
<!-- 9&#45;&gt;2 -->
<g id="edge8" class="edge">
<title>9&#45;&gt;2</title>
<path fill="none" stroke="grey" stroke-width="2" d="M577.26,-215.34C583.29,-207.93 590.44,-199.14 597.15,-190.9"/>
<polygon fill="grey" stroke="grey" stroke-width="2" points="599.79,-193.21 603.39,-183.25 594.36,-188.79 599.79,-193.21"/>
</g>
<!-- 10 -->
<g id="node11" class="node">
<title>10</title>
<path fill="none" stroke="#56c1d8" stroke-width="2" d="M603.38,-345.62C603.38,-345.62 518.38,-345.62 518.38,-345.62 512.38,-345.62 506.38,-339.62 506.38,-333.62 506.38,-333.62 506.38,-321.62 506.38,-321.62 506.38,-315.62 512.38,-309.62 518.38,-309.62 518.38,-309.62 603.38,-309.62 603.38,-309.62 609.38,-309.62 615.38,-315.62 615.38,-321.62 615.38,-321.62 615.38,-333.62 615.38,-333.62 615.38,-339.62 609.38,-345.62 603.38,-345.62"/>
<text xml:space="preserve" text-anchor="middle" x="560.88" y="-325.25" font-family="sans" font-size="10.00">preprocessMutation</text>
</g>
<!-- 10&#45;&gt;9 -->
<g id="edge15" class="edge">
<title>10&#45;&gt;9</title>
<path fill="none" stroke="grey" stroke-width="2" d="M561.26,-308.96C561.53,-296.74 561.89,-280.17 562.2,-265.8"/>
<polygon fill="grey" stroke="grey" stroke-width="2" points="565.7,-266.03 562.42,-255.95 558.7,-265.87 565.7,-266.03"/>
</g>
<!-- 11 -->
<g id="node12" class="node">
<title>11</title>
<path fill="none" stroke="#d8ac56" stroke-width="2" d="M600.38,-439.25C600.38,-439.25 521.38,-439.25 521.38,-439.25 515.38,-439.25 509.38,-433.25 509.38,-427.25 509.38,-427.25 509.38,-415.25 509.38,-415.25 509.38,-409.25 515.38,-403.25 521.38,-403.25 521.38,-403.25 600.38,-403.25 600.38,-403.25 606.38,-403.25 612.38,-409.25 612.38,-415.25 612.38,-415.25 612.38,-427.25 612.38,-427.25 612.38,-433.25 606.38,-439.25 600.38,-439.25"/>
<text xml:space="preserve" text-anchor="middle" x="560.88" y="-418.88" font-family="sans" font-size="10.00">downloadMutation</text>
</g>
<!-- 11&#45;&gt;10 -->
<g id="edge16" class="edge">
<title>11&#45;&gt;10</title>
<path fill="none" stroke="grey" stroke-width="2" d="M560.88,-402.58C560.88,-390.37 560.88,-373.79 560.88,-359.43"/>
<polygon fill="grey" stroke="grey" stroke-width="2" points="564.38,-359.58 560.88,-349.58 557.38,-359.58 564.38,-359.58"/>
</g>
<!-- 12 -->
<g id="node13" class="node">
<title>12</title>
<path fill="none" stroke="#d85656" stroke-width="2" d="M708.38,-252C708.38,-252 647.38,-252 647.38,-252 641.38,-252 635.38,-246 635.38,-240 635.38,-240 635.38,-228 635.38,-228 635.38,-222 641.38,-216 647.38,-216 647.38,-216 708.38,-216 708.38,-216 714.38,-216 720.38,-222 720.38,-228 720.38,-228 720.38,-240 720.38,-240 720.38,-246 714.38,-252 708.38,-252"/>
<text xml:space="preserve" text-anchor="middle" x="677.88" y="-231.62" font-family="sans" font-size="10.00">make_RPPA_SE</text>
</g>
<!-- 12&#45;&gt;2 -->
<g id="edge9" class="edge">
<title>12&#45;&gt;2</title>
<path fill="none" stroke="grey" stroke-width="2" d="M663.24,-215.34C657.1,-207.93 649.82,-199.14 642.99,-190.9"/>
<polygon fill="grey" stroke="grey" stroke-width="2" points="645.71,-188.7 636.64,-183.23 640.32,-193.17 645.71,-188.7"/>
</g>
<!-- 13 -->
<g id="node14" class="node">
<title>13</title>
<path fill="none" stroke="#d6d856" stroke-width="2" d="M710.62,-345.62C710.62,-345.62 645.12,-345.62 645.12,-345.62 639.12,-345.62 633.12,-339.62 633.12,-333.62 633.12,-333.62 633.12,-321.62 633.12,-321.62 633.12,-315.62 639.12,-309.62 645.12,-309.62 645.12,-309.62 710.62,-309.62 710.62,-309.62 716.62,-309.62 722.62,-315.62 722.62,-321.62 722.62,-321.62 722.62,-333.62 722.62,-333.62 722.62,-339.62 716.62,-345.62 710.62,-345.62"/>
<text xml:space="preserve" text-anchor="middle" x="677.88" y="-325.25" font-family="sans" font-size="10.00">download_RPPA</text>
</g>
<!-- 13&#45;&gt;12 -->
<g id="edge17" class="edge">
<title>13&#45;&gt;12</title>
<path fill="none" stroke="grey" stroke-width="2" d="M677.88,-308.96C677.88,-296.74 677.88,-280.17 677.88,-265.8"/>
<polygon fill="grey" stroke="grey" stroke-width="2" points="681.38,-265.95 677.88,-255.95 674.38,-265.95 681.38,-265.95"/>
</g>
<!-- 14 -->
<g id="node15" class="node">
<title>14</title>
<path fill="none" stroke="#566bd8" stroke-width="2" d="M868.75,-345.62C868.75,-345.62 753,-345.62 753,-345.62 747,-345.62 741,-339.62 741,-333.62 741,-333.62 741,-321.62 741,-321.62 741,-315.62 747,-309.62 753,-309.62 753,-309.62 868.75,-309.62 868.75,-309.62 874.75,-309.62 880.75,-315.62 880.75,-321.62 880.75,-321.62 880.75,-333.62 880.75,-333.62 880.75,-339.62 874.75,-345.62 868.75,-345.62"/>
<text xml:space="preserve" text-anchor="middle" x="810.88" y="-325.25" font-family="sans" font-size="10.00">annotate_sampleMetadata</text>
</g>
<!-- 14&#45;&gt;1 -->
<g id="edge5" class="edge">
<title>14&#45;&gt;1</title>
<path fill="none" stroke="grey" stroke-width="2" d="M815.16,-308.91C824.84,-268.92 848.47,-171.2 860.54,-121.34"/>
<polygon fill="grey" stroke="grey" stroke-width="2" points="863.88,-122.4 862.83,-111.86 857.08,-120.75 863.88,-122.4"/>
</g>
<!-- 14&#45;&gt;2 -->
<g id="edge10" class="edge">
<title>14&#45;&gt;2</title>
<path fill="none" stroke="grey" stroke-width="2" d="M801.52,-308.82C788.29,-285.03 762.08,-242.79 729.88,-216 715.57,-204.1 698.15,-194.14 681.43,-186.17"/>
<polygon fill="grey" stroke="grey" stroke-width="2" points="683.32,-183.19 672.77,-182.23 680.42,-189.56 683.32,-183.19"/>
</g>
<!-- 14&#45;&gt;12 -->
<g id="edge18" class="edge">
<title>14&#45;&gt;12</title>
<path fill="none" stroke="grey" stroke-width="2" d="M784.92,-308.74C764.78,-294.87 736.61,-275.47 714.23,-260.05"/>
<polygon fill="grey" stroke="grey" stroke-width="2" points="716.48,-257.35 706.26,-254.56 712.51,-263.11 716.48,-257.35"/>
</g>
<!-- 18 -->
<g id="node19" class="node">
<title>18</title>
<path fill="none" stroke="#c6d856" stroke-width="2" d="M1049.5,-252C1049.5,-252 884.25,-252 884.25,-252 878.25,-252 872.25,-246 872.25,-240 872.25,-240 872.25,-228 872.25,-228 872.25,-222 878.25,-216 884.25,-216 884.25,-216 1049.5,-216 1049.5,-216 1055.5,-216 1061.5,-222 1061.5,-228 1061.5,-228 1061.5,-240 1061.5,-240 1061.5,-246 1055.5,-252 1049.5,-252"/>
<text xml:space="preserve" text-anchor="middle" x="966.88" y="-231.62" font-family="sans" font-size="10.00">build_treatmentResponseExperiment</text>
</g>
<!-- 14&#45;&gt;18 -->
<g id="edge24" class="edge">
<title>14&#45;&gt;18</title>
<path fill="none" stroke="grey" stroke-width="2" d="M841.32,-308.74C865.19,-294.72 898.66,-275.06 925.04,-259.57"/>
<polygon fill="grey" stroke="grey" stroke-width="2" points="926.78,-262.61 933.63,-254.53 923.23,-256.57 926.78,-262.61"/>
</g>
<!-- 15 -->
<g id="node16" class="node">
<title>15</title>
<path fill="none" stroke="#56d882" stroke-width="2" d="M1024.5,-439.25C1024.5,-439.25 937.25,-439.25 937.25,-439.25 931.25,-439.25 925.25,-433.25 925.25,-427.25 925.25,-427.25 925.25,-415.25 925.25,-415.25 925.25,-409.25 931.25,-403.25 937.25,-403.25 937.25,-403.25 1024.5,-403.25 1024.5,-403.25 1030.5,-403.25 1036.5,-409.25 1036.5,-415.25 1036.5,-415.25 1036.5,-427.25 1036.5,-427.25 1036.5,-433.25 1030.5,-439.25 1024.5,-439.25"/>
<text xml:space="preserve" text-anchor="middle" x="980.88" y="-418.88" font-family="sans" font-size="10.00">preprocessMetadata</text>
</g>
<!-- 15&#45;&gt;14 -->
<g id="edge19" class="edge">
<title>15&#45;&gt;14</title>
<path fill="none" stroke="grey" stroke-width="2" d="M947.69,-402.37C921.45,-388.22 884.55,-368.34 855.69,-352.78"/>
<polygon fill="grey" stroke="grey" stroke-width="2" points="857.39,-349.72 846.93,-348.06 854.07,-355.88 857.39,-349.72"/>
</g>
<!-- 20 -->
<g id="node21" class="node">
<title>20</title>
<path fill="none" stroke="#56d89a" stroke-width="2" d="M1216.88,-345.62C1216.88,-345.62 1086.88,-345.62 1086.88,-345.62 1080.88,-345.62 1074.88,-339.62 1074.88,-333.62 1074.88,-333.62 1074.88,-321.62 1074.88,-321.62 1074.88,-315.62 1080.88,-309.62 1086.88,-309.62 1086.88,-309.62 1216.88,-309.62 1216.88,-309.62 1222.88,-309.62 1228.88,-315.62 1228.88,-321.62 1228.88,-321.62 1228.88,-333.62 1228.88,-333.62 1228.88,-339.62 1222.88,-345.62 1216.88,-345.62"/>
<text xml:space="preserve" text-anchor="middle" x="1151.88" y="-325.25" font-family="sans" font-size="10.00">annotate_treatmentMetadata</text>
</g>
<!-- 15&#45;&gt;20 -->
<g id="edge25" class="edge">
<title>15&#45;&gt;20</title>
<path fill="none" stroke="grey" stroke-width="2" d="M1014.25,-402.37C1040.77,-388.16 1078.09,-368.16 1107.19,-352.57"/>
<polygon fill="grey" stroke="grey" stroke-width="2" points="1108.46,-355.86 1115.62,-348.05 1105.16,-349.69 1108.46,-355.86"/>
</g>
<!-- 16 -->
<g id="node17" class="node">
<title>16</title>
<path fill="none" stroke="#d86e56" stroke-width="2" d="M955.38,-511.25C955.38,-511.25 840.38,-511.25 840.38,-511.25 834.38,-511.25 828.38,-505.25 828.38,-499.25 828.38,-499.25 828.38,-487.25 828.38,-487.25 828.38,-481.25 834.38,-475.25 840.38,-475.25 840.38,-475.25 955.38,-475.25 955.38,-475.25 961.38,-475.25 967.38,-481.25 967.38,-487.25 967.38,-487.25 967.38,-499.25 967.38,-499.25 967.38,-505.25 961.38,-511.25 955.38,-511.25"/>
<text xml:space="preserve" text-anchor="middle" x="897.88" y="-490.88" font-family="sans" font-size="10.00">downloadSampleMetadata</text>
</g>
<!-- 16&#45;&gt;15 -->
<g id="edge20" class="edge">
<title>16&#45;&gt;15</title>
<path fill="none" stroke="grey" stroke-width="2" d="M918.82,-474.59C928.18,-466.69 939.42,-457.21 949.74,-448.51"/>
<polygon fill="grey" stroke="grey" stroke-width="2" points="951.95,-451.23 957.33,-442.1 947.43,-445.87 951.95,-451.23"/>
</g>
<!-- 17 -->
<g id="node18" class="node">
<title>17</title>
<path fill="none" stroke="#d8c356" stroke-width="2" d="M1127.88,-511.25C1127.88,-511.25 997.88,-511.25 997.88,-511.25 991.88,-511.25 985.88,-505.25 985.88,-499.25 985.88,-499.25 985.88,-487.25 985.88,-487.25 985.88,-481.25 991.88,-475.25 997.88,-475.25 997.88,-475.25 1127.88,-475.25 1127.88,-475.25 1133.88,-475.25 1139.88,-481.25 1139.88,-487.25 1139.88,-487.25 1139.88,-499.25 1139.88,-499.25 1139.88,-505.25 1133.88,-511.25 1127.88,-511.25"/>
<text xml:space="preserve" text-anchor="middle" x="1062.88" y="-490.88" font-family="sans" font-size="10.00">downloadTreatmentMetadata</text>
</g>
<!-- 17&#45;&gt;15 -->
<g id="edge21" class="edge">
<title>17&#45;&gt;15</title>
<path fill="none" stroke="grey" stroke-width="2" d="M1042.18,-474.59C1032.93,-466.69 1021.83,-457.21 1011.64,-448.51"/>
<polygon fill="grey" stroke="grey" stroke-width="2" points="1014.03,-445.95 1004.15,-442.12 1009.48,-451.27 1014.03,-445.95"/>
</g>
<!-- 18&#45;&gt;1 -->
<g id="edge3" class="edge">
<title>18&#45;&gt;1</title>
<path fill="none" stroke="grey" stroke-width="2" d="M954.34,-215.02C937.53,-190.9 907.5,-147.83 887.63,-119.34"/>
<polygon fill="grey" stroke="grey" stroke-width="2" points="890.63,-117.52 882.04,-111.32 884.89,-121.53 890.63,-117.52"/>
</g>
<!-- 19 -->
<g id="node20" class="node">
<title>19</title>
<path fill="none" stroke="#d89556" stroke-width="2" d="M1044.75,-345.62C1044.75,-345.62 911,-345.62 911,-345.62 905,-345.62 899,-339.62 899,-333.62 899,-333.62 899,-321.62 899,-321.62 899,-315.62 905,-309.62 911,-309.62 911,-309.62 1044.75,-309.62 1044.75,-309.62 1050.75,-309.62 1056.75,-315.62 1056.75,-321.62 1056.75,-321.62 1056.75,-333.62 1056.75,-333.62 1056.75,-339.62 1050.75,-345.62 1044.75,-345.62"/>
<text xml:space="preserve" text-anchor="middle" x="977.88" y="-325.25" font-family="sans" font-size="10.00">download_treatmentResponse</text>
</g>
<!-- 19&#45;&gt;18 -->
<g id="edge22" class="edge">
<title>19&#45;&gt;18</title>
<path fill="none" stroke="grey" stroke-width="2" d="M975.75,-308.96C974.29,-296.74 972.3,-280.17 970.57,-265.8"/>
<polygon fill="grey" stroke="grey" stroke-width="2" points="974.05,-265.44 969.39,-255.93 967.1,-266.28 974.05,-265.44"/>
</g>
<!-- 20&#45;&gt;1 -->
<g id="edge4" class="edge">
<title>20&#45;&gt;1</title>
<path fill="none" stroke="grey" stroke-width="2" d="M1141.87,-308.89C1128.1,-285.57 1101.49,-244.25 1070.88,-216 1024.35,-173.06 960.94,-136.8 917.44,-114.58"/>
<polygon fill="grey" stroke="grey" stroke-width="2" points="919.22,-111.55 908.71,-110.18 916.07,-117.8 919.22,-111.55"/>
</g>
<!-- 20&#45;&gt;18 -->
<g id="edge23" class="edge">
<title>20&#45;&gt;18</title>
<path fill="none" stroke="grey" stroke-width="2" d="M1115.77,-308.74C1086.95,-294.47 1046.34,-274.36 1014.81,-258.74"/>
<polygon fill="grey" stroke="grey" stroke-width="2" points="1016.44,-255.64 1005.92,-254.34 1013.33,-261.91 1016.44,-255.64"/>
</g>
</g>
</svg>
