<?xml version="1.0" encoding="UTF-8" standalone="no"?>
<!DOCTYPE svg PUBLIC "-//W3C//DTD SVG 1.1//EN"
 "http://www.w3.org/Graphics/SVG/1.1/DTD/svg11.dtd">
<!-- Generated by graphviz version 2.43.0 (0)
 -->
<!-- Title: snakemake_dag Pages: 1 -->
<svg width="1069pt" height="431pt"
 viewBox="0.00 0.00 1069.00 431.00" xmlns="http://www.w3.org/2000/svg" xmlns:xlink="http://www.w3.org/1999/xlink">
<g id="graph0" class="graph" transform="scale(1 1) rotate(0) translate(4 427)">
<title>snakemake_dag</title>
<polygon fill="white" stroke="transparent" points="-4,4 -4,-427 1065,-427 1065,4 -4,4"/>
<!-- 0 -->
<g id="node1" class="node">
<title>0</title>
<path fill="none" stroke="#56c9d8" stroke-width="2" d="M798,-36C798,-36 768,-36 768,-36 762,-36 756,-30 756,-24 756,-24 756,-12 756,-12 756,-6 762,0 768,0 768,0 798,0 798,0 804,0 810,-6 810,-12 810,-12 810,-24 810,-24 810,-30 804,-36 798,-36"/>
<text text-anchor="middle" x="783" y="-15.5" font-family="sans" font-size="10.00">all</text>
</g>
<!-- 1 -->
<g id="node2" class="node">
<title>1</title>
<path fill="none" stroke="#56b1d8" stroke-width="2" d="M826,-108C826,-108 740,-108 740,-108 734,-108 728,-102 728,-96 728,-96 728,-84 728,-84 728,-78 734,-72 740,-72 740,-72 826,-72 826,-72 832,-72 838,-78 838,-84 838,-84 838,-96 838,-96 838,-102 832,-108 826,-108"/>
<text text-anchor="middle" x="783" y="-87.5" font-family="sans" font-size="10.00">build_PharmacoSet</text>
</g>
<!-- 1&#45;&gt;0 -->
<g id="edge1" class="edge">
<title>1&#45;&gt;0</title>
<path fill="none" stroke="grey" stroke-width="2" d="M783,-71.7C783,-63.98 783,-54.71 783,-46.11"/>
<polygon fill="grey" stroke="grey" stroke-width="2" points="786.5,-46.1 783,-36.1 779.5,-46.1 786.5,-46.1"/>
</g>
<!-- 2 -->
<g id="node3" class="node">
<title>2</title>
<path fill="none" stroke="#56d87b" stroke-width="2" d="M652,-180C652,-180 520,-180 520,-180 514,-180 508,-174 508,-168 508,-168 508,-156 508,-156 508,-150 514,-144 520,-144 520,-144 652,-144 652,-144 658,-144 664,-150 664,-156 664,-156 664,-168 664,-168 664,-174 658,-180 652,-180"/>
<text text-anchor="middle" x="586" y="-159.5" font-family="sans" font-size="10.00">build_MultiAssayExperiment</text>
</g>
<!-- 2&#45;&gt;1 -->
<g id="edge2" class="edge">
<title>2&#45;&gt;1</title>
<path fill="none" stroke="grey" stroke-width="2" d="M633.94,-143.97C661.47,-134.19 696.22,-121.84 725.24,-111.52"/>
<polygon fill="grey" stroke="grey" stroke-width="2" points="726.59,-114.76 734.85,-108.11 724.25,-108.16 726.59,-114.76"/>
</g>
<!-- 3 -->
<g id="node4" class="node">
<title>3</title>
<path fill="none" stroke="#d6d856" stroke-width="2" d="M326.5,-252C326.5,-252 243.5,-252 243.5,-252 237.5,-252 231.5,-246 231.5,-240 231.5,-240 231.5,-228 231.5,-228 231.5,-222 237.5,-216 243.5,-216 243.5,-216 326.5,-216 326.5,-216 332.5,-216 338.5,-222 338.5,-228 338.5,-228 338.5,-240 338.5,-240 338.5,-246 332.5,-252 326.5,-252"/>
<text text-anchor="middle" x="285" y="-231.5" font-family="sans" font-size="10.00">make_RNASEQ_SE</text>
</g>
<!-- 3&#45;&gt;2 -->
<g id="edge6" class="edge">
<title>3&#45;&gt;2</title>
<path fill="none" stroke="grey" stroke-width="2" d="M338.81,-220.49C384.41,-209.88 450.53,-194.51 502.91,-182.32"/>
<polygon fill="grey" stroke="grey" stroke-width="2" points="503.92,-185.68 512.86,-180.01 502.33,-178.86 503.92,-185.68"/>
</g>
<!-- 4 -->
<g id="node5" class="node">
<title>4</title>
<path fill="none" stroke="#d8c356" stroke-width="2" d="M396,-337.5C396,-337.5 310,-337.5 310,-337.5 304,-337.5 298,-331.5 298,-325.5 298,-325.5 298,-313.5 298,-313.5 298,-307.5 304,-301.5 310,-301.5 310,-301.5 396,-301.5 396,-301.5 402,-301.5 408,-307.5 408,-313.5 408,-313.5 408,-325.5 408,-325.5 408,-331.5 402,-337.5 396,-337.5"/>
<text text-anchor="middle" x="353" y="-317" font-family="sans" font-size="10.00">download_RNASEQ</text>
</g>
<!-- 4&#45;&gt;3 -->
<g id="edge10" class="edge">
<title>4&#45;&gt;3</title>
<path fill="none" stroke="grey" stroke-width="2" d="M338.91,-301.2C329.25,-289.33 316.27,-273.39 305.47,-260.13"/>
<polygon fill="grey" stroke="grey" stroke-width="2" points="308.1,-257.82 299.07,-252.28 302.67,-262.24 308.1,-257.82"/>
</g>
<!-- 5 -->
<g id="node6" class="node">
<title>5</title>
<path fill="none" stroke="#56d892" stroke-width="2" d="M122,-351C122,-351 12,-351 12,-351 6,-351 0,-345 0,-339 0,-339 0,-300 0,-300 0,-294 6,-288 12,-288 12,-288 122,-288 122,-288 128,-288 134,-294 134,-300 134,-300 134,-339 134,-339 134,-345 128,-351 122,-351"/>
<text text-anchor="middle" x="67" y="-339" font-family="sans" font-size="10.00">getGENCODEannotation</text>
<text text-anchor="middle" x="67" y="-328" font-family="sans" font-size="10.00">gencode_release: 19</text>
<text text-anchor="middle" x="67" y="-317" font-family="sans" font-size="10.00">refDir: metadata</text>
<text text-anchor="middle" x="67" y="-306" font-family="sans" font-size="10.00">ref_build: GRCh37</text>
<text text-anchor="middle" x="67" y="-295" font-family="sans" font-size="10.00">species: homo_sapiens</text>
</g>
<!-- 5&#45;&gt;3 -->
<g id="edge11" class="edge">
<title>5&#45;&gt;3</title>
<path fill="none" stroke="grey" stroke-width="2" d="M134.1,-291.47C137.11,-290.29 140.08,-289.13 143,-288 171.3,-277.04 202.92,-265.2 229.13,-255.49"/>
<polygon fill="grey" stroke="grey" stroke-width="2" points="230.36,-258.77 238.53,-252.02 227.93,-252.21 230.36,-258.77"/>
</g>
<!-- 6 -->
<g id="node7" class="node">
<title>6</title>
<path fill="none" stroke="#bed856" stroke-width="2" d="M268,-337.5C268,-337.5 164,-337.5 164,-337.5 158,-337.5 152,-331.5 152,-325.5 152,-325.5 152,-313.5 152,-313.5 152,-307.5 158,-301.5 164,-301.5 164,-301.5 268,-301.5 268,-301.5 274,-301.5 280,-307.5 280,-313.5 280,-313.5 280,-325.5 280,-325.5 280,-331.5 274,-337.5 268,-337.5"/>
<text text-anchor="middle" x="216" y="-317" font-family="sans" font-size="10.00">downloadGenomeFiles</text>
</g>
<!-- 6&#45;&gt;3 -->
<g id="edge12" class="edge">
<title>6&#45;&gt;3</title>
<path fill="none" stroke="grey" stroke-width="2" d="M230.3,-301.2C240.1,-289.33 253.27,-273.39 264.23,-260.13"/>
<polygon fill="grey" stroke="grey" stroke-width="2" points="267.05,-262.22 270.72,-252.28 261.65,-257.76 267.05,-262.22"/>
</g>
<!-- 7 -->
<g id="node8" class="node">
<title>7</title>
<path fill="none" stroke="#56d8b9" stroke-width="2" d="M500.5,-252C500.5,-252 437.5,-252 437.5,-252 431.5,-252 425.5,-246 425.5,-240 425.5,-240 425.5,-228 425.5,-228 425.5,-222 431.5,-216 437.5,-216 437.5,-216 500.5,-216 500.5,-216 506.5,-216 512.5,-222 512.5,-228 512.5,-228 512.5,-240 512.5,-240 512.5,-246 506.5,-252 500.5,-252"/>
<text text-anchor="middle" x="469" y="-231.5" font-family="sans" font-size="10.00">make_CNV_SE</text>
</g>
<!-- 7&#45;&gt;2 -->
<g id="edge7" class="edge">
<title>7&#45;&gt;2</title>
<path fill="none" stroke="grey" stroke-width="2" d="M497.62,-215.88C512.92,-206.72 531.94,-195.34 548.42,-185.48"/>
<polygon fill="grey" stroke="grey" stroke-width="2" points="550.48,-188.33 557.27,-180.19 546.89,-182.32 550.48,-188.33"/>
</g>
<!-- 8 -->
<g id="node9" class="node">
<title>8</title>
<path fill="none" stroke="#569ad8" stroke-width="2" d="M499.5,-337.5C499.5,-337.5 438.5,-337.5 438.5,-337.5 432.5,-337.5 426.5,-331.5 426.5,-325.5 426.5,-325.5 426.5,-313.5 426.5,-313.5 426.5,-307.5 432.5,-301.5 438.5,-301.5 438.5,-301.5 499.5,-301.5 499.5,-301.5 505.5,-301.5 511.5,-307.5 511.5,-313.5 511.5,-313.5 511.5,-325.5 511.5,-325.5 511.5,-331.5 505.5,-337.5 499.5,-337.5"/>
<text text-anchor="middle" x="469" y="-317" font-family="sans" font-size="10.00">downloadCNV</text>
</g>
<!-- 8&#45;&gt;7 -->
<g id="edge13" class="edge">
<title>8&#45;&gt;7</title>
<path fill="none" stroke="grey" stroke-width="2" d="M469,-301.2C469,-290 469,-275.19 469,-262.41"/>
<polygon fill="grey" stroke="grey" stroke-width="2" points="472.5,-262.28 469,-252.28 465.5,-262.28 472.5,-262.28"/>
</g>
<!-- 9 -->
<g id="node10" class="node">
<title>9</title>
<path fill="none" stroke="#56d8d0" stroke-width="2" d="M629,-252C629,-252 543,-252 543,-252 537,-252 531,-246 531,-240 531,-240 531,-228 531,-228 531,-222 537,-216 543,-216 543,-216 629,-216 629,-216 635,-216 641,-222 641,-228 641,-228 641,-240 641,-240 641,-246 635,-252 629,-252"/>
<text text-anchor="middle" x="586" y="-231.5" font-family="sans" font-size="10.00">make_Mutation_SE</text>
</g>
<!-- 9&#45;&gt;2 -->
<g id="edge8" class="edge">
<title>9&#45;&gt;2</title>
<path fill="none" stroke="grey" stroke-width="2" d="M586,-215.7C586,-207.98 586,-198.71 586,-190.11"/>
<polygon fill="grey" stroke="grey" stroke-width="2" points="589.5,-190.1 586,-180.1 582.5,-190.1 589.5,-190.1"/>
</g>
<!-- 10 -->
<g id="node11" class="node">
<title>10</title>
<path fill="none" stroke="#d88556" stroke-width="2" d="M630.5,-337.5C630.5,-337.5 541.5,-337.5 541.5,-337.5 535.5,-337.5 529.5,-331.5 529.5,-325.5 529.5,-325.5 529.5,-313.5 529.5,-313.5 529.5,-307.5 535.5,-301.5 541.5,-301.5 541.5,-301.5 630.5,-301.5 630.5,-301.5 636.5,-301.5 642.5,-307.5 642.5,-313.5 642.5,-313.5 642.5,-325.5 642.5,-325.5 642.5,-331.5 636.5,-337.5 630.5,-337.5"/>
<text text-anchor="middle" x="586" y="-317" font-family="sans" font-size="10.00">preprocessMutation</text>
</g>
<!-- 10&#45;&gt;9 -->
<g id="edge14" class="edge">
<title>10&#45;&gt;9</title>
<path fill="none" stroke="grey" stroke-width="2" d="M586,-301.2C586,-290 586,-275.19 586,-262.41"/>
<polygon fill="grey" stroke="grey" stroke-width="2" points="589.5,-262.28 586,-252.28 582.5,-262.28 589.5,-262.28"/>
</g>
<!-- 11 -->
<g id="node12" class="node">
<title>11</title>
<path fill="none" stroke="#d89c56" stroke-width="2" d="M627.5,-423C627.5,-423 544.5,-423 544.5,-423 538.5,-423 532.5,-417 532.5,-411 532.5,-411 532.5,-399 532.5,-399 532.5,-393 538.5,-387 544.5,-387 544.5,-387 627.5,-387 627.5,-387 633.5,-387 639.5,-393 639.5,-399 639.5,-399 639.5,-411 639.5,-411 639.5,-417 633.5,-423 627.5,-423"/>
<text text-anchor="middle" x="586" y="-402.5" font-family="sans" font-size="10.00">downloadMutation</text>
</g>
<!-- 11&#45;&gt;10 -->
<g id="edge15" class="edge">
<title>11&#45;&gt;10</title>
<path fill="none" stroke="grey" stroke-width="2" d="M586,-386.7C586,-375.5 586,-360.69 586,-347.91"/>
<polygon fill="grey" stroke="grey" stroke-width="2" points="589.5,-347.78 586,-337.78 582.5,-347.78 589.5,-347.78"/>
</g>
<!-- 12 -->
<g id="node13" class="node">
<title>12</title>
<path fill="none" stroke="#566bd8" stroke-width="2" d="M795,-252C795,-252 671,-252 671,-252 665,-252 659,-246 659,-240 659,-240 659,-228 659,-228 659,-222 665,-216 671,-216 671,-216 795,-216 795,-216 801,-216 807,-222 807,-228 807,-228 807,-240 807,-240 807,-246 801,-252 795,-252"/>
<text text-anchor="middle" x="733" y="-231.5" font-family="sans" font-size="10.00">annotate_sampleMetadata</text>
</g>
<!-- 12&#45;&gt;1 -->
<g id="edge5" class="edge">
<title>12&#45;&gt;1</title>
<path fill="none" stroke="grey" stroke-width="2" d="M733.79,-215.71C735.12,-197.35 738.64,-167.76 748,-144 751.78,-134.41 757.47,-124.75 763.17,-116.36"/>
<polygon fill="grey" stroke="grey" stroke-width="2" points="766.08,-118.3 769.03,-108.12 760.38,-114.24 766.08,-118.3"/>
</g>
<!-- 12&#45;&gt;2 -->
<g id="edge9" class="edge">
<title>12&#45;&gt;2</title>
<path fill="none" stroke="grey" stroke-width="2" d="M697.04,-215.88C677.12,-206.39 652.18,-194.51 630.98,-184.42"/>
<polygon fill="grey" stroke="grey" stroke-width="2" points="632.38,-181.21 621.84,-180.07 629.37,-187.53 632.38,-181.21"/>
</g>
<!-- 13 -->
<g id="node14" class="node">
<title>13</title>
<path fill="none" stroke="#61d856" stroke-width="2" d="M865,-337.5C865,-337.5 773,-337.5 773,-337.5 767,-337.5 761,-331.5 761,-325.5 761,-325.5 761,-313.5 761,-313.5 761,-307.5 767,-301.5 773,-301.5 773,-301.5 865,-301.5 865,-301.5 871,-301.5 877,-307.5 877,-313.5 877,-313.5 877,-325.5 877,-325.5 877,-331.5 871,-337.5 865,-337.5"/>
<text text-anchor="middle" x="819" y="-317" font-family="sans" font-size="10.00">preprocessMetadata</text>
</g>
<!-- 13&#45;&gt;12 -->
<g id="edge16" class="edge">
<title>13&#45;&gt;12</title>
<path fill="none" stroke="grey" stroke-width="2" d="M801.18,-301.2C788.73,-289.11 771.92,-272.79 758.11,-259.38"/>
<polygon fill="grey" stroke="grey" stroke-width="2" points="760.41,-256.73 750.8,-252.28 755.53,-261.76 760.41,-256.73"/>
</g>
<!-- 16 -->
<g id="node17" class="node">
<title>16</title>
<path fill="none" stroke="#78d856" stroke-width="2" d="M1049,-252C1049,-252 875,-252 875,-252 869,-252 863,-246 863,-240 863,-240 863,-228 863,-228 863,-222 869,-216 875,-216 875,-216 1049,-216 1049,-216 1055,-216 1061,-222 1061,-228 1061,-228 1061,-240 1061,-240 1061,-246 1055,-252 1049,-252"/>
<text text-anchor="middle" x="962" y="-231.5" font-family="sans" font-size="10.00">build_treatmentResponseExperiment</text>
</g>
<!-- 13&#45;&gt;16 -->
<g id="edge20" class="edge">
<title>13&#45;&gt;16</title>
<path fill="none" stroke="grey" stroke-width="2" d="M848.28,-301.4C870.16,-288.62 900.27,-271.05 924,-257.19"/>
<polygon fill="grey" stroke="grey" stroke-width="2" points="925.89,-260.14 932.76,-252.08 922.36,-254.1 925.89,-260.14"/>
</g>
<!-- 18 -->
<g id="node19" class="node">
<title>18</title>
<path fill="none" stroke="#d8b456" stroke-width="2" d="M906.5,-180C906.5,-180 769.5,-180 769.5,-180 763.5,-180 757.5,-174 757.5,-168 757.5,-168 757.5,-156 757.5,-156 757.5,-150 763.5,-144 769.5,-144 769.5,-144 906.5,-144 906.5,-144 912.5,-144 918.5,-150 918.5,-156 918.5,-156 918.5,-168 918.5,-168 918.5,-174 912.5,-180 906.5,-180"/>
<text text-anchor="middle" x="838" y="-159.5" font-family="sans" font-size="10.00">annotate_treatmentMetadata</text>
</g>
<!-- 13&#45;&gt;18 -->
<g id="edge21" class="edge">
<title>13&#45;&gt;18</title>
<path fill="none" stroke="grey" stroke-width="2" d="M821.11,-301.26C824.39,-274.41 830.75,-222.35 834.66,-190.34"/>
<polygon fill="grey" stroke="grey" stroke-width="2" points="838.15,-190.66 835.88,-180.31 831.2,-189.81 838.15,-190.66"/>
</g>
<!-- 14 -->
<g id="node15" class="node">
<title>14</title>
<path fill="none" stroke="#d85656" stroke-width="2" d="M1019.5,-423C1019.5,-423 896.5,-423 896.5,-423 890.5,-423 884.5,-417 884.5,-411 884.5,-411 884.5,-399 884.5,-399 884.5,-393 890.5,-387 896.5,-387 896.5,-387 1019.5,-387 1019.5,-387 1025.5,-387 1031.5,-393 1031.5,-399 1031.5,-399 1031.5,-411 1031.5,-411 1031.5,-417 1025.5,-423 1019.5,-423"/>
<text text-anchor="middle" x="958" y="-402.5" font-family="sans" font-size="10.00">downloadSampleMetadata</text>
</g>
<!-- 14&#45;&gt;13 -->
<g id="edge17" class="edge">
<title>14&#45;&gt;13</title>
<path fill="none" stroke="grey" stroke-width="2" d="M929.54,-386.9C908.36,-374.18 879.27,-356.7 856.24,-342.87"/>
<polygon fill="grey" stroke="grey" stroke-width="2" points="857.8,-339.73 847.43,-337.58 854.2,-345.73 857.8,-339.73"/>
</g>
<!-- 15 -->
<g id="node16" class="node">
<title>15</title>
<path fill="none" stroke="#8fd856" stroke-width="2" d="M854,-423C854,-423 718,-423 718,-423 712,-423 706,-417 706,-411 706,-411 706,-399 706,-399 706,-393 712,-387 718,-387 718,-387 854,-387 854,-387 860,-387 866,-393 866,-399 866,-399 866,-411 866,-411 866,-417 860,-423 854,-423"/>
<text text-anchor="middle" x="786" y="-402.5" font-family="sans" font-size="10.00">downloadTreatmentMetadata</text>
</g>
<!-- 15&#45;&gt;13 -->
<g id="edge18" class="edge">
<title>15&#45;&gt;13</title>
<path fill="none" stroke="grey" stroke-width="2" d="M792.84,-386.7C797.35,-375.28 803.35,-360.09 808.47,-347.14"/>
<polygon fill="grey" stroke="grey" stroke-width="2" points="811.75,-348.37 812.17,-337.78 805.24,-345.79 811.75,-348.37"/>
</g>
<!-- 16&#45;&gt;1 -->
<g id="edge3" class="edge">
<title>16&#45;&gt;1</title>
<path fill="none" stroke="grey" stroke-width="2" d="M959.57,-215.95C955.89,-196.12 947.06,-163.62 927,-144 905.63,-123.1 875.32,-110.33 848.02,-102.59"/>
<polygon fill="grey" stroke="grey" stroke-width="2" points="848.69,-99.15 838.12,-99.96 846.89,-105.91 848.69,-99.15"/>
</g>
<!-- 17 -->
<g id="node18" class="node">
<title>17</title>
<path fill="none" stroke="#56d863" stroke-width="2" d="M1048.5,-337.5C1048.5,-337.5 907.5,-337.5 907.5,-337.5 901.5,-337.5 895.5,-331.5 895.5,-325.5 895.5,-325.5 895.5,-313.5 895.5,-313.5 895.5,-307.5 901.5,-301.5 907.5,-301.5 907.5,-301.5 1048.5,-301.5 1048.5,-301.5 1054.5,-301.5 1060.5,-307.5 1060.5,-313.5 1060.5,-313.5 1060.5,-325.5 1060.5,-325.5 1060.5,-331.5 1054.5,-337.5 1048.5,-337.5"/>
<text text-anchor="middle" x="978" y="-317" font-family="sans" font-size="10.00">download_treatmentResponse</text>
</g>
<!-- 17&#45;&gt;16 -->
<g id="edge19" class="edge">
<title>17&#45;&gt;16</title>
<path fill="none" stroke="grey" stroke-width="2" d="M974.68,-301.2C972.54,-290 969.7,-275.19 967.25,-262.41"/>
<polygon fill="grey" stroke="grey" stroke-width="2" points="970.63,-261.44 965.31,-252.28 963.76,-262.76 970.63,-261.44"/>
</g>
<!-- 18&#45;&gt;1 -->
<g id="edge4" class="edge">
<title>18&#45;&gt;1</title>
<path fill="none" stroke="grey" stroke-width="2" d="M824.4,-143.7C817.88,-135.39 809.93,-125.28 802.75,-116.14"/>
<polygon fill="grey" stroke="grey" stroke-width="2" points="805.37,-113.81 796.44,-108.1 799.87,-118.13 805.37,-113.81"/>
</g>
</g>
</svg>
