<?xml version="1.0" encoding="UTF-8" standalone="no"?>
<!DOCTYPE svg PUBLIC "-//W3C//DTD SVG 1.1//EN"
 "http://www.w3.org/Graphics/SVG/1.1/DTD/svg11.dtd">
<!-- Generated by graphviz version 2.43.0 (0)
 -->
<!-- Title: snakemake_dag Pages: 1 -->
<svg width="1178pt" height="431pt"
 viewBox="0.00 0.00 1177.50 431.00" xmlns="http://www.w3.org/2000/svg" xmlns:xlink="http://www.w3.org/1999/xlink">
<g id="graph0" class="graph" transform="scale(1 1) rotate(0) translate(4 427)">
<title>snakemake_dag</title>
<polygon fill="white" stroke="transparent" points="-4,4 -4,-427 1173.5,-427 1173.5,4 -4,4"/>
<!-- 0 -->
<g id="node1" class="node">
<title>0</title>
<path fill="none" stroke="#566bd8" stroke-width="2" d="M835,-36C835,-36 805,-36 805,-36 799,-36 793,-30 793,-24 793,-24 793,-12 793,-12 793,-6 799,0 805,0 805,0 835,0 835,0 841,0 847,-6 847,-12 847,-12 847,-24 847,-24 847,-30 841,-36 835,-36"/>
<text text-anchor="middle" x="820" y="-15.5" font-family="sans" font-size="10.00">all</text>
</g>
<!-- 1 -->
<g id="node2" class="node">
<title>1</title>
<path fill="none" stroke="#569ad8" stroke-width="2" d="M863,-108C863,-108 777,-108 777,-108 771,-108 765,-102 765,-96 765,-96 765,-84 765,-84 765,-78 771,-72 777,-72 777,-72 863,-72 863,-72 869,-72 875,-78 875,-84 875,-84 875,-96 875,-96 875,-102 869,-108 863,-108"/>
<text text-anchor="middle" x="820" y="-87.5" font-family="sans" font-size="10.00">build_PharmacoSet</text>
</g>
<!-- 1&#45;&gt;0 -->
<g id="edge1" class="edge">
<title>1&#45;&gt;0</title>
<path fill="none" stroke="grey" stroke-width="2" d="M820,-71.7C820,-63.98 820,-54.71 820,-46.11"/>
<polygon fill="grey" stroke="grey" stroke-width="2" points="823.5,-46.1 820,-36.1 816.5,-46.1 823.5,-46.1"/>
</g>
<!-- 2 -->
<g id="node3" class="node">
<title>2</title>
<path fill="none" stroke="#9fd856" stroke-width="2" d="M652,-180C652,-180 520,-180 520,-180 514,-180 508,-174 508,-168 508,-168 508,-156 508,-156 508,-150 514,-144 520,-144 520,-144 652,-144 652,-144 658,-144 664,-150 664,-156 664,-156 664,-168 664,-168 664,-174 658,-180 652,-180"/>
<text text-anchor="middle" x="586" y="-159.5" font-family="sans" font-size="10.00">build_MultiAssayExperiment</text>
</g>
<!-- 2&#45;&gt;1 -->
<g id="edge2" class="edge">
<title>2&#45;&gt;1</title>
<path fill="none" stroke="grey" stroke-width="2" d="M642.94,-143.97C676.83,-133.83 719.93,-120.94 755.12,-110.41"/>
<polygon fill="grey" stroke="grey" stroke-width="2" points="756.24,-113.73 764.82,-107.51 754.24,-107.02 756.24,-113.73"/>
</g>
<!-- 3 -->
<g id="node4" class="node">
<title>3</title>
<path fill="none" stroke="#d89c56" stroke-width="2" d="M311.5,-252C311.5,-252 228.5,-252 228.5,-252 222.5,-252 216.5,-246 216.5,-240 216.5,-240 216.5,-228 216.5,-228 216.5,-222 222.5,-216 228.5,-216 228.5,-216 311.5,-216 311.5,-216 317.5,-216 323.5,-222 323.5,-228 323.5,-228 323.5,-240 323.5,-240 323.5,-246 317.5,-252 311.5,-252"/>
<text text-anchor="middle" x="270" y="-231.5" font-family="sans" font-size="10.00">make_RNASEQ_SE</text>
</g>
<!-- 3&#45;&gt;2 -->
<g id="edge6" class="edge">
<title>3&#45;&gt;2</title>
<path fill="none" stroke="grey" stroke-width="2" d="M323.61,-221.13C371.61,-210.49 442.89,-194.7 499.05,-182.26"/>
<polygon fill="grey" stroke="grey" stroke-width="2" points="499.99,-185.64 508.99,-180.06 498.47,-178.8 499.99,-185.64"/>
</g>
<!-- 4 -->
<g id="node5" class="node">
<title>4</title>
<path fill="none" stroke="#d88556" stroke-width="2" d="M98,-337.5C98,-337.5 12,-337.5 12,-337.5 6,-337.5 0,-331.5 0,-325.5 0,-325.5 0,-313.5 0,-313.5 0,-307.5 6,-301.5 12,-301.5 12,-301.5 98,-301.5 98,-301.5 104,-301.5 110,-307.5 110,-313.5 110,-313.5 110,-325.5 110,-325.5 110,-331.5 104,-337.5 98,-337.5"/>
<text text-anchor="middle" x="55" y="-317" font-family="sans" font-size="10.00">download_RNASEQ</text>
</g>
<!-- 4&#45;&gt;3 -->
<g id="edge10" class="edge">
<title>4&#45;&gt;3</title>
<path fill="none" stroke="grey" stroke-width="2" d="M89.24,-301.35C98.78,-296.8 109.21,-292.04 119,-288 147.72,-276.16 180.16,-264.55 207.59,-255.23"/>
<polygon fill="grey" stroke="grey" stroke-width="2" points="208.71,-258.54 217.07,-252.03 206.47,-251.91 208.71,-258.54"/>
</g>
<!-- 5 -->
<g id="node6" class="node">
<title>5</title>
<path fill="none" stroke="#b6d856" stroke-width="2" d="M250,-351C250,-351 140,-351 140,-351 134,-351 128,-345 128,-339 128,-339 128,-300 128,-300 128,-294 134,-288 140,-288 140,-288 250,-288 250,-288 256,-288 262,-294 262,-300 262,-300 262,-339 262,-339 262,-345 256,-351 250,-351"/>
<text text-anchor="middle" x="195" y="-339" font-family="sans" font-size="10.00">getGENCODEannotation</text>
<text text-anchor="middle" x="195" y="-328" font-family="sans" font-size="10.00">gencode_release: 19</text>
<text text-anchor="middle" x="195" y="-317" font-family="sans" font-size="10.00">refDir: metadata</text>
<text text-anchor="middle" x="195" y="-306" font-family="sans" font-size="10.00">ref_build: GRCh37</text>
<text text-anchor="middle" x="195" y="-295" font-family="sans" font-size="10.00">species: homo_sapiens</text>
</g>
<!-- 5&#45;&gt;3 -->
<g id="edge11" class="edge">
<title>5&#45;&gt;3</title>
<path fill="none" stroke="grey" stroke-width="2" d="M222.5,-287.88C230.82,-278.62 239.85,-268.56 247.78,-259.73"/>
<polygon fill="grey" stroke="grey" stroke-width="2" points="250.63,-261.8 254.71,-252.03 245.42,-257.13 250.63,-261.8"/>
</g>
<!-- 6 -->
<g id="node7" class="node">
<title>6</title>
<path fill="none" stroke="#56d89a" stroke-width="2" d="M396,-337.5C396,-337.5 292,-337.5 292,-337.5 286,-337.5 280,-331.5 280,-325.5 280,-325.5 280,-313.5 280,-313.5 280,-307.5 286,-301.5 292,-301.5 292,-301.5 396,-301.5 396,-301.5 402,-301.5 408,-307.5 408,-313.5 408,-313.5 408,-325.5 408,-325.5 408,-331.5 402,-337.5 396,-337.5"/>
<text text-anchor="middle" x="344" y="-317" font-family="sans" font-size="10.00">downloadGenomeFiles</text>
</g>
<!-- 6&#45;&gt;3 -->
<g id="edge12" class="edge">
<title>6&#45;&gt;3</title>
<path fill="none" stroke="grey" stroke-width="2" d="M328.67,-301.2C318.15,-289.33 304.03,-273.39 292.27,-260.13"/>
<polygon fill="grey" stroke="grey" stroke-width="2" points="294.57,-257.44 285.31,-252.28 289.33,-262.08 294.57,-257.44"/>
</g>
<!-- 7 -->
<g id="node8" class="node">
<title>7</title>
<path fill="none" stroke="#56c9d8" stroke-width="2" d="M500.5,-252C500.5,-252 437.5,-252 437.5,-252 431.5,-252 425.5,-246 425.5,-240 425.5,-240 425.5,-228 425.5,-228 425.5,-222 431.5,-216 437.5,-216 437.5,-216 500.5,-216 500.5,-216 506.5,-216 512.5,-222 512.5,-228 512.5,-228 512.5,-240 512.5,-240 512.5,-246 506.5,-252 500.5,-252"/>
<text text-anchor="middle" x="469" y="-231.5" font-family="sans" font-size="10.00">make_CNV_SE</text>
</g>
<!-- 7&#45;&gt;2 -->
<g id="edge7" class="edge">
<title>7&#45;&gt;2</title>
<path fill="none" stroke="grey" stroke-width="2" d="M497.62,-215.88C512.92,-206.72 531.94,-195.34 548.42,-185.48"/>
<polygon fill="grey" stroke="grey" stroke-width="2" points="550.48,-188.33 557.27,-180.19 546.89,-182.32 550.48,-188.33"/>
</g>
<!-- 8 -->
<g id="node9" class="node">
<title>8</title>
<path fill="none" stroke="#ced856" stroke-width="2" d="M499.5,-337.5C499.5,-337.5 438.5,-337.5 438.5,-337.5 432.5,-337.5 426.5,-331.5 426.5,-325.5 426.5,-325.5 426.5,-313.5 426.5,-313.5 426.5,-307.5 432.5,-301.5 438.5,-301.5 438.5,-301.5 499.5,-301.5 499.5,-301.5 505.5,-301.5 511.5,-307.5 511.5,-313.5 511.5,-313.5 511.5,-325.5 511.5,-325.5 511.5,-331.5 505.5,-337.5 499.5,-337.5"/>
<text text-anchor="middle" x="469" y="-317" font-family="sans" font-size="10.00">downloadCNV</text>
</g>
<!-- 8&#45;&gt;7 -->
<g id="edge13" class="edge">
<title>8&#45;&gt;7</title>
<path fill="none" stroke="grey" stroke-width="2" d="M469,-301.2C469,-290 469,-275.19 469,-262.41"/>
<polygon fill="grey" stroke="grey" stroke-width="2" points="472.5,-262.28 469,-252.28 465.5,-262.28 472.5,-262.28"/>
</g>
<!-- 9 -->
<g id="node10" class="node">
<title>9</title>
<path fill="none" stroke="#88d856" stroke-width="2" d="M629,-252C629,-252 543,-252 543,-252 537,-252 531,-246 531,-240 531,-240 531,-228 531,-228 531,-222 537,-216 543,-216 543,-216 629,-216 629,-216 635,-216 641,-222 641,-228 641,-228 641,-240 641,-240 641,-246 635,-252 629,-252"/>
<text text-anchor="middle" x="586" y="-231.5" font-family="sans" font-size="10.00">make_Mutation_SE</text>
</g>
<!-- 9&#45;&gt;2 -->
<g id="edge8" class="edge">
<title>9&#45;&gt;2</title>
<path fill="none" stroke="grey" stroke-width="2" d="M586,-215.7C586,-207.98 586,-198.71 586,-190.11"/>
<polygon fill="grey" stroke="grey" stroke-width="2" points="589.5,-190.1 586,-180.1 582.5,-190.1 589.5,-190.1"/>
</g>
<!-- 10 -->
<g id="node11" class="node">
<title>10</title>
<path fill="none" stroke="#d86e56" stroke-width="2" d="M630.5,-337.5C630.5,-337.5 541.5,-337.5 541.5,-337.5 535.5,-337.5 529.5,-331.5 529.5,-325.5 529.5,-325.5 529.5,-313.5 529.5,-313.5 529.5,-307.5 535.5,-301.5 541.5,-301.5 541.5,-301.5 630.5,-301.5 630.5,-301.5 636.5,-301.5 642.5,-307.5 642.5,-313.5 642.5,-313.5 642.5,-325.5 642.5,-325.5 642.5,-331.5 636.5,-337.5 630.5,-337.5"/>
<text text-anchor="middle" x="586" y="-317" font-family="sans" font-size="10.00">preprocessMutation</text>
</g>
<!-- 10&#45;&gt;9 -->
<g id="edge14" class="edge">
<title>10&#45;&gt;9</title>
<path fill="none" stroke="grey" stroke-width="2" d="M586,-301.2C586,-290 586,-275.19 586,-262.41"/>
<polygon fill="grey" stroke="grey" stroke-width="2" points="589.5,-262.28 586,-252.28 582.5,-262.28 589.5,-262.28"/>
</g>
<!-- 11 -->
<g id="node12" class="node">
<title>11</title>
<path fill="none" stroke="#d85656" stroke-width="2" d="M627.5,-423C627.5,-423 544.5,-423 544.5,-423 538.5,-423 532.5,-417 532.5,-411 532.5,-411 532.5,-399 532.5,-399 532.5,-393 538.5,-387 544.5,-387 544.5,-387 627.5,-387 627.5,-387 633.5,-387 639.5,-393 639.5,-399 639.5,-399 639.5,-411 639.5,-411 639.5,-417 633.5,-423 627.5,-423"/>
<text text-anchor="middle" x="586" y="-402.5" font-family="sans" font-size="10.00">downloadMutation</text>
</g>
<!-- 11&#45;&gt;10 -->
<g id="edge15" class="edge">
<title>11&#45;&gt;10</title>
<path fill="none" stroke="grey" stroke-width="2" d="M586,-386.7C586,-375.5 586,-360.69 586,-347.91"/>
<polygon fill="grey" stroke="grey" stroke-width="2" points="589.5,-347.78 586,-337.78 582.5,-347.78 589.5,-347.78"/>
</g>
<!-- 12 -->
<g id="node13" class="node">
<title>12</title>
<path fill="none" stroke="#5682d8" stroke-width="2" d="M795,-252C795,-252 671,-252 671,-252 665,-252 659,-246 659,-240 659,-240 659,-228 659,-228 659,-222 665,-216 671,-216 671,-216 795,-216 795,-216 801,-216 807,-222 807,-228 807,-228 807,-240 807,-240 807,-246 801,-252 795,-252"/>
<text text-anchor="middle" x="733" y="-231.5" font-family="sans" font-size="10.00">annotate_sampleMetadata</text>
</g>
<!-- 12&#45;&gt;1 -->
<g id="edge5" class="edge">
<title>12&#45;&gt;1</title>
<path fill="none" stroke="grey" stroke-width="2" d="M743.49,-215.87C758.58,-191.24 786.52,-145.64 804.14,-116.88"/>
<polygon fill="grey" stroke="grey" stroke-width="2" points="807.23,-118.54 809.47,-108.19 801.26,-114.89 807.23,-118.54"/>
</g>
<!-- 12&#45;&gt;2 -->
<g id="edge9" class="edge">
<title>12&#45;&gt;2</title>
<path fill="none" stroke="grey" stroke-width="2" d="M697.04,-215.88C677.12,-206.39 652.18,-194.51 630.98,-184.42"/>
<polygon fill="grey" stroke="grey" stroke-width="2" points="632.38,-181.21 621.84,-180.07 629.37,-187.53 632.38,-181.21"/>
</g>
<!-- 16 -->
<g id="node17" class="node">
<title>16</title>
<path fill="none" stroke="#59d856" stroke-width="2" d="M983,-180C983,-180 809,-180 809,-180 803,-180 797,-174 797,-168 797,-168 797,-156 797,-156 797,-150 803,-144 809,-144 809,-144 983,-144 983,-144 989,-144 995,-150 995,-156 995,-156 995,-168 995,-168 995,-174 989,-180 983,-180"/>
<text text-anchor="middle" x="896" y="-159.5" font-family="sans" font-size="10.00">build_treatmentResponseExperiment</text>
</g>
<!-- 12&#45;&gt;16 -->
<g id="edge21" class="edge">
<title>12&#45;&gt;16</title>
<path fill="none" stroke="grey" stroke-width="2" d="M772.87,-215.88C795.16,-206.31 823.12,-194.3 846.76,-184.15"/>
<polygon fill="grey" stroke="grey" stroke-width="2" points="848.45,-187.23 856.26,-180.07 845.69,-180.8 848.45,-187.23"/>
</g>
<!-- 13 -->
<g id="node14" class="node">
<title>13</title>
<path fill="none" stroke="#56d8c9" stroke-width="2" d="M959,-337.5C959,-337.5 867,-337.5 867,-337.5 861,-337.5 855,-331.5 855,-325.5 855,-325.5 855,-313.5 855,-313.5 855,-307.5 861,-301.5 867,-301.5 867,-301.5 959,-301.5 959,-301.5 965,-301.5 971,-307.5 971,-313.5 971,-313.5 971,-325.5 971,-325.5 971,-331.5 965,-337.5 959,-337.5"/>
<text text-anchor="middle" x="913" y="-317" font-family="sans" font-size="10.00">preprocessMetadata</text>
</g>
<!-- 13&#45;&gt;12 -->
<g id="edge16" class="edge">
<title>13&#45;&gt;12</title>
<path fill="none" stroke="grey" stroke-width="2" d="M876.14,-301.4C848.11,-288.4 809.37,-270.43 779.26,-256.46"/>
<polygon fill="grey" stroke="grey" stroke-width="2" points="780.36,-253.11 769.81,-252.08 777.41,-259.46 780.36,-253.11"/>
</g>
<!-- 18 -->
<g id="node19" class="node">
<title>18</title>
<path fill="none" stroke="#70d856" stroke-width="2" d="M1157.5,-252C1157.5,-252 1020.5,-252 1020.5,-252 1014.5,-252 1008.5,-246 1008.5,-240 1008.5,-240 1008.5,-228 1008.5,-228 1008.5,-222 1014.5,-216 1020.5,-216 1020.5,-216 1157.5,-216 1157.5,-216 1163.5,-216 1169.5,-222 1169.5,-228 1169.5,-228 1169.5,-240 1169.5,-240 1169.5,-246 1163.5,-252 1157.5,-252"/>
<text text-anchor="middle" x="1089" y="-231.5" font-family="sans" font-size="10.00">annotate_treatmentMetadata</text>
</g>
<!-- 13&#45;&gt;18 -->
<g id="edge22" class="edge">
<title>13&#45;&gt;18</title>
<path fill="none" stroke="grey" stroke-width="2" d="M949.04,-301.4C976.45,-288.4 1014.33,-270.43 1043.77,-256.46"/>
<polygon fill="grey" stroke="grey" stroke-width="2" points="1045.47,-259.52 1053.01,-252.08 1042.47,-253.2 1045.47,-259.52"/>
</g>
<!-- 14 -->
<g id="node15" class="node">
<title>14</title>
<path fill="none" stroke="#56d86b" stroke-width="2" d="M1060.5,-423C1060.5,-423 937.5,-423 937.5,-423 931.5,-423 925.5,-417 925.5,-411 925.5,-411 925.5,-399 925.5,-399 925.5,-393 931.5,-387 937.5,-387 937.5,-387 1060.5,-387 1060.5,-387 1066.5,-387 1072.5,-393 1072.5,-399 1072.5,-399 1072.5,-411 1072.5,-411 1072.5,-417 1066.5,-423 1060.5,-423"/>
<text text-anchor="middle" x="999" y="-402.5" font-family="sans" font-size="10.00">downloadSampleMetadata</text>
</g>
<!-- 14&#45;&gt;13 -->
<g id="edge17" class="edge">
<title>14&#45;&gt;13</title>
<path fill="none" stroke="grey" stroke-width="2" d="M981.18,-386.7C968.73,-374.61 951.92,-358.29 938.11,-344.88"/>
<polygon fill="grey" stroke="grey" stroke-width="2" points="940.41,-342.23 930.8,-337.78 935.53,-347.26 940.41,-342.23"/>
</g>
<!-- 15 -->
<g id="node16" class="node">
<title>15</title>
<path fill="none" stroke="#56b1d8" stroke-width="2" d="M895,-423C895,-423 759,-423 759,-423 753,-423 747,-417 747,-411 747,-411 747,-399 747,-399 747,-393 753,-387 759,-387 759,-387 895,-387 895,-387 901,-387 907,-393 907,-399 907,-399 907,-411 907,-411 907,-417 901,-423 895,-423"/>
<text text-anchor="middle" x="827" y="-402.5" font-family="sans" font-size="10.00">downloadTreatmentMetadata</text>
</g>
<!-- 15&#45;&gt;13 -->
<g id="edge18" class="edge">
<title>15&#45;&gt;13</title>
<path fill="none" stroke="grey" stroke-width="2" d="M844.82,-386.7C857.27,-374.61 874.08,-358.29 887.89,-344.88"/>
<polygon fill="grey" stroke="grey" stroke-width="2" points="890.47,-347.26 895.2,-337.78 885.59,-342.23 890.47,-347.26"/>
</g>
<!-- 16&#45;&gt;1 -->
<g id="edge3" class="edge">
<title>16&#45;&gt;1</title>
<path fill="none" stroke="grey" stroke-width="2" d="M877.21,-143.7C867.83,-135.05 856.32,-124.45 846.09,-115.03"/>
<polygon fill="grey" stroke="grey" stroke-width="2" points="848.3,-112.3 838.57,-108.1 843.55,-117.45 848.3,-112.3"/>
</g>
<!-- 17 -->
<g id="node18" class="node">
<title>17</title>
<path fill="none" stroke="#56d882" stroke-width="2" d="M978.5,-252C978.5,-252 837.5,-252 837.5,-252 831.5,-252 825.5,-246 825.5,-240 825.5,-240 825.5,-228 825.5,-228 825.5,-222 831.5,-216 837.5,-216 837.5,-216 978.5,-216 978.5,-216 984.5,-216 990.5,-222 990.5,-228 990.5,-228 990.5,-240 990.5,-240 990.5,-246 984.5,-252 978.5,-252"/>
<text text-anchor="middle" x="908" y="-231.5" font-family="sans" font-size="10.00">download_treatmentResponse</text>
</g>
<!-- 17&#45;&gt;16 -->
<g id="edge19" class="edge">
<title>17&#45;&gt;16</title>
<path fill="none" stroke="grey" stroke-width="2" d="M905.03,-215.7C903.71,-207.98 902.12,-198.71 900.65,-190.11"/>
<polygon fill="grey" stroke="grey" stroke-width="2" points="904.07,-189.37 898.93,-180.1 897.17,-190.55 904.07,-189.37"/>
</g>
<!-- 18&#45;&gt;1 -->
<g id="edge4" class="edge">
<title>18&#45;&gt;1</title>
<path fill="none" stroke="grey" stroke-width="2" d="M1077.19,-215.99C1062.36,-195.89 1035.07,-162.81 1004,-144 967.87,-122.12 922.28,-108.91 885.52,-101.14"/>
<polygon fill="grey" stroke="grey" stroke-width="2" points="885.9,-97.65 875.4,-99.1 884.51,-104.51 885.9,-97.65"/>
</g>
<!-- 18&#45;&gt;16 -->
<g id="edge20" class="edge">
<title>18&#45;&gt;16</title>
<path fill="none" stroke="grey" stroke-width="2" d="M1041.79,-215.88C1014.93,-206.14 981.12,-193.87 952.82,-183.61"/>
<polygon fill="grey" stroke="grey" stroke-width="2" points="953.65,-180.19 943.06,-180.07 951.27,-186.77 953.65,-180.19"/>
</g>
</g>
</svg>
