<?xml version="1.0" encoding="UTF-8" standalone="no"?>
<!DOCTYPE svg PUBLIC "-//W3C//DTD SVG 1.1//EN"
 "http://www.w3.org/Graphics/SVG/1.1/DTD/svg11.dtd">
<!-- Generated by graphviz version 13.1.2 (20250809.0930)
 -->
<!-- Title: snakemake_dag Pages: 1 -->
<svg width="4412pt" height="1695pt"
 viewBox="0.00 0.00 4412.00 1695.00" xmlns="http://www.w3.org/2000/svg" xmlns:xlink="http://www.w3.org/1999/xlink">
<g id="graph0" class="graph" transform="scale(1 1) rotate(0) translate(4 1691)">
<title>snakemake_dag</title>
<polygon fill="white" stroke="none" points="-4,4 -4,-1691 4408,-1691 4408,4 -4,4"/>
<!-- 0 -->
<g id="node1" class="node">
<title>0</title>
<text xml:space="preserve" text-anchor="start" x="3243.5" y="-85.4" font-family="sans" font-weight="bold" font-size="18.00">all</text>
<text xml:space="preserve" text-anchor="start" x="3170" y="-56.7" font-family="sans" font-size="10.00"> </text>
<text xml:space="preserve" text-anchor="start" x="3172.25" y="-56.7" font-family="sans" font-weight="bold" font-size="14.00">↪ input</text>
<text xml:space="preserve" text-anchor="start" x="3225.5" y="-56.7" font-family="sans" font-size="10.00"> </text>
<text xml:space="preserve" text-anchor="start" x="3170" y="-33" font-family="monospace" font-size="10.00">results/CCLE_PharmacoSet.RDS</text>
<text xml:space="preserve" text-anchor="start" x="3333.5" y="-11.75" font-family="sans" font-size="10.00"> &#160;</text>
<polygon fill="#57d957" stroke="#57d957" points="3164,-73 3164,-73 3345,-73 3345,-73 3164,-73"/>
<polygon fill="#57d957" stroke="#57d957" points="3164,-25.25 3164,-25.25 3345,-25.25 3345,-25.25 3164,-25.25"/>
<polygon fill="none" stroke="#57d957" stroke-width="2" points="3164,-1 3164,-107.5 3344,-107.5 3344,-1 3164,-1"/>
</g>
<!-- 1 -->
<g id="node2" class="node">
<title>1</title>
<text xml:space="preserve" text-anchor="start" x="3168.88" y="-320.15" font-family="sans" font-weight="bold" font-size="18.00">build_PharmacoSet</text>
<text xml:space="preserve" text-anchor="start" x="3056" y="-291.45" font-family="sans" font-size="10.00"> </text>
<text xml:space="preserve" text-anchor="start" x="3058.25" y="-291.45" font-family="sans" font-weight="bold" font-size="14.00">↪ input</text>
<text xml:space="preserve" text-anchor="start" x="3111.5" y="-291.45" font-family="sans" font-size="10.00"> </text>
<text xml:space="preserve" text-anchor="start" x="3056" y="-267.75" font-family="monospace" font-size="10.00">procdata/metadata/annotations/CCLE_sampleMetadata_annotated.tsv</text>
<text xml:space="preserve" text-anchor="start" x="3056" y="-246.5" font-family="monospace" font-size="10.00">procdata/metadata/annotations/CCLE_treatmentMetadata_annotated.tsv</text>
<text xml:space="preserve" text-anchor="start" x="3056" y="-225.25" font-family="monospace" font-size="10.00">results/CCLE_MultiAssayExperiment.RDS</text>
<text xml:space="preserve" text-anchor="start" x="3056" y="-204" font-family="monospace" font-size="10.00">results/treatmentResponse/treatmentResponseExperiment.rds</text>
<text xml:space="preserve" text-anchor="start" x="3383.75" y="-179.95" font-family="sans" font-size="10.00"> </text>
<text xml:space="preserve" text-anchor="start" x="3386" y="-179.95" font-family="sans" font-weight="bold" font-size="14.00">output →</text>
<text xml:space="preserve" text-anchor="start" x="3449.75" y="-179.95" font-family="sans" font-size="10.00"> </text>
<text xml:space="preserve" text-anchor="start" x="3056" y="-156.25" font-family="monospace" font-size="10.00">results/CCLE_PharmacoSet.RDS</text>
<polygon fill="#d98257" stroke="#d98257" points="3050,-307.75 3050,-307.75 3459,-307.75 3459,-307.75 3050,-307.75"/>
<polygon fill="#d98257" stroke="#d98257" points="3050,-196.25 3050,-196.25 3459,-196.25 3459,-196.25 3050,-196.25"/>
<polygon fill="none" stroke="#d98257" stroke-width="2" points="3050,-145.5 3050,-342.25 3458,-342.25 3458,-145.5 3050,-145.5"/>
</g>
<!-- 1&#45;&gt;0 -->
<g id="edge1" class="edge">
<title>1&#45;&gt;0</title>
<path fill="none" stroke="grey" stroke-width="2" d="M3254,-144.67C3254,-136.7 3254,-128.77 3254,-121.12"/>
<polygon fill="grey" stroke="grey" stroke-width="2" points="3257.5,-121.15 3254,-111.15 3250.5,-121.15 3257.5,-121.15"/>
</g>
<!-- 2 -->
<g id="node3" class="node">
<title>2</title>
<text xml:space="preserve" text-anchor="start" x="2436.88" y="-576.15" font-family="sans" font-weight="bold" font-size="18.00">build_MultiAssayExperiment</text>
<text xml:space="preserve" text-anchor="start" x="2375" y="-547.45" font-family="sans" font-size="10.00"> </text>
<text xml:space="preserve" text-anchor="start" x="2377.25" y="-547.45" font-family="sans" font-weight="bold" font-size="14.00">↪ input</text>
<text xml:space="preserve" text-anchor="start" x="2430.5" y="-547.45" font-family="sans" font-size="10.00"> </text>
<text xml:space="preserve" text-anchor="start" x="2375" y="-523.75" font-family="monospace" font-size="10.00">procdata/cnv/CNV_SE.RDS</text>
<text xml:space="preserve" text-anchor="start" x="2375" y="-502.5" font-family="monospace" font-size="10.00">procdata/metadata/annotations/CCLE_sampleMetadata_annotated.tsv</text>
<text xml:space="preserve" text-anchor="start" x="2375" y="-481.25" font-family="monospace" font-size="10.00">procdata/mutation/Mutation_SE.RDS</text>
<text xml:space="preserve" text-anchor="start" x="2375" y="-460" font-family="monospace" font-size="10.00">procdata/proteomics/CCLE_RPPA_SE.RDS</text>
<text xml:space="preserve" text-anchor="start" x="2375" y="-438.75" font-family="monospace" font-size="10.00">procdata/rnaseq/CCLE_RNASEQ_rse_list.RDS</text>
<text xml:space="preserve" text-anchor="start" x="2684.75" y="-414.7" font-family="sans" font-size="10.00"> </text>
<text xml:space="preserve" text-anchor="start" x="2687" y="-414.7" font-family="sans" font-weight="bold" font-size="14.00">output →</text>
<text xml:space="preserve" text-anchor="start" x="2750.75" y="-414.7" font-family="sans" font-size="10.00"> </text>
<text xml:space="preserve" text-anchor="start" x="2375" y="-391" font-family="monospace" font-size="10.00">results/CCLE_MultiAssayExperiment.RDS</text>
<polygon fill="#d9ad57" stroke="#d9ad57" points="2369,-563.75 2369,-563.75 2760,-563.75 2760,-563.75 2369,-563.75"/>
<polygon fill="#d9ad57" stroke="#d9ad57" points="2369,-431 2369,-431 2760,-431 2760,-431 2369,-431"/>
<polygon fill="none" stroke="#d9ad57" stroke-width="2" points="2369,-380.25 2369,-598.25 2759,-598.25 2759,-380.25 2369,-380.25"/>
</g>
<!-- 2&#45;&gt;1 -->
<g id="edge5" class="edge">
<title>2&#45;&gt;1</title>
<path fill="none" stroke="grey" stroke-width="2" d="M2759.88,-419.16C2846.35,-388.66 2948.29,-352.7 3037.06,-321.39"/>
<polygon fill="grey" stroke="grey" stroke-width="2" points="3038.09,-324.74 3046.36,-318.11 3035.76,-318.14 3038.09,-324.74"/>
</g>
<!-- 3 -->
<g id="node4" class="node">
<title>3</title>
<text xml:space="preserve" text-anchor="start" x="843.25" y="-938.4" font-family="sans" font-weight="bold" font-size="18.00">make_RNASEQ_SE</text>
<text xml:space="preserve" text-anchor="start" x="700" y="-909.7" font-family="sans" font-size="10.00"> </text>
<text xml:space="preserve" text-anchor="start" x="702.25" y="-909.7" font-family="sans" font-weight="bold" font-size="14.00">↪ input</text>
<text xml:space="preserve" text-anchor="start" x="755.5" y="-909.7" font-family="sans" font-size="10.00"> </text>
<text xml:space="preserve" text-anchor="start" x="700" y="-886" font-family="monospace" font-size="10.00">metadata/homo_sapiens/GRCh37_v19/annotation.gtf</text>
<text xml:space="preserve" text-anchor="start" x="700" y="-864.75" font-family="monospace" font-size="10.00">metadata/referenceGenome/gencode.v19.genes.v7_model.patched_contigs.gtf.gz</text>
<text xml:space="preserve" text-anchor="start" x="700" y="-843.5" font-family="monospace" font-size="10.00">rawdata/rnaseq/CCLE_RNAseq_genes_counts_20180929.gct.gz</text>
<text xml:space="preserve" text-anchor="start" x="700" y="-822.25" font-family="monospace" font-size="10.00">rawdata/rnaseq/CCLE_RNAseq_genes_rpkm_20180929.gct.gz</text>
<text xml:space="preserve" text-anchor="start" x="700" y="-801" font-family="monospace" font-size="10.00">rawdata/rnaseq/CCLE_RNAseq_rsem_genes_tpm_20180929.txt</text>
<text xml:space="preserve" text-anchor="start" x="700" y="-779.75" font-family="monospace" font-size="10.00">rawdata/rnaseq/CCLE_RNAseq_rsem_transcripts_tpm_20180929.txt</text>
<text xml:space="preserve" text-anchor="start" x="1075.75" y="-755.7" font-family="sans" font-size="10.00"> </text>
<text xml:space="preserve" text-anchor="start" x="1078" y="-755.7" font-family="sans" font-weight="bold" font-size="14.00">output →</text>
<text xml:space="preserve" text-anchor="start" x="1141.75" y="-755.7" font-family="sans" font-size="10.00"> </text>
<text xml:space="preserve" text-anchor="start" x="700" y="-732" font-family="monospace" font-size="10.00">procdata/rnaseq/CCLE_RNASEQ_rse_list.RDS</text>
<text xml:space="preserve" text-anchor="start" x="700" y="-710.75" font-family="monospace" font-size="10.00">procdata/rnaseq/CCLE_RNAseq_genes_counts.tsv</text>
<text xml:space="preserve" text-anchor="start" x="700" y="-689.5" font-family="monospace" font-size="10.00">procdata/rnaseq/CCLE_RNAseq_genes_rpkm.tsv</text>
<text xml:space="preserve" text-anchor="start" x="700" y="-668.25" font-family="monospace" font-size="10.00">procdata/rnaseq/CCLE_RNAseq_genes_tpm.tsv</text>
<text xml:space="preserve" text-anchor="start" x="700" y="-647" font-family="monospace" font-size="10.00">procdata/rnaseq/CCLE_RNAseq_transcripts_tpm.tsv</text>
<polygon fill="#576cd9" stroke="#576cd9" points="694,-926 694,-926 1151,-926 1151,-926 694,-926"/>
<polygon fill="#576cd9" stroke="#576cd9" points="694,-772 694,-772 1151,-772 1151,-772 694,-772"/>
<polygon fill="none" stroke="#576cd9" stroke-width="2" points="694,-636.25 694,-960.5 1150,-960.5 1150,-636.25 694,-636.25"/>
</g>
<!-- 3&#45;&gt;2 -->
<g id="edge10" class="edge">
<title>3&#45;&gt;2</title>
<path fill="none" stroke="grey" stroke-width="2" d="M1150.84,-746.96C1304.89,-713.65 1512.77,-669.91 1697,-635.25 1921.35,-593.04 2179.53,-550.65 2355.41,-522.71"/>
<polygon fill="grey" stroke="grey" stroke-width="2" points="2355.87,-526.18 2365.2,-521.15 2354.77,-519.26 2355.87,-526.18"/>
</g>
<!-- 4 -->
<g id="node5" class="node">
<title>4</title>
<text xml:space="preserve" text-anchor="start" x="153.25" y="-1236.9" font-family="sans" font-weight="bold" font-size="18.00">download_RNASEQ</text>
<text xml:space="preserve" text-anchor="start" x="7" y="-1208.2" font-family="sans" font-size="10.00"> </text>
<text xml:space="preserve" text-anchor="start" x="9.25" y="-1208.2" font-family="sans" font-weight="bold" font-size="14.00">↪ input</text>
<text xml:space="preserve" text-anchor="start" x="62.5" y="-1208.2" font-family="sans" font-size="10.00"> </text>
<text xml:space="preserve" text-anchor="start" x="7" y="-1184.5" font-family="monospace" font-size="10.00">data.broadinstitute.org/ccle/CCLE_RNAseq_genes_counts_20180929.gct.gz</text>
<text xml:space="preserve" text-anchor="start" x="7" y="-1163.25" font-family="monospace" font-size="10.00">data.broadinstitute.org/ccle/CCLE_RNAseq_genes_rpkm_20180929.gct.gz</text>
<text xml:space="preserve" text-anchor="start" x="7" y="-1142" font-family="monospace" font-size="10.00">data.broadinstitute.org/ccle/CCLE_RNAseq_rsem_genes_tpm_20180929.txt.gz</text>
<text xml:space="preserve" text-anchor="start" x="7" y="-1120.75" font-family="monospace" font-size="10.00">data.broadinstitute.org/ccle/CCLE_RNAseq_rsem_transcripts_tpm_20180929.txt.gz</text>
<text xml:space="preserve" text-anchor="start" x="400.75" y="-1096.7" font-family="sans" font-size="10.00"> </text>
<text xml:space="preserve" text-anchor="start" x="403" y="-1096.7" font-family="sans" font-weight="bold" font-size="14.00">output →</text>
<text xml:space="preserve" text-anchor="start" x="466.75" y="-1096.7" font-family="sans" font-size="10.00"> </text>
<text xml:space="preserve" text-anchor="start" x="7" y="-1073" font-family="monospace" font-size="10.00">rawdata/rnaseq/CCLE_RNAseq_genes_counts_20180929.gct.gz</text>
<text xml:space="preserve" text-anchor="start" x="7" y="-1051.75" font-family="monospace" font-size="10.00">rawdata/rnaseq/CCLE_RNAseq_genes_rpkm_20180929.gct.gz</text>
<text xml:space="preserve" text-anchor="start" x="7" y="-1030.5" font-family="monospace" font-size="10.00">rawdata/rnaseq/CCLE_RNAseq_rsem_genes_tpm_20180929.txt</text>
<text xml:space="preserve" text-anchor="start" x="7" y="-1009.25" font-family="monospace" font-size="10.00">rawdata/rnaseq/CCLE_RNAseq_rsem_transcripts_tpm_20180929.txt</text>
<polygon fill="#57d9ad" stroke="#57d9ad" points="1,-1224.5 1,-1224.5 476,-1224.5 476,-1224.5 1,-1224.5"/>
<polygon fill="#57d9ad" stroke="#57d9ad" points="1,-1113 1,-1113 476,-1113 476,-1113 1,-1113"/>
<polygon fill="none" stroke="#57d9ad" stroke-width="2" points="1,-998.5 1,-1259 475,-1259 475,-998.5 1,-998.5"/>
</g>
<!-- 4&#45;&gt;3 -->
<g id="edge11" class="edge">
<title>4&#45;&gt;3</title>
<path fill="none" stroke="grey" stroke-width="2" d="M475.81,-1002.02C478.89,-1000.5 481.95,-998.99 485,-997.5 548.25,-966.52 617.39,-934.39 681.63,-905.25"/>
<polygon fill="grey" stroke="grey" stroke-width="2" points="682.72,-908.6 690.38,-901.29 679.83,-902.22 682.72,-908.6"/>
</g>
<!-- 5 -->
<g id="node6" class="node">
<title>5</title>
<text xml:space="preserve" text-anchor="start" x="585.38" y="-1159.9" font-family="sans" font-weight="bold" font-size="18.00">getGENCODEannotation</text>
<text xml:space="preserve" text-anchor="start" x="501" y="-1134" font-family="sans" font-size="10.00"> &#160;</text>
<text xml:space="preserve" text-anchor="start" x="816.75" y="-1109.95" font-family="sans" font-size="10.00"> </text>
<text xml:space="preserve" text-anchor="start" x="819" y="-1109.95" font-family="sans" font-weight="bold" font-size="14.00">output →</text>
<text xml:space="preserve" text-anchor="start" x="882.75" y="-1109.95" font-family="sans" font-size="10.00"> </text>
<text xml:space="preserve" text-anchor="start" x="501" y="-1086.25" font-family="monospace" font-size="10.00">{refDir}/{species}/{ref_build}_v{gencode_release}/annotation.gtf</text>
<polygon fill="#57d9c3" stroke="#57d9c3" points="495,-1147.5 495,-1147.5 892,-1147.5 892,-1147.5 495,-1147.5"/>
<polygon fill="#57d9c3" stroke="#57d9c3" points="495,-1126.25 495,-1126.25 892,-1126.25 892,-1126.25 495,-1126.25"/>
<polygon fill="none" stroke="#57d9c3" stroke-width="2" points="495,-1075.5 495,-1182 891,-1182 891,-1075.5 495,-1075.5"/>
</g>
<!-- 5&#45;&gt;3 -->
<g id="edge12" class="edge">
<title>5&#45;&gt;3</title>
<path fill="none" stroke="grey" stroke-width="2" d="M730.05,-1074.63C749.89,-1046.17 775.58,-1009.34 801.67,-971.92"/>
<polygon fill="grey" stroke="grey" stroke-width="2" points="804.45,-974.05 807.3,-963.84 798.71,-970.05 804.45,-974.05"/>
</g>
<!-- 6 -->
<g id="node7" class="node">
<title>6</title>
<text xml:space="preserve" text-anchor="start" x="1049.75" y="-1173.15" font-family="sans" font-weight="bold" font-size="18.00">downloadGenomeFiles</text>
<text xml:space="preserve" text-anchor="start" x="917" y="-1144.45" font-family="sans" font-size="10.00"> </text>
<text xml:space="preserve" text-anchor="start" x="919.25" y="-1144.45" font-family="sans" font-weight="bold" font-size="14.00">↪ input</text>
<text xml:space="preserve" text-anchor="start" x="972.5" y="-1144.45" font-family="sans" font-size="10.00"> </text>
<text xml:space="preserve" text-anchor="start" x="917" y="-1120.75" font-family="monospace" font-size="10.00">data.broadinstitute.org/ccle/gencode.v19.genes.v7_model.patched_contigs.gtf.gz</text>
<text xml:space="preserve" text-anchor="start" x="1316.75" y="-1096.7" font-family="sans" font-size="10.00"> </text>
<text xml:space="preserve" text-anchor="start" x="1319" y="-1096.7" font-family="sans" font-weight="bold" font-size="14.00">output →</text>
<text xml:space="preserve" text-anchor="start" x="1382.75" y="-1096.7" font-family="sans" font-size="10.00"> </text>
<text xml:space="preserve" text-anchor="start" x="917" y="-1073" font-family="monospace" font-size="10.00">metadata/referenceGenome/gencode.v19.genes.v7_model.patched_contigs.gtf.gz</text>
<polygon fill="#6cd957" stroke="#6cd957" points="911,-1160.75 911,-1160.75 1392,-1160.75 1392,-1160.75 911,-1160.75"/>
<polygon fill="#6cd957" stroke="#6cd957" points="911,-1113 911,-1113 1392,-1113 1392,-1113 911,-1113"/>
<polygon fill="none" stroke="#6cd957" stroke-width="2" points="911,-1062.25 911,-1195.25 1391,-1195.25 1391,-1062.25 911,-1062.25"/>
</g>
<!-- 6&#45;&gt;3 -->
<g id="edge13" class="edge">
<title>6&#45;&gt;3</title>
<path fill="none" stroke="grey" stroke-width="2" d="M1104.66,-1061.3C1086.38,-1035.09 1064.46,-1003.65 1042.24,-971.8"/>
<polygon fill="grey" stroke="grey" stroke-width="2" points="1045.35,-970.13 1036.76,-963.93 1039.61,-974.14 1045.35,-970.13"/>
</g>
<!-- 7 -->
<g id="node8" class="node">
<title>7</title>
<text xml:space="preserve" text-anchor="start" x="1798.88" y="-842.77" font-family="sans" font-weight="bold" font-size="18.00">make_CNV_SE</text>
<text xml:space="preserve" text-anchor="start" x="1713" y="-814.08" font-family="sans" font-size="10.00"> </text>
<text xml:space="preserve" text-anchor="start" x="1715.25" y="-814.08" font-family="sans" font-weight="bold" font-size="14.00">↪ input</text>
<text xml:space="preserve" text-anchor="start" x="1768.5" y="-814.08" font-family="sans" font-size="10.00"> </text>
<text xml:space="preserve" text-anchor="start" x="1713" y="-790.38" font-family="monospace" font-size="10.00">rawdata/cnv/CCLE_copynumber_byGene_2013&#45;12&#45;03.txt</text>
<text xml:space="preserve" text-anchor="start" x="1938.75" y="-766.33" font-family="sans" font-size="10.00"> </text>
<text xml:space="preserve" text-anchor="start" x="1941" y="-766.33" font-family="sans" font-weight="bold" font-size="14.00">output →</text>
<text xml:space="preserve" text-anchor="start" x="2004.75" y="-766.33" font-family="sans" font-size="10.00"> </text>
<text xml:space="preserve" text-anchor="start" x="1713" y="-742.62" font-family="monospace" font-size="10.00">procdata/cnv/CNV_SE.RDS</text>
<polygon fill="#d9d957" stroke="#d9d957" points="1707,-830.38 1707,-830.38 2014,-830.38 2014,-830.38 1707,-830.38"/>
<polygon fill="#d9d957" stroke="#d9d957" points="1707,-782.62 1707,-782.62 2014,-782.62 2014,-782.62 1707,-782.62"/>
<polygon fill="none" stroke="#d9d957" stroke-width="2" points="1707,-731.88 1707,-864.88 2013,-864.88 2013,-731.88 1707,-731.88"/>
</g>
<!-- 7&#45;&gt;2 -->
<g id="edge6" class="edge">
<title>7&#45;&gt;2</title>
<path fill="none" stroke="grey" stroke-width="2" d="M2007.65,-730.98C2073.72,-701.42 2152.66,-666.35 2224,-635.25 2266.7,-616.64 2312.53,-596.92 2356.27,-578.22"/>
<polygon fill="grey" stroke="grey" stroke-width="2" points="2357.64,-581.44 2365.46,-574.29 2354.89,-575 2357.64,-581.44"/>
</g>
<!-- 8 -->
<g id="node9" class="node">
<title>8</title>
<text xml:space="preserve" text-anchor="start" x="1644.62" y="-1173.15" font-family="sans" font-weight="bold" font-size="18.00">downloadCNV</text>
<text xml:space="preserve" text-anchor="start" x="1417" y="-1144.45" font-family="sans" font-size="10.00"> </text>
<text xml:space="preserve" text-anchor="start" x="1419.25" y="-1144.45" font-family="sans" font-weight="bold" font-size="14.00">↪ input</text>
<text xml:space="preserve" text-anchor="start" x="1472.5" y="-1144.45" font-family="sans" font-size="10.00"> </text>
<text xml:space="preserve" text-anchor="start" x="1417" y="-1120.75" font-family="monospace" font-size="10.00">data.broadinstitute.org/ccle_legacy_data/dna_copy_number/CCLE_copynumber_byGene_2013&#45;12&#45;03.txt.gz</text>
<text xml:space="preserve" text-anchor="start" x="1930.75" y="-1096.7" font-family="sans" font-size="10.00"> </text>
<text xml:space="preserve" text-anchor="start" x="1933" y="-1096.7" font-family="sans" font-weight="bold" font-size="14.00">output →</text>
<text xml:space="preserve" text-anchor="start" x="1996.75" y="-1096.7" font-family="sans" font-size="10.00"> </text>
<text xml:space="preserve" text-anchor="start" x="1417" y="-1073" font-family="monospace" font-size="10.00">rawdata/cnv/CCLE_copynumber_byGene_2013&#45;12&#45;03.txt</text>
<polygon fill="#57d998" stroke="#57d998" points="1411,-1160.75 1411,-1160.75 2006,-1160.75 2006,-1160.75 1411,-1160.75"/>
<polygon fill="#57d998" stroke="#57d998" points="1411,-1113 1411,-1113 2006,-1113 2006,-1113 1411,-1113"/>
<polygon fill="none" stroke="#57d998" stroke-width="2" points="1411,-1062.25 1411,-1195.25 2005,-1195.25 2005,-1062.25 1411,-1062.25"/>
</g>
<!-- 8&#45;&gt;7 -->
<g id="edge14" class="edge">
<title>8&#45;&gt;7</title>
<path fill="none" stroke="grey" stroke-width="2" d="M1738.76,-1061.3C1763.38,-1008.11 1797.96,-933.41 1823.89,-877.38"/>
<polygon fill="grey" stroke="grey" stroke-width="2" points="1826.99,-879.02 1828.01,-868.47 1820.64,-876.08 1826.99,-879.02"/>
</g>
<!-- 9 -->
<g id="node10" class="node">
<title>9</title>
<text xml:space="preserve" text-anchor="start" x="2282.38" y="-842.77" font-family="sans" font-weight="bold" font-size="18.00">make_Mutation_SE</text>
<text xml:space="preserve" text-anchor="start" x="2240" y="-814.08" font-family="sans" font-size="10.00"> </text>
<text xml:space="preserve" text-anchor="start" x="2242.25" y="-814.08" font-family="sans" font-weight="bold" font-size="14.00">↪ input</text>
<text xml:space="preserve" text-anchor="start" x="2295.5" y="-814.08" font-family="sans" font-size="10.00"> </text>
<text xml:space="preserve" text-anchor="start" x="2240" y="-790.38" font-family="monospace" font-size="10.00">procdata/mutation/preprocessedMutation.RDS</text>
<text xml:space="preserve" text-anchor="start" x="2423.75" y="-766.33" font-family="sans" font-size="10.00"> </text>
<text xml:space="preserve" text-anchor="start" x="2426" y="-766.33" font-family="sans" font-weight="bold" font-size="14.00">output →</text>
<text xml:space="preserve" text-anchor="start" x="2489.75" y="-766.33" font-family="sans" font-size="10.00"> </text>
<text xml:space="preserve" text-anchor="start" x="2240" y="-742.62" font-family="monospace" font-size="10.00">procdata/mutation/Mutation_SE.RDS</text>
<polygon fill="#c3d957" stroke="#c3d957" points="2234,-830.38 2234,-830.38 2499,-830.38 2499,-830.38 2234,-830.38"/>
<polygon fill="#c3d957" stroke="#c3d957" points="2234,-782.62 2234,-782.62 2499,-782.62 2499,-782.62 2234,-782.62"/>
<polygon fill="none" stroke="#c3d957" stroke-width="2" points="2234,-731.88 2234,-864.88 2498,-864.88 2498,-731.88 2234,-731.88"/>
</g>
<!-- 9&#45;&gt;2 -->
<g id="edge8" class="edge">
<title>9&#45;&gt;2</title>
<path fill="none" stroke="grey" stroke-width="2" d="M2408.72,-731.11C2431.57,-695.67 2460.41,-650.93 2487.02,-609.66"/>
<polygon fill="grey" stroke="grey" stroke-width="2" points="2489.79,-611.81 2492.27,-601.51 2483.91,-608.02 2489.79,-611.81"/>
</g>
<!-- 10 -->
<g id="node11" class="node">
<title>10</title>
<text xml:space="preserve" text-anchor="start" x="2226" y="-1194.4" font-family="sans" font-weight="bold" font-size="18.00">preprocessMutation</text>
<text xml:space="preserve" text-anchor="start" x="2031" y="-1165.7" font-family="sans" font-size="10.00"> </text>
<text xml:space="preserve" text-anchor="start" x="2033.25" y="-1165.7" font-family="sans" font-weight="bold" font-size="14.00">↪ input</text>
<text xml:space="preserve" text-anchor="start" x="2086.5" y="-1165.7" font-family="sans" font-size="10.00"> </text>
<text xml:space="preserve" text-anchor="start" x="2031" y="-1142" font-family="monospace" font-size="10.00">rawdata/mutation/CCLE_Oncomap3_2012&#45;04&#45;09.maf</text>
<text xml:space="preserve" text-anchor="start" x="2031" y="-1120.75" font-family="monospace" font-size="10.00">rawdata/mutation/CCLE_Oncomap3_Assays_2012&#45;04&#45;09.csv</text>
<text xml:space="preserve" text-anchor="start" x="2031" y="-1099.5" font-family="monospace" font-size="10.00">rawdata/mutation/CCLE_hybrid_capture1650_hg19_NoCommonSNPs_NoNeutralVariants_CDS_2012.05.07.maf</text>
<text xml:space="preserve" text-anchor="start" x="2532.75" y="-1075.45" font-family="sans" font-size="10.00"> </text>
<text xml:space="preserve" text-anchor="start" x="2535" y="-1075.45" font-family="sans" font-weight="bold" font-size="14.00">output →</text>
<text xml:space="preserve" text-anchor="start" x="2598.75" y="-1075.45" font-family="sans" font-size="10.00"> </text>
<text xml:space="preserve" text-anchor="start" x="2031" y="-1051.75" font-family="monospace" font-size="10.00">procdata/mutation/preprocessedMutation.RDS</text>
<polygon fill="#5782d9" stroke="#5782d9" points="2025,-1182 2025,-1182 2608,-1182 2608,-1182 2025,-1182"/>
<polygon fill="#5782d9" stroke="#5782d9" points="2025,-1091.75 2025,-1091.75 2608,-1091.75 2608,-1091.75 2025,-1091.75"/>
<polygon fill="none" stroke="#5782d9" stroke-width="2" points="2025,-1041 2025,-1216.5 2607,-1216.5 2607,-1041 2025,-1041"/>
</g>
<!-- 10&#45;&gt;9 -->
<g id="edge15" class="edge">
<title>10&#45;&gt;9</title>
<path fill="none" stroke="grey" stroke-width="2" d="M2329.33,-1040.18C2336.99,-989.87 2346.54,-927.17 2353.97,-878.37"/>
<polygon fill="grey" stroke="grey" stroke-width="2" points="2357.41,-879.04 2355.45,-868.63 2350.49,-877.99 2357.41,-879.04"/>
</g>
<!-- 11 -->
<g id="node12" class="node">
<title>11</title>
<text xml:space="preserve" text-anchor="start" x="2230.12" y="-1492.9" font-family="sans" font-weight="bold" font-size="18.00">downloadMutation</text>
<text xml:space="preserve" text-anchor="start" x="1881" y="-1464.2" font-family="sans" font-size="10.00"> </text>
<text xml:space="preserve" text-anchor="start" x="1883.25" y="-1464.2" font-family="sans" font-weight="bold" font-size="14.00">↪ input</text>
<text xml:space="preserve" text-anchor="start" x="1936.5" y="-1464.2" font-family="sans" font-size="10.00"> </text>
<text xml:space="preserve" text-anchor="start" x="1881" y="-1440.5" font-family="monospace" font-size="10.00">data.broadinstitute.org/ccle_legacy_data/hybrid_capture_sequencing/CCLE_hybrid_capture1650_hg19_NoCommonSNPs_NoNeutralVariants_CDS_2012.05.07.maf</text>
<text xml:space="preserve" text-anchor="start" x="1881" y="-1419.25" font-family="monospace" font-size="10.00">data.broadinstitute.org/ccle_legacy_data/oncomap_mutations/CCLE_Oncomap3_2012&#45;04&#45;09.maf</text>
<text xml:space="preserve" text-anchor="start" x="1881" y="-1398" font-family="monospace" font-size="10.00">data.broadinstitute.org/ccle_legacy_data/oncomap_mutations/CCLE_Oncomap3_Assays_2012&#45;04&#45;09.csv</text>
<text xml:space="preserve" text-anchor="start" x="2682.75" y="-1373.95" font-family="sans" font-size="10.00"> </text>
<text xml:space="preserve" text-anchor="start" x="2685" y="-1373.95" font-family="sans" font-weight="bold" font-size="14.00">output →</text>
<text xml:space="preserve" text-anchor="start" x="2748.75" y="-1373.95" font-family="sans" font-size="10.00"> </text>
<text xml:space="preserve" text-anchor="start" x="1881" y="-1350.25" font-family="monospace" font-size="10.00">rawdata/mutation/CCLE_Oncomap3_2012&#45;04&#45;09.maf</text>
<text xml:space="preserve" text-anchor="start" x="1881" y="-1329" font-family="monospace" font-size="10.00">rawdata/mutation/CCLE_Oncomap3_Assays_2012&#45;04&#45;09.csv</text>
<text xml:space="preserve" text-anchor="start" x="1881" y="-1307.75" font-family="monospace" font-size="10.00">rawdata/mutation/CCLE_hybrid_capture1650_hg19_NoCommonSNPs_NoNeutralVariants_CDS_2012.05.07.maf</text>
<polygon fill="#98d957" stroke="#98d957" points="1875,-1480.5 1875,-1480.5 2758,-1480.5 2758,-1480.5 1875,-1480.5"/>
<polygon fill="#98d957" stroke="#98d957" points="1875,-1390.25 1875,-1390.25 2758,-1390.25 2758,-1390.25 1875,-1390.25"/>
<polygon fill="none" stroke="#98d957" stroke-width="2" points="1875,-1297 1875,-1515 2757,-1515 2757,-1297 1875,-1297"/>
</g>
<!-- 11&#45;&gt;10 -->
<g id="edge16" class="edge">
<title>11&#45;&gt;10</title>
<path fill="none" stroke="grey" stroke-width="2" d="M2316,-1296.21C2316,-1274.46 2316,-1251.7 2316,-1230.24"/>
<polygon fill="grey" stroke="grey" stroke-width="2" points="2319.5,-1230.45 2316,-1220.45 2312.5,-1230.45 2319.5,-1230.45"/>
</g>
<!-- 12 -->
<g id="node13" class="node">
<title>12</title>
<text xml:space="preserve" text-anchor="start" x="2696.75" y="-874.65" font-family="sans" font-weight="bold" font-size="18.00">make_RPPA_SE</text>
<text xml:space="preserve" text-anchor="start" x="2573" y="-845.95" font-family="sans" font-size="10.00"> </text>
<text xml:space="preserve" text-anchor="start" x="2575.25" y="-845.95" font-family="sans" font-weight="bold" font-size="14.00">↪ input</text>
<text xml:space="preserve" text-anchor="start" x="2628.5" y="-845.95" font-family="sans" font-size="10.00"> </text>
<text xml:space="preserve" text-anchor="start" x="2573" y="-822.25" font-family="monospace" font-size="10.00">procdata/metadata/annotations/CCLE_sampleMetadata_annotated.tsv</text>
<text xml:space="preserve" text-anchor="start" x="2573" y="-801" font-family="monospace" font-size="10.00">rawdata/proteomics/harmonized_RPPA_CCLE.csv</text>
<text xml:space="preserve" text-anchor="start" x="2882.75" y="-776.95" font-family="sans" font-size="10.00"> </text>
<text xml:space="preserve" text-anchor="start" x="2885" y="-776.95" font-family="sans" font-weight="bold" font-size="14.00">output →</text>
<text xml:space="preserve" text-anchor="start" x="2948.75" y="-776.95" font-family="sans" font-size="10.00"> </text>
<text xml:space="preserve" text-anchor="start" x="2573" y="-753.25" font-family="monospace" font-size="10.00">procdata/proteomics/CCLE_RPPA_SE.RDS</text>
<text xml:space="preserve" text-anchor="start" x="2573" y="-732" font-family="monospace" font-size="10.00">procdata/proteomics/CCLE_RPPA_feature_metadata.tsv</text>
<text xml:space="preserve" text-anchor="start" x="2573" y="-710.75" font-family="monospace" font-size="10.00">procdata/proteomics/CCLE_RPPA_sample_metadata.tsv</text>
<polygon fill="#5798d9" stroke="#5798d9" points="2567,-862.25 2567,-862.25 2958,-862.25 2958,-862.25 2567,-862.25"/>
<polygon fill="#5798d9" stroke="#5798d9" points="2567,-793.25 2567,-793.25 2958,-793.25 2958,-793.25 2567,-793.25"/>
<polygon fill="none" stroke="#5798d9" stroke-width="2" points="2567,-700 2567,-896.75 2957,-896.75 2957,-700 2567,-700"/>
</g>
<!-- 12&#45;&gt;2 -->
<g id="edge9" class="edge">
<title>12&#45;&gt;2</title>
<path fill="none" stroke="grey" stroke-width="2" d="M2698.81,-699.35C2680.46,-670.9 2660.22,-639.5 2641.12,-609.88"/>
<polygon fill="grey" stroke="grey" stroke-width="2" points="2644.15,-608.11 2635.79,-601.6 2638.26,-611.9 2644.15,-608.11"/>
</g>
<!-- 13 -->
<g id="node14" class="node">
<title>13</title>
<text xml:space="preserve" text-anchor="start" x="2690.75" y="-1159.9" font-family="sans" font-weight="bold" font-size="18.00">download_RPPA</text>
<text xml:space="preserve" text-anchor="start" x="2633" y="-1134" font-family="sans" font-size="10.00"> &#160;</text>
<text xml:space="preserve" text-anchor="start" x="2822.75" y="-1109.95" font-family="sans" font-size="10.00"> </text>
<text xml:space="preserve" text-anchor="start" x="2825" y="-1109.95" font-family="sans" font-weight="bold" font-size="14.00">output →</text>
<text xml:space="preserve" text-anchor="start" x="2888.75" y="-1109.95" font-family="sans" font-size="10.00"> </text>
<text xml:space="preserve" text-anchor="start" x="2633" y="-1086.25" font-family="monospace" font-size="10.00">rawdata/proteomics/harmonized_RPPA_CCLE.csv</text>
<polygon fill="#57c3d9" stroke="#57c3d9" points="2627,-1147.5 2627,-1147.5 2898,-1147.5 2898,-1147.5 2627,-1147.5"/>
<polygon fill="#57c3d9" stroke="#57c3d9" points="2627,-1126.25 2627,-1126.25 2898,-1126.25 2898,-1126.25 2627,-1126.25"/>
<polygon fill="none" stroke="#57c3d9" stroke-width="2" points="2627,-1075.5 2627,-1182 2897,-1182 2897,-1075.5 2627,-1075.5"/>
</g>
<!-- 13&#45;&gt;12 -->
<g id="edge17" class="edge">
<title>13&#45;&gt;12</title>
<path fill="none" stroke="grey" stroke-width="2" d="M2762,-1074.63C2762,-1030.34 2762,-965.75 2762,-910.27"/>
<polygon fill="grey" stroke="grey" stroke-width="2" points="2765.5,-910.51 2762,-900.51 2758.5,-910.51 2765.5,-910.51"/>
</g>
<!-- 14 -->
<g id="node15" class="node">
<title>14</title>
<text xml:space="preserve" text-anchor="start" x="2992.75" y="-1173.15" font-family="sans" font-weight="bold" font-size="18.00">annotate_sampleMetadata</text>
<text xml:space="preserve" text-anchor="start" x="2923" y="-1144.45" font-family="sans" font-size="10.00"> </text>
<text xml:space="preserve" text-anchor="start" x="2925.25" y="-1144.45" font-family="sans" font-weight="bold" font-size="14.00">↪ input</text>
<text xml:space="preserve" text-anchor="start" x="2978.5" y="-1144.45" font-family="sans" font-size="10.00"> </text>
<text xml:space="preserve" text-anchor="start" x="2923" y="-1120.75" font-family="monospace" font-size="10.00">procdata/metadata/preprocessed_sampleMetadata.tsv</text>
<text xml:space="preserve" text-anchor="start" x="3232.75" y="-1096.7" font-family="sans" font-size="10.00"> </text>
<text xml:space="preserve" text-anchor="start" x="3235" y="-1096.7" font-family="sans" font-weight="bold" font-size="14.00">output →</text>
<text xml:space="preserve" text-anchor="start" x="3298.75" y="-1096.7" font-family="sans" font-size="10.00"> </text>
<text xml:space="preserve" text-anchor="start" x="2923" y="-1073" font-family="monospace" font-size="10.00">procdata/metadata/annotations/CCLE_sampleMetadata_annotated.tsv</text>
<polygon fill="#57d96c" stroke="#57d96c" points="2917,-1160.75 2917,-1160.75 3308,-1160.75 3308,-1160.75 2917,-1160.75"/>
<polygon fill="#57d96c" stroke="#57d96c" points="2917,-1113 2917,-1113 3308,-1113 3308,-1113 2917,-1113"/>
<polygon fill="none" stroke="#57d96c" stroke-width="2" points="2917,-1062.25 2917,-1195.25 3307,-1195.25 3307,-1062.25 2917,-1062.25"/>
</g>
<!-- 14&#45;&gt;1 -->
<g id="edge2" class="edge">
<title>14&#45;&gt;1</title>
<path fill="none" stroke="grey" stroke-width="2" d="M3122.67,-1061.39C3146.89,-910.83 3206.2,-542.05 3236.12,-356.03"/>
<polygon fill="grey" stroke="grey" stroke-width="2" points="3239.57,-356.65 3237.7,-346.22 3232.66,-355.53 3239.57,-356.65"/>
</g>
<!-- 14&#45;&gt;2 -->
<g id="edge7" class="edge">
<title>14&#45;&gt;2</title>
<path fill="none" stroke="grey" stroke-width="2" d="M3110.76,-1061.54C3105.25,-957.36 3079.65,-754.75 2967,-635.25 2915.59,-580.71 2842.19,-546.64 2772.09,-525.38"/>
<polygon fill="grey" stroke="grey" stroke-width="2" points="2773.44,-522.13 2762.86,-522.67 2771.47,-528.85 2773.44,-522.13"/>
</g>
<!-- 14&#45;&gt;12 -->
<g id="edge18" class="edge">
<title>14&#45;&gt;12</title>
<path fill="none" stroke="grey" stroke-width="2" d="M3041.17,-1061.3C2993.78,-1016.83 2930.35,-957.33 2875.94,-906.27"/>
<polygon fill="grey" stroke="grey" stroke-width="2" points="2878.48,-903.86 2868.8,-899.57 2873.69,-908.97 2878.48,-903.86"/>
</g>
<!-- 18 -->
<g id="node19" class="node">
<title>18</title>
<text xml:space="preserve" text-anchor="start" x="3352.25" y="-895.9" font-family="sans" font-weight="bold" font-size="18.00">build_treatmentResponseExperiment</text>
<text xml:space="preserve" text-anchor="start" x="3320" y="-867.2" font-family="sans" font-size="10.00"> </text>
<text xml:space="preserve" text-anchor="start" x="3322.25" y="-867.2" font-family="sans" font-weight="bold" font-size="14.00">↪ input</text>
<text xml:space="preserve" text-anchor="start" x="3375.5" y="-867.2" font-family="sans" font-size="10.00"> </text>
<text xml:space="preserve" text-anchor="start" x="3320" y="-843.5" font-family="monospace" font-size="10.00">procdata/metadata/annotations/CCLE_sampleMetadata_annotated.tsv</text>
<text xml:space="preserve" text-anchor="start" x="3320" y="-822.25" font-family="monospace" font-size="10.00">procdata/metadata/annotations/CCLE_treatmentMetadata_annotated.tsv</text>
<text xml:space="preserve" text-anchor="start" x="3320" y="-801" font-family="monospace" font-size="10.00">rawdata/treatmentResponse/CCLE_GNF_data_090613.xls</text>
<text xml:space="preserve" text-anchor="start" x="3320" y="-779.75" font-family="monospace" font-size="10.00">rawdata/treatmentResponse/CCLE_NP24.2009_Drug_data_2015.02.24.csv</text>
<text xml:space="preserve" text-anchor="start" x="3647.75" y="-755.7" font-family="sans" font-size="10.00"> </text>
<text xml:space="preserve" text-anchor="start" x="3650" y="-755.7" font-family="sans" font-weight="bold" font-size="14.00">output →</text>
<text xml:space="preserve" text-anchor="start" x="3713.75" y="-755.7" font-family="sans" font-size="10.00"> </text>
<text xml:space="preserve" text-anchor="start" x="3320" y="-732" font-family="monospace" font-size="10.00">procdata/treatmentResponse/treatmentResponse_profiles.tsv</text>
<text xml:space="preserve" text-anchor="start" x="3320" y="-710.75" font-family="monospace" font-size="10.00">procdata/treatmentResponse/treatmentResponse_raw.tsv</text>
<text xml:space="preserve" text-anchor="start" x="3320" y="-689.5" font-family="monospace" font-size="10.00">results/treatmentResponse/treatmentResponseExperiment.rds</text>
<polygon fill="#57d9d9" stroke="#57d9d9" points="3314,-883.5 3314,-883.5 3723,-883.5 3723,-883.5 3314,-883.5"/>
<polygon fill="#57d9d9" stroke="#57d9d9" points="3314,-772 3314,-772 3723,-772 3723,-772 3314,-772"/>
<polygon fill="none" stroke="#57d9d9" stroke-width="2" points="3314,-678.75 3314,-918 3722,-918 3722,-678.75 3314,-678.75"/>
</g>
<!-- 14&#45;&gt;18 -->
<g id="edge24" class="edge">
<title>14&#45;&gt;18</title>
<path fill="none" stroke="grey" stroke-width="2" d="M3194.16,-1061.3C3241.91,-1022.68 3303.68,-972.71 3360.46,-926.8"/>
<polygon fill="grey" stroke="grey" stroke-width="2" points="3362.33,-929.78 3367.9,-920.77 3357.93,-924.34 3362.33,-929.78"/>
</g>
<!-- 15 -->
<g id="node16" class="node">
<title>15</title>
<text xml:space="preserve" text-anchor="start" x="3563.88" y="-1471.65" font-family="sans" font-weight="bold" font-size="18.00">preprocessMetadata</text>
<text xml:space="preserve" text-anchor="start" x="3499" y="-1442.95" font-family="sans" font-size="10.00"> </text>
<text xml:space="preserve" text-anchor="start" x="3501.25" y="-1442.95" font-family="sans" font-weight="bold" font-size="14.00">↪ input</text>
<text xml:space="preserve" text-anchor="start" x="3554.5" y="-1442.95" font-family="sans" font-size="10.00"> </text>
<text xml:space="preserve" text-anchor="start" x="3499" y="-1419.25" font-family="monospace" font-size="10.00">metadata/sampleAnnotation.txt</text>
<text xml:space="preserve" text-anchor="start" x="3499" y="-1398" font-family="monospace" font-size="10.00">metadata/treatmentAnnotation.csv</text>
<text xml:space="preserve" text-anchor="start" x="3742.75" y="-1373.95" font-family="sans" font-size="10.00"> </text>
<text xml:space="preserve" text-anchor="start" x="3745" y="-1373.95" font-family="sans" font-weight="bold" font-size="14.00">output →</text>
<text xml:space="preserve" text-anchor="start" x="3808.75" y="-1373.95" font-family="sans" font-size="10.00"> </text>
<text xml:space="preserve" text-anchor="start" x="3499" y="-1350.25" font-family="monospace" font-size="10.00">procdata/metadata/preprocessed_sampleMetadata.tsv</text>
<text xml:space="preserve" text-anchor="start" x="3499" y="-1329" font-family="monospace" font-size="10.00">procdata/metadata/preprocessed_treatmentMetadata.tsv</text>
<polygon fill="#d96c57" stroke="#d96c57" points="3493,-1459.25 3493,-1459.25 3818,-1459.25 3818,-1459.25 3493,-1459.25"/>
<polygon fill="#d96c57" stroke="#d96c57" points="3493,-1390.25 3493,-1390.25 3818,-1390.25 3818,-1390.25 3493,-1390.25"/>
<polygon fill="none" stroke="#d96c57" stroke-width="2" points="3493,-1318.25 3493,-1493.75 3817,-1493.75 3817,-1318.25 3493,-1318.25"/>
</g>
<!-- 15&#45;&gt;14 -->
<g id="edge19" class="edge">
<title>15&#45;&gt;14</title>
<path fill="none" stroke="grey" stroke-width="2" d="M3492.2,-1341.4C3435.8,-1317.73 3372.76,-1289.43 3317,-1260 3284.73,-1242.97 3250.84,-1222.56 3220.13,-1203.02"/>
<polygon fill="grey" stroke="grey" stroke-width="2" points="3222.26,-1200.23 3211.95,-1197.78 3218.49,-1206.12 3222.26,-1200.23"/>
</g>
<!-- 20 -->
<g id="node21" class="node">
<title>20</title>
<text xml:space="preserve" text-anchor="start" x="4066.25" y="-1173.15" font-family="sans" font-weight="bold" font-size="18.00">annotate_treatmentMetadata</text>
<text xml:space="preserve" text-anchor="start" x="4001" y="-1144.45" font-family="sans" font-size="10.00"> </text>
<text xml:space="preserve" text-anchor="start" x="4003.25" y="-1144.45" font-family="sans" font-weight="bold" font-size="14.00">↪ input</text>
<text xml:space="preserve" text-anchor="start" x="4056.5" y="-1144.45" font-family="sans" font-size="10.00"> </text>
<text xml:space="preserve" text-anchor="start" x="4001" y="-1120.75" font-family="monospace" font-size="10.00">procdata/metadata/preprocessed_treatmentMetadata.tsv</text>
<text xml:space="preserve" text-anchor="start" x="4328.75" y="-1096.7" font-family="sans" font-size="10.00"> </text>
<text xml:space="preserve" text-anchor="start" x="4331" y="-1096.7" font-family="sans" font-weight="bold" font-size="14.00">output →</text>
<text xml:space="preserve" text-anchor="start" x="4394.75" y="-1096.7" font-family="sans" font-size="10.00"> </text>
<text xml:space="preserve" text-anchor="start" x="4001" y="-1073" font-family="monospace" font-size="10.00">procdata/metadata/annotations/CCLE_treatmentMetadata_annotated.tsv</text>
<polygon fill="#82d957" stroke="#82d957" points="3995,-1160.75 3995,-1160.75 4404,-1160.75 4404,-1160.75 3995,-1160.75"/>
<polygon fill="#82d957" stroke="#82d957" points="3995,-1113 3995,-1113 4404,-1113 4404,-1113 3995,-1113"/>
<polygon fill="none" stroke="#82d957" stroke-width="2" points="3995,-1062.25 3995,-1195.25 4403,-1195.25 4403,-1062.25 3995,-1062.25"/>
</g>
<!-- 15&#45;&gt;20 -->
<g id="edge25" class="edge">
<title>15&#45;&gt;20</title>
<path fill="none" stroke="grey" stroke-width="2" d="M3817.73,-1338.59C3871.69,-1315.23 3931.59,-1287.83 3985,-1260 4018.27,-1242.66 4053.41,-1222.23 4085.39,-1202.74"/>
<polygon fill="grey" stroke="grey" stroke-width="2" points="4086.82,-1205.97 4093.52,-1197.76 4083.17,-1200 4086.82,-1205.97"/>
</g>
<!-- 16 -->
<g id="node17" class="node">
<title>16</title>
<text xml:space="preserve" text-anchor="start" x="3264.75" y="-1663.9" font-family="sans" font-weight="bold" font-size="18.00">downloadSampleMetadata</text>
<text xml:space="preserve" text-anchor="start" x="3192" y="-1635.2" font-family="sans" font-size="10.00"> </text>
<text xml:space="preserve" text-anchor="start" x="3194.25" y="-1635.2" font-family="sans" font-weight="bold" font-size="14.00">↪ input</text>
<text xml:space="preserve" text-anchor="start" x="3247.5" y="-1635.2" font-family="sans" font-size="10.00"> </text>
<text xml:space="preserve" text-anchor="start" x="3192" y="-1611.5" font-family="monospace" font-size="10.00">data.broadinstitute.org/ccle/Cell_lines_annotations_20181226.txt</text>
<text xml:space="preserve" text-anchor="start" x="3507.75" y="-1587.45" font-family="sans" font-size="10.00"> </text>
<text xml:space="preserve" text-anchor="start" x="3510" y="-1587.45" font-family="sans" font-weight="bold" font-size="14.00">output →</text>
<text xml:space="preserve" text-anchor="start" x="3573.75" y="-1587.45" font-family="sans" font-size="10.00"> </text>
<text xml:space="preserve" text-anchor="start" x="3192" y="-1563.75" font-family="monospace" font-size="10.00">metadata/sampleAnnotation.txt</text>
<polygon fill="#57d982" stroke="#57d982" points="3186,-1651.5 3186,-1651.5 3583,-1651.5 3583,-1651.5 3186,-1651.5"/>
<polygon fill="#57d982" stroke="#57d982" points="3186,-1603.75 3186,-1603.75 3583,-1603.75 3583,-1603.75 3186,-1603.75"/>
<polygon fill="none" stroke="#57d982" stroke-width="2" points="3186,-1553 3186,-1686 3582,-1686 3582,-1553 3186,-1553"/>
</g>
<!-- 16&#45;&gt;15 -->
<g id="edge21" class="edge">
<title>16&#45;&gt;15</title>
<path fill="none" stroke="grey" stroke-width="2" d="M3469,-1552.16C3489.24,-1536.37 3511.22,-1519.21 3532.76,-1502.4"/>
<polygon fill="grey" stroke="grey" stroke-width="2" points="3534.83,-1505.22 3540.56,-1496.31 3530.53,-1499.7 3534.83,-1505.22"/>
</g>
<!-- 17 -->
<g id="node18" class="node">
<title>17</title>
<text xml:space="preserve" text-anchor="start" x="3792.5" y="-1663.9" font-family="sans" font-weight="bold" font-size="18.00">downloadTreatmentMetadata</text>
<text xml:space="preserve" text-anchor="start" x="3608" y="-1635.2" font-family="sans" font-size="10.00"> </text>
<text xml:space="preserve" text-anchor="start" x="3610.25" y="-1635.2" font-family="sans" font-weight="bold" font-size="14.00">↪ input</text>
<text xml:space="preserve" text-anchor="start" x="3663.5" y="-1635.2" font-family="sans" font-size="10.00"> </text>
<text xml:space="preserve" text-anchor="start" x="3608" y="-1611.5" font-family="monospace" font-size="10.00">data.broadinstitute.org/ccle_legacy_data/pharmacological_profiling/CCLE_NP24.2009_profiling_2012.02.20.csv</text>
<text xml:space="preserve" text-anchor="start" x="4175.75" y="-1587.45" font-family="sans" font-size="10.00"> </text>
<text xml:space="preserve" text-anchor="start" x="4178" y="-1587.45" font-family="sans" font-weight="bold" font-size="14.00">output →</text>
<text xml:space="preserve" text-anchor="start" x="4241.75" y="-1587.45" font-family="sans" font-size="10.00"> </text>
<text xml:space="preserve" text-anchor="start" x="3608" y="-1563.75" font-family="monospace" font-size="10.00">metadata/treatmentAnnotation.csv</text>
<polygon fill="#d95757" stroke="#d95757" points="3602,-1651.5 3602,-1651.5 4251,-1651.5 4251,-1651.5 3602,-1651.5"/>
<polygon fill="#d95757" stroke="#d95757" points="3602,-1603.75 3602,-1603.75 4251,-1603.75 4251,-1603.75 3602,-1603.75"/>
<polygon fill="none" stroke="#d95757" stroke-width="2" points="3602,-1553 3602,-1686 4250,-1686 4250,-1553 3602,-1553"/>
</g>
<!-- 17&#45;&gt;15 -->
<g id="edge20" class="edge">
<title>17&#45;&gt;15</title>
<path fill="none" stroke="grey" stroke-width="2" d="M3841,-1552.16C3820.76,-1536.37 3798.78,-1519.21 3777.24,-1502.4"/>
<polygon fill="grey" stroke="grey" stroke-width="2" points="3779.47,-1499.7 3769.44,-1496.31 3775.17,-1505.22 3779.47,-1499.7"/>
</g>
<!-- 18&#45;&gt;1 -->
<g id="edge4" class="edge">
<title>18&#45;&gt;1</title>
<path fill="none" stroke="grey" stroke-width="2" d="M3460.88,-677.83C3415.01,-581.83 3351.11,-448.1 3306.5,-354.75"/>
<polygon fill="grey" stroke="grey" stroke-width="2" points="3309.66,-353.25 3302.19,-345.74 3303.35,-356.27 3309.66,-353.25"/>
</g>
<!-- 19 -->
<g id="node20" class="node">
<title>19</title>
<text xml:space="preserve" text-anchor="start" x="3514.88" y="-1194.4" font-family="sans" font-weight="bold" font-size="18.00">download_treatmentResponse</text>
<text xml:space="preserve" text-anchor="start" x="3333" y="-1165.7" font-family="sans" font-size="10.00"> </text>
<text xml:space="preserve" text-anchor="start" x="3335.25" y="-1165.7" font-family="sans" font-weight="bold" font-size="14.00">↪ input</text>
<text xml:space="preserve" text-anchor="start" x="3388.5" y="-1165.7" font-family="sans" font-size="10.00"> </text>
<text xml:space="preserve" text-anchor="start" x="3333" y="-1142" font-family="monospace" font-size="10.00">data.broadinstitute.org/ccle_legacy_data/pharmacological_profiling/CCLE_GNF_data_090613.xls</text>
<text xml:space="preserve" text-anchor="start" x="3333" y="-1120.75" font-family="monospace" font-size="10.00">data.broadinstitute.org/ccle_legacy_data/pharmacological_profiling/CCLE_NP24.2009_Drug_data_2015.02.24.csv</text>
<text xml:space="preserve" text-anchor="start" x="3900.75" y="-1096.7" font-family="sans" font-size="10.00"> </text>
<text xml:space="preserve" text-anchor="start" x="3903" y="-1096.7" font-family="sans" font-weight="bold" font-size="14.00">output →</text>
<text xml:space="preserve" text-anchor="start" x="3966.75" y="-1096.7" font-family="sans" font-size="10.00"> </text>
<text xml:space="preserve" text-anchor="start" x="3333" y="-1073" font-family="monospace" font-size="10.00">rawdata/treatmentResponse/CCLE_GNF_data_090613.xls</text>
<text xml:space="preserve" text-anchor="start" x="3333" y="-1051.75" font-family="monospace" font-size="10.00">rawdata/treatmentResponse/CCLE_NP24.2009_Drug_data_2015.02.24.csv</text>
<polygon fill="#57add9" stroke="#57add9" points="3327,-1182 3327,-1182 3976,-1182 3976,-1182 3327,-1182"/>
<polygon fill="#57add9" stroke="#57add9" points="3327,-1113 3327,-1113 3976,-1113 3976,-1113 3327,-1113"/>
<polygon fill="none" stroke="#57add9" stroke-width="2" points="3327,-1041 3327,-1216.5 3975,-1216.5 3975,-1041 3327,-1041"/>
</g>
<!-- 19&#45;&gt;18 -->
<g id="edge22" class="edge">
<title>19&#45;&gt;18</title>
<path fill="none" stroke="grey" stroke-width="2" d="M3615.53,-1040.18C3601.92,-1006.58 3586.08,-967.46 3571.17,-930.64"/>
<polygon fill="grey" stroke="grey" stroke-width="2" points="3574.5,-929.54 3567.5,-921.58 3568.01,-932.17 3574.5,-929.54"/>
</g>
<!-- 20&#45;&gt;1 -->
<g id="edge3" class="edge">
<title>20&#45;&gt;1</title>
<path fill="none" stroke="grey" stroke-width="2" d="M4141.05,-1061.46C4055.16,-964.43 3887.42,-779.57 3732,-635.25 3622.71,-533.76 3490.95,-427.22 3393.46,-351.13"/>
<polygon fill="grey" stroke="grey" stroke-width="2" points="3395.67,-348.42 3385.63,-345.03 3391.37,-353.94 3395.67,-348.42"/>
</g>
<!-- 20&#45;&gt;18 -->
<g id="edge23" class="edge">
<title>20&#45;&gt;18</title>
<path fill="none" stroke="grey" stroke-width="2" d="M4096.79,-1061.38C4061.94,-1039.88 4022.34,-1016.66 3985,-997.5 3904.99,-956.45 3814.51,-916.63 3734.65,-883.59"/>
<polygon fill="grey" stroke="grey" stroke-width="2" points="3736.32,-880.49 3725.74,-879.92 3733.66,-886.97 3736.32,-880.49"/>
</g>
</g>
</svg>
