<?xml version="1.0" encoding="UTF-8" standalone="no"?>
<!DOCTYPE svg PUBLIC "-//W3C//DTD SVG 1.1//EN"
 "http://www.w3.org/Graphics/SVG/1.1/DTD/svg11.dtd">
<!-- Generated by graphviz version 2.43.0 (0)
 -->
<!-- Title: snakemake_dag Pages: 1 -->
<svg width="4031pt" height="1336pt"
 viewBox="0.00 0.00 4031.00 1336.00" xmlns="http://www.w3.org/2000/svg" xmlns:xlink="http://www.w3.org/1999/xlink">
<g id="graph0" class="graph" transform="scale(1 1) rotate(0) translate(4 1332)">
<title>snakemake_dag</title>
<polygon fill="white" stroke="transparent" points="-4,4 -4,-1332 4027,-1332 4027,4 -4,4"/>
<!-- 0 -->
<g id="node1" class="node">
<title>0</title>
<text text-anchor="start" x="2622.5" y="-71.6" font-family="sans" font-weight="bold" font-size="18.00">all</text>
<text text-anchor="start" x="2550.5" y="-47.8" font-family="sans" font-size="10.00"> </text>
<text text-anchor="start" x="2554.5" y="-47.8" font-family="sans" font-weight="bold" font-size="14.00">↪ input</text>
<text text-anchor="start" x="2612.5" y="-47.8" font-family="sans" font-size="10.00"> </text>
<text text-anchor="start" x="2550.5" y="-28" font-family="monospace" font-size="10.00">results/CCLE_PharmacoSet.RDS</text>
<text text-anchor="start" x="2712.5" y="-10" font-family="sans" font-size="10.00"> &#160;</text>
<polygon fill="#576ed9" stroke="#576ed9" points="2544.5,-62 2544.5,-62 2726.5,-62 2726.5,-62 2544.5,-62"/>
<polygon fill="#576ed9" stroke="#576ed9" points="2544.5,-22 2544.5,-22 2726.5,-22 2726.5,-22 2544.5,-22"/>
<polygon fill="none" stroke="#576ed9" stroke-width="2" points="2544,-1 2544,-91 2725,-91 2725,-1 2544,-1"/>
</g>
<!-- 1 -->
<g id="node2" class="node">
<title>1</title>
<text text-anchor="start" x="2538.5" y="-275.6" font-family="sans" font-weight="bold" font-size="18.00">build_PharmacoSet</text>
<text text-anchor="start" x="2436.5" y="-251.8" font-family="sans" font-size="10.00"> </text>
<text text-anchor="start" x="2440.5" y="-251.8" font-family="sans" font-weight="bold" font-size="14.00">↪ input</text>
<text text-anchor="start" x="2498.5" y="-251.8" font-family="sans" font-size="10.00"> </text>
<text text-anchor="start" x="2436.5" y="-232" font-family="monospace" font-size="10.00">procdata/metadata/annotations/CCLE_sampleMetadata_annotated.tsv</text>
<text text-anchor="start" x="2436.5" y="-214" font-family="monospace" font-size="10.00">procdata/metadata/annotations/CCLE_treatmentMetadata_annotated.tsv</text>
<text text-anchor="start" x="2436.5" y="-196" font-family="monospace" font-size="10.00">results/CCLE_MultiAssayExperiment.RDS</text>
<text text-anchor="start" x="2436.5" y="-178" font-family="monospace" font-size="10.00">results/treatmentResponse/treatmentResponseExperiment.rds</text>
<text text-anchor="start" x="2755.5" y="-157.8" font-family="sans" font-size="10.00"> </text>
<text text-anchor="start" x="2759.5" y="-157.8" font-family="sans" font-weight="bold" font-size="14.00">output →</text>
<text text-anchor="start" x="2829.5" y="-157.8" font-family="sans" font-size="10.00"> </text>
<text text-anchor="start" x="2436.5" y="-138" font-family="monospace" font-size="10.00">results/CCLE_PharmacoSet.RDS</text>
<polygon fill="#d9cd57" stroke="#d9cd57" points="2430.5,-266 2430.5,-266 2840.5,-266 2840.5,-266 2430.5,-266"/>
<polygon fill="#d9cd57" stroke="#d9cd57" points="2430.5,-172 2430.5,-172 2840.5,-172 2840.5,-172 2430.5,-172"/>
<polygon fill="none" stroke="#d9cd57" stroke-width="2" points="2430,-129 2430,-295 2839,-295 2839,-129 2430,-129"/>
</g>
<!-- 1&#45;&gt;0 -->
<g id="edge1" class="edge">
<title>1&#45;&gt;0</title>
<path fill="none" stroke="grey" stroke-width="2" d="M2634.5,-127.56C2634.5,-118.99 2634.5,-110.44 2634.5,-102.29"/>
<polygon fill="grey" stroke="grey" stroke-width="2" points="2638,-102.21 2634.5,-92.21 2631,-102.21 2638,-102.21"/>
</g>
<!-- 2 -->
<g id="node3" class="node">
<title>2</title>
<text text-anchor="start" x="1876" y="-497.6" font-family="sans" font-weight="bold" font-size="18.00">build_MultiAssayExperiment</text>
<text text-anchor="start" x="1828.5" y="-473.8" font-family="sans" font-size="10.00"> </text>
<text text-anchor="start" x="1832.5" y="-473.8" font-family="sans" font-weight="bold" font-size="14.00">↪ input</text>
<text text-anchor="start" x="1890.5" y="-473.8" font-family="sans" font-size="10.00"> </text>
<text text-anchor="start" x="1828.5" y="-454" font-family="monospace" font-size="10.00">procdata/cnv/CNV_SE.RDS</text>
<text text-anchor="start" x="1828.5" y="-436" font-family="monospace" font-size="10.00">procdata/metadata/annotations/CCLE_sampleMetadata_annotated.tsv</text>
<text text-anchor="start" x="1828.5" y="-418" font-family="monospace" font-size="10.00">procdata/mutation/Mutation_SE.RDS</text>
<text text-anchor="start" x="1828.5" y="-400" font-family="monospace" font-size="10.00">procdata/rnaseq/CCLE_RNASEQ_rse_list.RDS</text>
<text text-anchor="start" x="2129.5" y="-379.8" font-family="sans" font-size="10.00"> </text>
<text text-anchor="start" x="2133.5" y="-379.8" font-family="sans" font-weight="bold" font-size="14.00">output →</text>
<text text-anchor="start" x="2203.5" y="-379.8" font-family="sans" font-size="10.00"> </text>
<text text-anchor="start" x="1828.5" y="-360" font-family="monospace" font-size="10.00">results/CCLE_MultiAssayExperiment.RDS</text>
<polygon fill="#57b5d9" stroke="#57b5d9" points="1822.5,-488 1822.5,-488 2214.5,-488 2214.5,-488 1822.5,-488"/>
<polygon fill="#57b5d9" stroke="#57b5d9" points="1822.5,-394 1822.5,-394 2214.5,-394 2214.5,-394 1822.5,-394"/>
<polygon fill="none" stroke="#57b5d9" stroke-width="2" points="1822,-351 1822,-517 2213,-517 2213,-351 1822,-351"/>
</g>
<!-- 2&#45;&gt;1 -->
<g id="edge5" class="edge">
<title>2&#45;&gt;1</title>
<path fill="none" stroke="grey" stroke-width="2" d="M2214.42,-362.79C2279.63,-339.53 2352.53,-313.54 2419.06,-289.82"/>
<polygon fill="grey" stroke="grey" stroke-width="2" points="2420.58,-292.99 2428.83,-286.34 2418.23,-286.4 2420.58,-292.99"/>
</g>
<!-- 3 -->
<g id="node4" class="node">
<title>3</title>
<text text-anchor="start" x="835" y="-827.6" font-family="sans" font-weight="bold" font-size="18.00">make_RNASEQ_SE</text>
<text text-anchor="start" x="702.5" y="-803.8" font-family="sans" font-size="10.00"> </text>
<text text-anchor="start" x="706.5" y="-803.8" font-family="sans" font-weight="bold" font-size="14.00">↪ input</text>
<text text-anchor="start" x="764.5" y="-803.8" font-family="sans" font-size="10.00"> </text>
<text text-anchor="start" x="702.5" y="-784" font-family="monospace" font-size="10.00">metadata/homo_sapiens/GRCh37_v19/annotation.gtf</text>
<text text-anchor="start" x="702.5" y="-766" font-family="monospace" font-size="10.00">metadata/referenceGenome/gencode.v19.genes.v7_model.patched_contigs.gtf.gz</text>
<text text-anchor="start" x="702.5" y="-748" font-family="monospace" font-size="10.00">rawdata/rnaseq/CCLE_RNAseq_genes_counts_20180929.gct.gz</text>
<text text-anchor="start" x="702.5" y="-730" font-family="monospace" font-size="10.00">rawdata/rnaseq/CCLE_RNAseq_genes_rpkm_20180929.gct.gz</text>
<text text-anchor="start" x="702.5" y="-712" font-family="monospace" font-size="10.00">rawdata/rnaseq/CCLE_RNAseq_rsem_genes_tpm_20180929.txt</text>
<text text-anchor="start" x="702.5" y="-694" font-family="monospace" font-size="10.00">rawdata/rnaseq/CCLE_RNAseq_rsem_transcripts_tpm_20180929.txt</text>
<text text-anchor="start" x="1069.5" y="-673.8" font-family="sans" font-size="10.00"> </text>
<text text-anchor="start" x="1073.5" y="-673.8" font-family="sans" font-weight="bold" font-size="14.00">output →</text>
<text text-anchor="start" x="1143.5" y="-673.8" font-family="sans" font-size="10.00"> </text>
<text text-anchor="start" x="702.5" y="-654" font-family="monospace" font-size="10.00">procdata/rnaseq/CCLE_RNASEQ_rse_list.RDS</text>
<text text-anchor="start" x="702.5" y="-636" font-family="monospace" font-size="10.00">procdata/rnaseq/CCLE_RNAseq_genes_counts.tsv</text>
<text text-anchor="start" x="702.5" y="-618" font-family="monospace" font-size="10.00">procdata/rnaseq/CCLE_RNAseq_genes_rpkm.tsv</text>
<text text-anchor="start" x="702.5" y="-600" font-family="monospace" font-size="10.00">procdata/rnaseq/CCLE_RNAseq_genes_tpm.tsv</text>
<text text-anchor="start" x="702.5" y="-582" font-family="monospace" font-size="10.00">procdata/rnaseq/CCLE_RNAseq_transcripts_tpm.tsv</text>
<polygon fill="#d9b557" stroke="#d9b557" points="696.5,-818 696.5,-818 1154.5,-818 1154.5,-818 696.5,-818"/>
<polygon fill="#d9b557" stroke="#d9b557" points="696.5,-688 696.5,-688 1154.5,-688 1154.5,-688 696.5,-688"/>
<polygon fill="none" stroke="#d9b557" stroke-width="2" points="696,-573 696,-847 1153,-847 1153,-573 696,-573"/>
</g>
<!-- 3&#45;&gt;2 -->
<g id="edge6" class="edge">
<title>3&#45;&gt;2</title>
<path fill="none" stroke="grey" stroke-width="2" d="M1154.29,-651.39C1348.37,-602.74 1623.82,-533.69 1810.99,-486.77"/>
<polygon fill="grey" stroke="grey" stroke-width="2" points="1812.1,-490.1 1820.95,-484.27 1810.4,-483.31 1812.1,-490.1"/>
</g>
<!-- 4 -->
<g id="node5" class="node">
<title>4</title>
<text text-anchor="start" x="144.5" y="-1085.6" font-family="sans" font-weight="bold" font-size="18.00">download_RNASEQ</text>
<text text-anchor="start" x="7.5" y="-1061.8" font-family="sans" font-size="10.00"> </text>
<text text-anchor="start" x="11.5" y="-1061.8" font-family="sans" font-weight="bold" font-size="14.00">↪ input</text>
<text text-anchor="start" x="69.5" y="-1061.8" font-family="sans" font-size="10.00"> </text>
<text text-anchor="start" x="7.5" y="-1042" font-family="monospace" font-size="10.00">data.broadinstitute.org/ccle/CCLE_RNAseq_genes_counts_20180929.gct.gz</text>
<text text-anchor="start" x="7.5" y="-1024" font-family="monospace" font-size="10.00">data.broadinstitute.org/ccle/CCLE_RNAseq_genes_rpkm_20180929.gct.gz</text>
<text text-anchor="start" x="7.5" y="-1006" font-family="monospace" font-size="10.00">data.broadinstitute.org/ccle/CCLE_RNAseq_rsem_genes_tpm_20180929.txt.gz</text>
<text text-anchor="start" x="7.5" y="-988" font-family="monospace" font-size="10.00">data.broadinstitute.org/ccle/CCLE_RNAseq_rsem_transcripts_tpm_20180929.txt.gz</text>
<text text-anchor="start" x="392.5" y="-967.8" font-family="sans" font-size="10.00"> </text>
<text text-anchor="start" x="396.5" y="-967.8" font-family="sans" font-weight="bold" font-size="14.00">output →</text>
<text text-anchor="start" x="466.5" y="-967.8" font-family="sans" font-size="10.00"> </text>
<text text-anchor="start" x="7.5" y="-948" font-family="monospace" font-size="10.00">rawdata/rnaseq/CCLE_RNAseq_genes_counts_20180929.gct.gz</text>
<text text-anchor="start" x="7.5" y="-930" font-family="monospace" font-size="10.00">rawdata/rnaseq/CCLE_RNAseq_genes_rpkm_20180929.gct.gz</text>
<text text-anchor="start" x="7.5" y="-912" font-family="monospace" font-size="10.00">rawdata/rnaseq/CCLE_RNAseq_rsem_genes_tpm_20180929.txt</text>
<text text-anchor="start" x="7.5" y="-894" font-family="monospace" font-size="10.00">rawdata/rnaseq/CCLE_RNAseq_rsem_transcripts_tpm_20180929.txt</text>
<polygon fill="#57d96e" stroke="#57d96e" points="1.5,-1076 1.5,-1076 477.5,-1076 477.5,-1076 1.5,-1076"/>
<polygon fill="#57d96e" stroke="#57d96e" points="1.5,-982 1.5,-982 477.5,-982 477.5,-982 1.5,-982"/>
<polygon fill="none" stroke="#57d96e" stroke-width="2" points="1,-885 1,-1105 476,-1105 476,-885 1,-885"/>
</g>
<!-- 4&#45;&gt;3 -->
<g id="edge12" class="edge">
<title>4&#45;&gt;3</title>
<path fill="none" stroke="grey" stroke-width="2" d="M477.01,-887.57C479.86,-886.37 482.69,-885.18 485.5,-884 549.94,-856.97 620.18,-828.74 685.2,-803.12"/>
<polygon fill="grey" stroke="grey" stroke-width="2" points="686.73,-806.28 694.75,-799.36 684.17,-799.77 686.73,-806.28"/>
</g>
<!-- 5 -->
<g id="node6" class="node">
<title>5</title>
<text text-anchor="start" x="575" y="-1020.6" font-family="sans" font-weight="bold" font-size="18.00">getGENCODEannotation</text>
<text text-anchor="start" x="502.5" y="-999" font-family="sans" font-size="10.00"> &#160;</text>
<text text-anchor="start" x="809.5" y="-978.8" font-family="sans" font-size="10.00"> </text>
<text text-anchor="start" x="813.5" y="-978.8" font-family="sans" font-weight="bold" font-size="14.00">output →</text>
<text text-anchor="start" x="883.5" y="-978.8" font-family="sans" font-size="10.00"> </text>
<text text-anchor="start" x="502.5" y="-959" font-family="monospace" font-size="10.00">{refDir}/{species}/{ref_build}_v{gencode_release}/annotation.gtf</text>
<polygon fill="#b5d957" stroke="#b5d957" points="496.5,-1011 496.5,-1011 894.5,-1011 894.5,-1011 496.5,-1011"/>
<polygon fill="#b5d957" stroke="#b5d957" points="496.5,-993 496.5,-993 894.5,-993 894.5,-993 496.5,-993"/>
<polygon fill="none" stroke="#b5d957" stroke-width="2" points="496,-950 496,-1040 893,-1040 893,-950 496,-950"/>
</g>
<!-- 5&#45;&gt;3 -->
<g id="edge10" class="edge">
<title>5&#45;&gt;3</title>
<path fill="none" stroke="grey" stroke-width="2" d="M731.2,-948.84C751.92,-923.35 779.11,-889.9 806.52,-856.17"/>
<polygon fill="grey" stroke="grey" stroke-width="2" points="809.52,-858.03 813.11,-848.06 804.09,-853.61 809.52,-858.03"/>
</g>
<!-- 6 -->
<g id="node7" class="node">
<title>6</title>
<text text-anchor="start" x="1041" y="-1031.6" font-family="sans" font-weight="bold" font-size="18.00">downloadGenomeFiles</text>
<text text-anchor="start" x="919.5" y="-1007.8" font-family="sans" font-size="10.00"> </text>
<text text-anchor="start" x="923.5" y="-1007.8" font-family="sans" font-weight="bold" font-size="14.00">↪ input</text>
<text text-anchor="start" x="981.5" y="-1007.8" font-family="sans" font-size="10.00"> </text>
<text text-anchor="start" x="919.5" y="-988" font-family="monospace" font-size="10.00">data.broadinstitute.org/ccle/gencode.v19.genes.v7_model.patched_contigs.gtf.gz</text>
<text text-anchor="start" x="1310.5" y="-967.8" font-family="sans" font-size="10.00"> </text>
<text text-anchor="start" x="1314.5" y="-967.8" font-family="sans" font-weight="bold" font-size="14.00">output →</text>
<text text-anchor="start" x="1384.5" y="-967.8" font-family="sans" font-size="10.00"> </text>
<text text-anchor="start" x="919.5" y="-948" font-family="monospace" font-size="10.00">metadata/referenceGenome/gencode.v19.genes.v7_model.patched_contigs.gtf.gz</text>
<polygon fill="#d95757" stroke="#d95757" points="913.5,-1022 913.5,-1022 1395.5,-1022 1395.5,-1022 913.5,-1022"/>
<polygon fill="#d95757" stroke="#d95757" points="913.5,-982 913.5,-982 1395.5,-982 1395.5,-982 913.5,-982"/>
<polygon fill="none" stroke="#d95757" stroke-width="2" points="913,-939 913,-1051 1394,-1051 1394,-939 913,-939"/>
</g>
<!-- 6&#45;&gt;3 -->
<g id="edge11" class="edge">
<title>6&#45;&gt;3</title>
<path fill="none" stroke="grey" stroke-width="2" d="M1107.98,-937.75C1088.77,-914 1065.41,-885.14 1041.9,-856.08"/>
<polygon fill="grey" stroke="grey" stroke-width="2" points="1044.61,-853.86 1035.6,-848.29 1039.16,-858.27 1044.61,-853.86"/>
</g>
<!-- 7 -->
<g id="node8" class="node">
<title>7</title>
<text text-anchor="start" x="1642" y="-746.6" font-family="sans" font-weight="bold" font-size="18.00">make_CNV_SE</text>
<text text-anchor="start" x="1564.5" y="-722.8" font-family="sans" font-size="10.00"> </text>
<text text-anchor="start" x="1568.5" y="-722.8" font-family="sans" font-weight="bold" font-size="14.00">↪ input</text>
<text text-anchor="start" x="1626.5" y="-722.8" font-family="sans" font-size="10.00"> </text>
<text text-anchor="start" x="1564.5" y="-703" font-family="monospace" font-size="10.00">rawdata/cnv/CCLE_copynumber_byGene_2013&#45;12&#45;03.txt</text>
<text text-anchor="start" x="1781.5" y="-682.8" font-family="sans" font-size="10.00"> </text>
<text text-anchor="start" x="1785.5" y="-682.8" font-family="sans" font-weight="bold" font-size="14.00">output →</text>
<text text-anchor="start" x="1855.5" y="-682.8" font-family="sans" font-size="10.00"> </text>
<text text-anchor="start" x="1564.5" y="-663" font-family="monospace" font-size="10.00">procdata/cnv/CNV_SE.RDS</text>
<polygon fill="#5786d9" stroke="#5786d9" points="1558.5,-737 1558.5,-737 1866.5,-737 1866.5,-737 1558.5,-737"/>
<polygon fill="#5786d9" stroke="#5786d9" points="1558.5,-697 1558.5,-697 1866.5,-697 1866.5,-697 1558.5,-697"/>
<polygon fill="none" stroke="#5786d9" stroke-width="2" points="1558,-654 1558,-766 1865,-766 1865,-654 1558,-654"/>
</g>
<!-- 7&#45;&gt;2 -->
<g id="edge9" class="edge">
<title>7&#45;&gt;2</title>
<path fill="none" stroke="grey" stroke-width="2" d="M1774.16,-652.89C1815.32,-616.03 1870.08,-567.01 1917.22,-524.79"/>
<polygon fill="grey" stroke="grey" stroke-width="2" points="1919.6,-527.36 1924.72,-518.08 1914.93,-522.14 1919.6,-527.36"/>
</g>
<!-- 8 -->
<g id="node9" class="node">
<title>8</title>
<text text-anchor="start" x="1642" y="-1031.6" font-family="sans" font-weight="bold" font-size="18.00">downloadCNV</text>
<text text-anchor="start" x="1420.5" y="-1007.8" font-family="sans" font-size="10.00"> </text>
<text text-anchor="start" x="1424.5" y="-1007.8" font-family="sans" font-weight="bold" font-size="14.00">↪ input</text>
<text text-anchor="start" x="1482.5" y="-1007.8" font-family="sans" font-size="10.00"> </text>
<text text-anchor="start" x="1420.5" y="-988" font-family="monospace" font-size="10.00">data.broadinstitute.org/ccle_legacy_data/dna_copy_number/CCLE_copynumber_byGene_2013&#45;12&#45;03.txt.gz</text>
<text text-anchor="start" x="1925.5" y="-967.8" font-family="sans" font-size="10.00"> </text>
<text text-anchor="start" x="1929.5" y="-967.8" font-family="sans" font-weight="bold" font-size="14.00">output →</text>
<text text-anchor="start" x="1999.5" y="-967.8" font-family="sans" font-size="10.00"> </text>
<text text-anchor="start" x="1420.5" y="-948" font-family="monospace" font-size="10.00">rawdata/cnv/CCLE_copynumber_byGene_2013&#45;12&#45;03.txt</text>
<polygon fill="#d98657" stroke="#d98657" points="1414.5,-1022 1414.5,-1022 2010.5,-1022 2010.5,-1022 1414.5,-1022"/>
<polygon fill="#d98657" stroke="#d98657" points="1414.5,-982 1414.5,-982 2010.5,-982 2010.5,-982 1414.5,-982"/>
<polygon fill="none" stroke="#d98657" stroke-width="2" points="1414,-939 1414,-1051 2009,-1051 2009,-939 1414,-939"/>
</g>
<!-- 8&#45;&gt;7 -->
<g id="edge13" class="edge">
<title>8&#45;&gt;7</title>
<path fill="none" stroke="grey" stroke-width="2" d="M1711.5,-937.75C1711.5,-891.55 1711.5,-826.02 1711.5,-777.28"/>
<polygon fill="grey" stroke="grey" stroke-width="2" points="1715,-777.14 1711.5,-767.14 1708,-777.14 1715,-777.14"/>
</g>
<!-- 9 -->
<g id="node10" class="node">
<title>9</title>
<text text-anchor="start" x="1924.5" y="-746.6" font-family="sans" font-weight="bold" font-size="18.00">make_Mutation_SE</text>
<text text-anchor="start" x="1891.5" y="-722.8" font-family="sans" font-size="10.00"> </text>
<text text-anchor="start" x="1895.5" y="-722.8" font-family="sans" font-weight="bold" font-size="14.00">↪ input</text>
<text text-anchor="start" x="1953.5" y="-722.8" font-family="sans" font-size="10.00"> </text>
<text text-anchor="start" x="1891.5" y="-703" font-family="monospace" font-size="10.00">procdata/mutation/preprocessedMutation.RDS</text>
<text text-anchor="start" x="2066.5" y="-682.8" font-family="sans" font-size="10.00"> </text>
<text text-anchor="start" x="2070.5" y="-682.8" font-family="sans" font-weight="bold" font-size="14.00">output →</text>
<text text-anchor="start" x="2140.5" y="-682.8" font-family="sans" font-size="10.00"> </text>
<text text-anchor="start" x="1891.5" y="-663" font-family="monospace" font-size="10.00">procdata/mutation/Mutation_SE.RDS</text>
<polygon fill="#6ed957" stroke="#6ed957" points="1885.5,-737 1885.5,-737 2151.5,-737 2151.5,-737 1885.5,-737"/>
<polygon fill="#6ed957" stroke="#6ed957" points="1885.5,-697 1885.5,-697 2151.5,-697 2151.5,-697 1885.5,-697"/>
<polygon fill="none" stroke="#6ed957" stroke-width="2" points="1885,-654 1885,-766 2150,-766 2150,-654 1885,-654"/>
</g>
<!-- 9&#45;&gt;2 -->
<g id="edge8" class="edge">
<title>9&#45;&gt;2</title>
<path fill="none" stroke="grey" stroke-width="2" d="M2017.5,-652.89C2017.5,-617.02 2017.5,-569.62 2017.5,-528.2"/>
<polygon fill="grey" stroke="grey" stroke-width="2" points="2021,-528.08 2017.5,-518.08 2014,-528.08 2021,-528.08"/>
</g>
<!-- 10 -->
<g id="node11" class="node">
<title>10</title>
<text text-anchor="start" x="2220" y="-1049.6" font-family="sans" font-weight="bold" font-size="18.00">preprocessMutation</text>
<text text-anchor="start" x="2035.5" y="-1025.8" font-family="sans" font-size="10.00"> </text>
<text text-anchor="start" x="2039.5" y="-1025.8" font-family="sans" font-weight="bold" font-size="14.00">↪ input</text>
<text text-anchor="start" x="2097.5" y="-1025.8" font-family="sans" font-size="10.00"> </text>
<text text-anchor="start" x="2035.5" y="-1006" font-family="monospace" font-size="10.00">rawdata/mutation/CCLE_Oncomap3_2012&#45;04&#45;09.maf</text>
<text text-anchor="start" x="2035.5" y="-988" font-family="monospace" font-size="10.00">rawdata/mutation/CCLE_Oncomap3_Assays_2012&#45;04&#45;09.csv</text>
<text text-anchor="start" x="2035.5" y="-970" font-family="monospace" font-size="10.00">rawdata/mutation/CCLE_hybrid_capture1650_hg19_NoCommonSNPs_NoNeutralVariants_CDS_2012.05.07.maf</text>
<text text-anchor="start" x="2528.5" y="-949.8" font-family="sans" font-size="10.00"> </text>
<text text-anchor="start" x="2532.5" y="-949.8" font-family="sans" font-weight="bold" font-size="14.00">output →</text>
<text text-anchor="start" x="2602.5" y="-949.8" font-family="sans" font-size="10.00"> </text>
<text text-anchor="start" x="2035.5" y="-930" font-family="monospace" font-size="10.00">procdata/mutation/preprocessedMutation.RDS</text>
<polygon fill="#57d957" stroke="#57d957" points="2029.5,-1040 2029.5,-1040 2613.5,-1040 2613.5,-1040 2029.5,-1040"/>
<polygon fill="#57d957" stroke="#57d957" points="2029.5,-964 2029.5,-964 2613.5,-964 2613.5,-964 2029.5,-964"/>
<polygon fill="none" stroke="#57d957" stroke-width="2" points="2029,-921 2029,-1069 2612,-1069 2612,-921 2029,-921"/>
</g>
<!-- 10&#45;&gt;9 -->
<g id="edge14" class="edge">
<title>10&#45;&gt;9</title>
<path fill="none" stroke="grey" stroke-width="2" d="M2237.73,-919.84C2212.47,-896.96 2184.71,-871.59 2159.5,-848 2133.99,-824.14 2106.28,-797.56 2082.17,-774.2"/>
<polygon fill="grey" stroke="grey" stroke-width="2" points="2084.42,-771.51 2074.8,-767.07 2079.55,-776.54 2084.42,-771.51"/>
</g>
<!-- 11 -->
<g id="node12" class="node">
<title>11</title>
<text text-anchor="start" x="2227.5" y="-1307.6" font-family="sans" font-weight="bold" font-size="18.00">downloadMutation</text>
<text text-anchor="start" x="1885.5" y="-1283.8" font-family="sans" font-size="10.00"> </text>
<text text-anchor="start" x="1889.5" y="-1283.8" font-family="sans" font-weight="bold" font-size="14.00">↪ input</text>
<text text-anchor="start" x="1947.5" y="-1283.8" font-family="sans" font-size="10.00"> </text>
<text text-anchor="start" x="1885.5" y="-1264" font-family="monospace" font-size="10.00">data.broadinstitute.org/ccle_legacy_data/hybrid_capture_sequencing/CCLE_hybrid_capture1650_hg19_NoCommonSNPs_NoNeutralVariants_CDS_2012.05.07.maf</text>
<text text-anchor="start" x="1885.5" y="-1246" font-family="monospace" font-size="10.00">data.broadinstitute.org/ccle_legacy_data/oncomap_mutations/CCLE_Oncomap3_2012&#45;04&#45;09.maf</text>
<text text-anchor="start" x="1885.5" y="-1228" font-family="monospace" font-size="10.00">data.broadinstitute.org/ccle_legacy_data/oncomap_mutations/CCLE_Oncomap3_Assays_2012&#45;04&#45;09.csv</text>
<text text-anchor="start" x="2678.5" y="-1207.8" font-family="sans" font-size="10.00"> </text>
<text text-anchor="start" x="2682.5" y="-1207.8" font-family="sans" font-weight="bold" font-size="14.00">output →</text>
<text text-anchor="start" x="2752.5" y="-1207.8" font-family="sans" font-size="10.00"> </text>
<text text-anchor="start" x="1885.5" y="-1188" font-family="monospace" font-size="10.00">rawdata/mutation/CCLE_Oncomap3_2012&#45;04&#45;09.maf</text>
<text text-anchor="start" x="1885.5" y="-1170" font-family="monospace" font-size="10.00">rawdata/mutation/CCLE_Oncomap3_Assays_2012&#45;04&#45;09.csv</text>
<text text-anchor="start" x="1885.5" y="-1152" font-family="monospace" font-size="10.00">rawdata/mutation/CCLE_hybrid_capture1650_hg19_NoCommonSNPs_NoNeutralVariants_CDS_2012.05.07.maf</text>
<polygon fill="#d96e57" stroke="#d96e57" points="1879.5,-1298 1879.5,-1298 2763.5,-1298 2763.5,-1298 1879.5,-1298"/>
<polygon fill="#d96e57" stroke="#d96e57" points="1879.5,-1222 1879.5,-1222 2763.5,-1222 2763.5,-1222 1879.5,-1222"/>
<polygon fill="none" stroke="#d96e57" stroke-width="2" points="1879,-1143 1879,-1327 2762,-1327 2762,-1143 1879,-1143"/>
</g>
<!-- 11&#45;&gt;10 -->
<g id="edge15" class="edge">
<title>11&#45;&gt;10</title>
<path fill="none" stroke="grey" stroke-width="2" d="M2320.5,-1141.98C2320.5,-1121.62 2320.5,-1100.14 2320.5,-1080.11"/>
<polygon fill="grey" stroke="grey" stroke-width="2" points="2324,-1080.09 2320.5,-1070.09 2317,-1080.09 2324,-1080.09"/>
</g>
<!-- 12 -->
<g id="node13" class="node">
<title>12</title>
<text text-anchor="start" x="2232.5" y="-746.6" font-family="sans" font-weight="bold" font-size="18.00">annotate_sampleMetadata</text>
<text text-anchor="start" x="2176.5" y="-722.8" font-family="sans" font-size="10.00"> </text>
<text text-anchor="start" x="2180.5" y="-722.8" font-family="sans" font-weight="bold" font-size="14.00">↪ input</text>
<text text-anchor="start" x="2238.5" y="-722.8" font-family="sans" font-size="10.00"> </text>
<text text-anchor="start" x="2176.5" y="-703" font-family="monospace" font-size="10.00">procdata/metadata/preprocessed_sampleMetadata.tsv</text>
<text text-anchor="start" x="2477.5" y="-682.8" font-family="sans" font-size="10.00"> </text>
<text text-anchor="start" x="2481.5" y="-682.8" font-family="sans" font-weight="bold" font-size="14.00">output →</text>
<text text-anchor="start" x="2551.5" y="-682.8" font-family="sans" font-size="10.00"> </text>
<text text-anchor="start" x="2176.5" y="-663" font-family="monospace" font-size="10.00">procdata/metadata/annotations/CCLE_sampleMetadata_annotated.tsv</text>
<polygon fill="#57d9cd" stroke="#57d9cd" points="2170.5,-737 2170.5,-737 2562.5,-737 2562.5,-737 2170.5,-737"/>
<polygon fill="#57d9cd" stroke="#57d9cd" points="2170.5,-697 2170.5,-697 2562.5,-697 2562.5,-697 2170.5,-697"/>
<polygon fill="none" stroke="#57d9cd" stroke-width="2" points="2170,-654 2170,-766 2561,-766 2561,-654 2170,-654"/>
</g>
<!-- 12&#45;&gt;1 -->
<g id="edge4" class="edge">
<title>12&#45;&gt;1</title>
<path fill="none" stroke="grey" stroke-width="2" d="M2396.1,-652.59C2442.01,-567.92 2529.23,-407.1 2584.49,-305.22"/>
<polygon fill="grey" stroke="grey" stroke-width="2" points="2587.71,-306.61 2589.4,-296.16 2581.56,-303.28 2587.71,-306.61"/>
</g>
<!-- 12&#45;&gt;2 -->
<g id="edge7" class="edge">
<title>12&#45;&gt;2</title>
<path fill="none" stroke="grey" stroke-width="2" d="M2294.24,-652.89C2247.23,-615.88 2184.65,-566.6 2130.88,-524.27"/>
<polygon fill="grey" stroke="grey" stroke-width="2" points="2133.04,-521.52 2123.02,-518.08 2128.71,-527.02 2133.04,-521.52"/>
</g>
<!-- 16 -->
<g id="node17" class="node">
<title>16</title>
<text text-anchor="start" x="2643" y="-515.6" font-family="sans" font-weight="bold" font-size="18.00">build_treatmentResponseExperiment</text>
<text text-anchor="start" x="2630.5" y="-491.8" font-family="sans" font-size="10.00"> </text>
<text text-anchor="start" x="2634.5" y="-491.8" font-family="sans" font-weight="bold" font-size="14.00">↪ input</text>
<text text-anchor="start" x="2692.5" y="-491.8" font-family="sans" font-size="10.00"> </text>
<text text-anchor="start" x="2630.5" y="-472" font-family="monospace" font-size="10.00">procdata/metadata/annotations/CCLE_sampleMetadata_annotated.tsv</text>
<text text-anchor="start" x="2630.5" y="-454" font-family="monospace" font-size="10.00">procdata/metadata/annotations/CCLE_treatmentMetadata_annotated.tsv</text>
<text text-anchor="start" x="2630.5" y="-436" font-family="monospace" font-size="10.00">rawdata/treatmentResponse/CCLE_GNF_data_090613.xls</text>
<text text-anchor="start" x="2630.5" y="-418" font-family="monospace" font-size="10.00">rawdata/treatmentResponse/CCLE_NP24.2009_Drug_data_2015.02.24.csv</text>
<text text-anchor="start" x="2949.5" y="-397.8" font-family="sans" font-size="10.00"> </text>
<text text-anchor="start" x="2953.5" y="-397.8" font-family="sans" font-weight="bold" font-size="14.00">output →</text>
<text text-anchor="start" x="3023.5" y="-397.8" font-family="sans" font-size="10.00"> </text>
<text text-anchor="start" x="2630.5" y="-378" font-family="monospace" font-size="10.00">procdata/treatmentResponse/treatmentResponse_profiles.tsv</text>
<text text-anchor="start" x="2630.5" y="-360" font-family="monospace" font-size="10.00">procdata/treatmentResponse/treatmentResponse_raw.tsv</text>
<text text-anchor="start" x="2630.5" y="-342" font-family="monospace" font-size="10.00">results/treatmentResponse/treatmentResponseExperiment.rds</text>
<polygon fill="#9ed957" stroke="#9ed957" points="2624.5,-506 2624.5,-506 3034.5,-506 3034.5,-506 2624.5,-506"/>
<polygon fill="#9ed957" stroke="#9ed957" points="2624.5,-412 2624.5,-412 3034.5,-412 3034.5,-412 2624.5,-412"/>
<polygon fill="none" stroke="#9ed957" stroke-width="2" points="2624,-333 2624,-535 3033,-535 3033,-333 2624,-333"/>
</g>
<!-- 12&#45;&gt;16 -->
<g id="edge20" class="edge">
<title>12&#45;&gt;16</title>
<path fill="none" stroke="grey" stroke-width="2" d="M2445.59,-652.75C2482.98,-627.2 2528.43,-597.14 2570.5,-572 2587.71,-561.72 2605.76,-551.34 2623.97,-541.15"/>
<polygon fill="grey" stroke="grey" stroke-width="2" points="2625.89,-544.09 2632.92,-536.16 2622.48,-537.97 2625.89,-544.09"/>
</g>
<!-- 13 -->
<g id="node14" class="node">
<title>13</title>
<text text-anchor="start" x="3264.5" y="-1049.6" font-family="sans" font-weight="bold" font-size="18.00">preprocessMetadata</text>
<text text-anchor="start" x="3211.5" y="-1025.8" font-family="sans" font-size="10.00"> </text>
<text text-anchor="start" x="3215.5" y="-1025.8" font-family="sans" font-weight="bold" font-size="14.00">↪ input</text>
<text text-anchor="start" x="3273.5" y="-1025.8" font-family="sans" font-size="10.00"> </text>
<text text-anchor="start" x="3211.5" y="-1006" font-family="monospace" font-size="10.00">metadata/sampleAnnotation.txt</text>
<text text-anchor="start" x="3211.5" y="-988" font-family="monospace" font-size="10.00">metadata/treatmentAnnotation.csv</text>
<text text-anchor="start" x="3446.5" y="-967.8" font-family="sans" font-size="10.00"> </text>
<text text-anchor="start" x="3450.5" y="-967.8" font-family="sans" font-weight="bold" font-size="14.00">output →</text>
<text text-anchor="start" x="3520.5" y="-967.8" font-family="sans" font-size="10.00"> </text>
<text text-anchor="start" x="3211.5" y="-948" font-family="monospace" font-size="10.00">procdata/metadata/preprocessed_sampleMetadata.tsv</text>
<text text-anchor="start" x="3211.5" y="-930" font-family="monospace" font-size="10.00">procdata/metadata/preprocessed_treatmentMetadata.tsv</text>
<polygon fill="#57d9b5" stroke="#57d9b5" points="3205.5,-1040 3205.5,-1040 3531.5,-1040 3531.5,-1040 3205.5,-1040"/>
<polygon fill="#57d9b5" stroke="#57d9b5" points="3205.5,-982 3205.5,-982 3531.5,-982 3531.5,-982 3205.5,-982"/>
<polygon fill="none" stroke="#57d9b5" stroke-width="2" points="3205,-921 3205,-1069 3530,-1069 3530,-921 3205,-921"/>
</g>
<!-- 13&#45;&gt;12 -->
<g id="edge16" class="edge">
<title>13&#45;&gt;12</title>
<path fill="none" stroke="grey" stroke-width="2" d="M3203.71,-983.51C3038.67,-968.51 2779.25,-932.63 2570.5,-848 2524.95,-829.53 2479.02,-800.07 2442.22,-773.2"/>
<polygon fill="grey" stroke="grey" stroke-width="2" points="2444.15,-770.27 2434.03,-767.15 2439.99,-775.9 2444.15,-770.27"/>
</g>
<!-- 18 -->
<g id="node19" class="node">
<title>18</title>
<text text-anchor="start" x="3307" y="-746.6" font-family="sans" font-weight="bold" font-size="18.00">annotate_treatmentMetadata</text>
<text text-anchor="start" x="3256.5" y="-722.8" font-family="sans" font-size="10.00"> </text>
<text text-anchor="start" x="3260.5" y="-722.8" font-family="sans" font-weight="bold" font-size="14.00">↪ input</text>
<text text-anchor="start" x="3318.5" y="-722.8" font-family="sans" font-size="10.00"> </text>
<text text-anchor="start" x="3256.5" y="-703" font-family="monospace" font-size="10.00">procdata/metadata/preprocessed_treatmentMetadata.tsv</text>
<text text-anchor="start" x="3575.5" y="-682.8" font-family="sans" font-size="10.00"> </text>
<text text-anchor="start" x="3579.5" y="-682.8" font-family="sans" font-weight="bold" font-size="14.00">output →</text>
<text text-anchor="start" x="3649.5" y="-682.8" font-family="sans" font-size="10.00"> </text>
<text text-anchor="start" x="3256.5" y="-663" font-family="monospace" font-size="10.00">procdata/metadata/annotations/CCLE_treatmentMetadata_annotated.tsv</text>
<polygon fill="#57d986" stroke="#57d986" points="3250.5,-737 3250.5,-737 3660.5,-737 3660.5,-737 3250.5,-737"/>
<polygon fill="#57d986" stroke="#57d986" points="3250.5,-697 3250.5,-697 3660.5,-697 3660.5,-697 3250.5,-697"/>
<polygon fill="none" stroke="#57d986" stroke-width="2" points="3250,-654 3250,-766 3659,-766 3659,-654 3250,-654"/>
</g>
<!-- 13&#45;&gt;18 -->
<g id="edge22" class="edge">
<title>13&#45;&gt;18</title>
<path fill="none" stroke="grey" stroke-width="2" d="M3390.36,-919.65C3403.95,-875.43 3421.04,-819.84 3434.16,-777.15"/>
<polygon fill="grey" stroke="grey" stroke-width="2" points="3437.56,-778.01 3437.15,-767.42 3430.87,-775.95 3437.56,-778.01"/>
</g>
<!-- 14 -->
<g id="node15" class="node">
<title>14</title>
<text text-anchor="start" x="3690.5" y="-1271.6" font-family="sans" font-weight="bold" font-size="18.00">downloadSampleMetadata</text>
<text text-anchor="start" x="3631.5" y="-1247.8" font-family="sans" font-size="10.00"> </text>
<text text-anchor="start" x="3635.5" y="-1247.8" font-family="sans" font-weight="bold" font-size="14.00">↪ input</text>
<text text-anchor="start" x="3693.5" y="-1247.8" font-family="sans" font-size="10.00"> </text>
<text text-anchor="start" x="3631.5" y="-1228" font-family="monospace" font-size="10.00">data.broadinstitute.org/ccle/Cell_lines_annotations_20181226.txt</text>
<text text-anchor="start" x="3938.5" y="-1207.8" font-family="sans" font-size="10.00"> </text>
<text text-anchor="start" x="3942.5" y="-1207.8" font-family="sans" font-weight="bold" font-size="14.00">output →</text>
<text text-anchor="start" x="4012.5" y="-1207.8" font-family="sans" font-size="10.00"> </text>
<text text-anchor="start" x="3631.5" y="-1188" font-family="monospace" font-size="10.00">metadata/sampleAnnotation.txt</text>
<polygon fill="#86d957" stroke="#86d957" points="3625.5,-1262 3625.5,-1262 4023.5,-1262 4023.5,-1262 3625.5,-1262"/>
<polygon fill="#86d957" stroke="#86d957" points="3625.5,-1222 3625.5,-1222 4023.5,-1222 4023.5,-1222 3625.5,-1222"/>
<polygon fill="none" stroke="#86d957" stroke-width="2" points="3625,-1179 3625,-1291 4022,-1291 4022,-1179 3625,-1179"/>
</g>
<!-- 14&#45;&gt;13 -->
<g id="edge17" class="edge">
<title>14&#45;&gt;13</title>
<path fill="none" stroke="grey" stroke-width="2" d="M3716.01,-1177.9C3657.17,-1147.19 3583.29,-1108.63 3518.72,-1074.92"/>
<polygon fill="grey" stroke="grey" stroke-width="2" points="3520.15,-1071.73 3509.67,-1070.2 3516.91,-1077.93 3520.15,-1071.73"/>
</g>
<!-- 15 -->
<g id="node16" class="node">
<title>15</title>
<text text-anchor="start" x="3133" y="-1271.6" font-family="sans" font-weight="bold" font-size="18.00">downloadTreatmentMetadata</text>
<text text-anchor="start" x="2962.5" y="-1247.8" font-family="sans" font-size="10.00"> </text>
<text text-anchor="start" x="2966.5" y="-1247.8" font-family="sans" font-weight="bold" font-size="14.00">↪ input</text>
<text text-anchor="start" x="3024.5" y="-1247.8" font-family="sans" font-size="10.00"> </text>
<text text-anchor="start" x="2962.5" y="-1228" font-family="monospace" font-size="10.00">data.broadinstitute.org/ccle_legacy_data/pharmacological_profiling/CCLE_NP24.2009_profiling_2012.02.20.csv</text>
<text text-anchor="start" x="3521.5" y="-1207.8" font-family="sans" font-size="10.00"> </text>
<text text-anchor="start" x="3525.5" y="-1207.8" font-family="sans" font-weight="bold" font-size="14.00">output →</text>
<text text-anchor="start" x="3595.5" y="-1207.8" font-family="sans" font-size="10.00"> </text>
<text text-anchor="start" x="2962.5" y="-1188" font-family="monospace" font-size="10.00">metadata/treatmentAnnotation.csv</text>
<polygon fill="#57d99e" stroke="#57d99e" points="2956.5,-1262 2956.5,-1262 3606.5,-1262 3606.5,-1262 2956.5,-1262"/>
<polygon fill="#57d99e" stroke="#57d99e" points="2956.5,-1222 2956.5,-1222 3606.5,-1222 3606.5,-1222 2956.5,-1222"/>
<polygon fill="none" stroke="#57d99e" stroke-width="2" points="2956,-1179 2956,-1291 3605,-1291 3605,-1179 2956,-1179"/>
</g>
<!-- 15&#45;&gt;13 -->
<g id="edge18" class="edge">
<title>15&#45;&gt;13</title>
<path fill="none" stroke="grey" stroke-width="2" d="M3301.01,-1177.9C3311.71,-1148.63 3325.01,-1112.24 3336.9,-1079.71"/>
<polygon fill="grey" stroke="grey" stroke-width="2" points="3340.23,-1080.8 3340.38,-1070.2 3333.66,-1078.39 3340.23,-1080.8"/>
</g>
<!-- 16&#45;&gt;1 -->
<g id="edge2" class="edge">
<title>16&#45;&gt;1</title>
<path fill="none" stroke="grey" stroke-width="2" d="M2739.17,-331.69C2731.01,-322.44 2722.78,-313.11 2714.71,-303.96"/>
<polygon fill="grey" stroke="grey" stroke-width="2" points="2717.21,-301.5 2707.97,-296.32 2711.96,-306.13 2717.21,-301.5"/>
</g>
<!-- 17 -->
<g id="node18" class="node">
<title>17</title>
<text text-anchor="start" x="2754" y="-764.6" font-family="sans" font-weight="bold" font-size="18.00">download_treatmentResponse</text>
<text text-anchor="start" x="2587.5" y="-740.8" font-family="sans" font-size="10.00"> </text>
<text text-anchor="start" x="2591.5" y="-740.8" font-family="sans" font-weight="bold" font-size="14.00">↪ input</text>
<text text-anchor="start" x="2649.5" y="-740.8" font-family="sans" font-size="10.00"> </text>
<text text-anchor="start" x="2587.5" y="-721" font-family="monospace" font-size="10.00">data.broadinstitute.org/ccle_legacy_data/pharmacological_profiling/CCLE_GNF_data_090613.xls</text>
<text text-anchor="start" x="2587.5" y="-703" font-family="monospace" font-size="10.00">data.broadinstitute.org/ccle_legacy_data/pharmacological_profiling/CCLE_NP24.2009_Drug_data_2015.02.24.csv</text>
<text text-anchor="start" x="3146.5" y="-682.8" font-family="sans" font-size="10.00"> </text>
<text text-anchor="start" x="3150.5" y="-682.8" font-family="sans" font-weight="bold" font-size="14.00">output →</text>
<text text-anchor="start" x="3220.5" y="-682.8" font-family="sans" font-size="10.00"> </text>
<text text-anchor="start" x="2587.5" y="-663" font-family="monospace" font-size="10.00">rawdata/treatmentResponse/CCLE_GNF_data_090613.xls</text>
<text text-anchor="start" x="2587.5" y="-645" font-family="monospace" font-size="10.00">rawdata/treatmentResponse/CCLE_NP24.2009_Drug_data_2015.02.24.csv</text>
<polygon fill="#579ed9" stroke="#579ed9" points="2581.5,-755 2581.5,-755 3231.5,-755 3231.5,-755 2581.5,-755"/>
<polygon fill="#579ed9" stroke="#579ed9" points="2581.5,-697 2581.5,-697 3231.5,-697 3231.5,-697 2581.5,-697"/>
<polygon fill="none" stroke="#579ed9" stroke-width="2" points="2581,-636 2581,-784 3230,-784 3230,-636 2581,-636"/>
</g>
<!-- 17&#45;&gt;16 -->
<g id="edge21" class="edge">
<title>17&#45;&gt;16</title>
<path fill="none" stroke="grey" stroke-width="2" d="M2884.66,-634.85C2876.97,-607.46 2868.07,-575.8 2859.66,-545.86"/>
<polygon fill="grey" stroke="grey" stroke-width="2" points="2863.02,-544.89 2856.94,-536.21 2856.28,-546.79 2863.02,-544.89"/>
</g>
<!-- 18&#45;&gt;1 -->
<g id="edge3" class="edge">
<title>18&#45;&gt;1</title>
<path fill="none" stroke="grey" stroke-width="2" d="M3408.22,-652.7C3337.68,-570.45 3195.24,-417.92 3042.5,-332 2983.47,-298.79 2914.32,-274.1 2849.9,-256.09"/>
<polygon fill="grey" stroke="grey" stroke-width="2" points="2850.59,-252.65 2840.02,-253.37 2848.73,-259.4 2850.59,-252.65"/>
</g>
<!-- 18&#45;&gt;16 -->
<g id="edge19" class="edge">
<title>18&#45;&gt;16</title>
<path fill="none" stroke="grey" stroke-width="2" d="M3376.54,-652.75C3336.85,-625.85 3287.05,-594.65 3239.5,-572 3177.82,-542.62 3108.16,-516.84 3043.96,-495.8"/>
<polygon fill="grey" stroke="grey" stroke-width="2" points="3044.71,-492.37 3034.12,-492.6 3042.54,-499.02 3044.71,-492.37"/>
</g>
</g>
</svg>
