<?xml version="1.0" encoding="UTF-8" standalone="no"?>
<!DOCTYPE svg PUBLIC "-//W3C//DTD SVG 1.1//EN"
 "http://www.w3.org/Graphics/SVG/1.1/DTD/svg11.dtd">
<!-- Generated by graphviz version 13.1.2 (20250809.0930)
 -->
<!-- Title: snakemake_dag Pages: 1 -->
<svg width="4394pt" height="1695pt"
 viewBox="0.00 0.00 4394.00 1695.00" xmlns="http://www.w3.org/2000/svg" xmlns:xlink="http://www.w3.org/1999/xlink">
<g id="graph0" class="graph" transform="scale(1 1) rotate(0) translate(4 1691)">
<title>snakemake_dag</title>
<polygon fill="white" stroke="none" points="-4,4 -4,-1691 4390,-1691 4390,4 -4,4"/>
<!-- 0 -->
<g id="node1" class="node">
<title>0</title>
<text xml:space="preserve" text-anchor="start" x="3222.5" y="-85.4" font-family="sans" font-weight="bold" font-size="18.00">all</text>
<text xml:space="preserve" text-anchor="start" x="3149" y="-56.7" font-family="sans" font-size="10.00"> </text>
<text xml:space="preserve" text-anchor="start" x="3151.25" y="-56.7" font-family="sans" font-weight="bold" font-size="14.00">↪ input</text>
<text xml:space="preserve" text-anchor="start" x="3204.5" y="-56.7" font-family="sans" font-size="10.00"> </text>
<text xml:space="preserve" text-anchor="start" x="3149" y="-33" font-family="monospace" font-size="10.00">results/CCLE_PharmacoSet.RDS</text>
<text xml:space="preserve" text-anchor="start" x="3312.5" y="-11.75" font-family="sans" font-size="10.00"> &#160;</text>
<polygon fill="#d98257" stroke="#d98257" points="3143,-73 3143,-73 3324,-73 3324,-73 3143,-73"/>
<polygon fill="#d98257" stroke="#d98257" points="3143,-25.25 3143,-25.25 3324,-25.25 3324,-25.25 3143,-25.25"/>
<polygon fill="none" stroke="#d98257" stroke-width="2" points="3143,-1 3143,-107.5 3323,-107.5 3323,-1 3143,-1"/>
</g>
<!-- 1 -->
<g id="node2" class="node">
<title>1</title>
<text xml:space="preserve" text-anchor="start" x="3147.88" y="-320.15" font-family="sans" font-weight="bold" font-size="18.00">build_PharmacoSet</text>
<text xml:space="preserve" text-anchor="start" x="3035" y="-291.45" font-family="sans" font-size="10.00"> </text>
<text xml:space="preserve" text-anchor="start" x="3037.25" y="-291.45" font-family="sans" font-weight="bold" font-size="14.00">↪ input</text>
<text xml:space="preserve" text-anchor="start" x="3090.5" y="-291.45" font-family="sans" font-size="10.00"> </text>
<text xml:space="preserve" text-anchor="start" x="3035" y="-267.75" font-family="monospace" font-size="10.00">procdata/metadata/annotations/CCLE_sampleMetadata_annotated.tsv</text>
<text xml:space="preserve" text-anchor="start" x="3035" y="-246.5" font-family="monospace" font-size="10.00">procdata/metadata/annotations/CCLE_treatmentMetadata_annotated.tsv</text>
<text xml:space="preserve" text-anchor="start" x="3035" y="-225.25" font-family="monospace" font-size="10.00">results/CCLE_MultiAssayExperiment.RDS</text>
<text xml:space="preserve" text-anchor="start" x="3035" y="-204" font-family="monospace" font-size="10.00">results/treatmentResponse/treatmentResponseExperiment.rds</text>
<text xml:space="preserve" text-anchor="start" x="3362.75" y="-179.95" font-family="sans" font-size="10.00"> </text>
<text xml:space="preserve" text-anchor="start" x="3365" y="-179.95" font-family="sans" font-weight="bold" font-size="14.00">output →</text>
<text xml:space="preserve" text-anchor="start" x="3428.75" y="-179.95" font-family="sans" font-size="10.00"> </text>
<text xml:space="preserve" text-anchor="start" x="3035" y="-156.25" font-family="monospace" font-size="10.00">results/CCLE_PharmacoSet.RDS</text>
<polygon fill="#5798d9" stroke="#5798d9" points="3029,-307.75 3029,-307.75 3438,-307.75 3438,-307.75 3029,-307.75"/>
<polygon fill="#5798d9" stroke="#5798d9" points="3029,-196.25 3029,-196.25 3438,-196.25 3438,-196.25 3029,-196.25"/>
<polygon fill="none" stroke="#5798d9" stroke-width="2" points="3029,-145.5 3029,-342.25 3437,-342.25 3437,-145.5 3029,-145.5"/>
</g>
<!-- 1&#45;&gt;0 -->
<g id="edge1" class="edge">
<title>1&#45;&gt;0</title>
<path fill="none" stroke="grey" stroke-width="2" d="M3233,-144.67C3233,-136.7 3233,-128.77 3233,-121.12"/>
<polygon fill="grey" stroke="grey" stroke-width="2" points="3236.5,-121.15 3233,-111.15 3229.5,-121.15 3236.5,-121.15"/>
</g>
<!-- 2 -->
<g id="node3" class="node">
<title>2</title>
<text xml:space="preserve" text-anchor="start" x="2429.88" y="-576.15" font-family="sans" font-weight="bold" font-size="18.00">build_MultiAssayExperiment</text>
<text xml:space="preserve" text-anchor="start" x="2368" y="-547.45" font-family="sans" font-size="10.00"> </text>
<text xml:space="preserve" text-anchor="start" x="2370.25" y="-547.45" font-family="sans" font-weight="bold" font-size="14.00">↪ input</text>
<text xml:space="preserve" text-anchor="start" x="2423.5" y="-547.45" font-family="sans" font-size="10.00"> </text>
<text xml:space="preserve" text-anchor="start" x="2368" y="-523.75" font-family="monospace" font-size="10.00">procdata/cnv/CNV_SE.RDS</text>
<text xml:space="preserve" text-anchor="start" x="2368" y="-502.5" font-family="monospace" font-size="10.00">procdata/metadata/annotations/CCLE_sampleMetadata_annotated.tsv</text>
<text xml:space="preserve" text-anchor="start" x="2368" y="-481.25" font-family="monospace" font-size="10.00">procdata/mutation/Mutation_SE.RDS</text>
<text xml:space="preserve" text-anchor="start" x="2368" y="-460" font-family="monospace" font-size="10.00">procdata/proteomics/CCLE_RPPA_SE.RDS</text>
<text xml:space="preserve" text-anchor="start" x="2368" y="-438.75" font-family="monospace" font-size="10.00">procdata/rnaseq/CCLE_RNASEQ_rse_list.RDS</text>
<text xml:space="preserve" text-anchor="start" x="2677.75" y="-414.7" font-family="sans" font-size="10.00"> </text>
<text xml:space="preserve" text-anchor="start" x="2680" y="-414.7" font-family="sans" font-weight="bold" font-size="14.00">output →</text>
<text xml:space="preserve" text-anchor="start" x="2743.75" y="-414.7" font-family="sans" font-size="10.00"> </text>
<text xml:space="preserve" text-anchor="start" x="2368" y="-391" font-family="monospace" font-size="10.00">results/CCLE_MultiAssayExperiment.RDS</text>
<polygon fill="#6cd957" stroke="#6cd957" points="2362,-563.75 2362,-563.75 2753,-563.75 2753,-563.75 2362,-563.75"/>
<polygon fill="#6cd957" stroke="#6cd957" points="2362,-431 2362,-431 2753,-431 2753,-431 2362,-431"/>
<polygon fill="none" stroke="#6cd957" stroke-width="2" points="2362,-380.25 2362,-598.25 2752,-598.25 2752,-380.25 2362,-380.25"/>
</g>
<!-- 2&#45;&gt;1 -->
<g id="edge2" class="edge">
<title>2&#45;&gt;1</title>
<path fill="none" stroke="grey" stroke-width="2" d="M2752.98,-417.69C2835.38,-388.03 2931.53,-353.41 3016.06,-322.98"/>
<polygon fill="grey" stroke="grey" stroke-width="2" points="3017.1,-326.32 3025.32,-319.64 3014.73,-319.74 3017.1,-326.32"/>
</g>
<!-- 3 -->
<g id="node4" class="node">
<title>3</title>
<text xml:space="preserve" text-anchor="start" x="843.25" y="-938.4" font-family="sans" font-weight="bold" font-size="18.00">make_RNASEQ_SE</text>
<text xml:space="preserve" text-anchor="start" x="700" y="-909.7" font-family="sans" font-size="10.00"> </text>
<text xml:space="preserve" text-anchor="start" x="702.25" y="-909.7" font-family="sans" font-weight="bold" font-size="14.00">↪ input</text>
<text xml:space="preserve" text-anchor="start" x="755.5" y="-909.7" font-family="sans" font-size="10.00"> </text>
<text xml:space="preserve" text-anchor="start" x="700" y="-886" font-family="monospace" font-size="10.00">metadata/homo_sapiens/GRCh37_v19/annotation.gtf</text>
<text xml:space="preserve" text-anchor="start" x="700" y="-864.75" font-family="monospace" font-size="10.00">metadata/referenceGenome/gencode.v19.genes.v7_model.patched_contigs.gtf.gz</text>
<text xml:space="preserve" text-anchor="start" x="700" y="-843.5" font-family="monospace" font-size="10.00">rawdata/rnaseq/CCLE_RNAseq_genes_counts_20180929.gct.gz</text>
<text xml:space="preserve" text-anchor="start" x="700" y="-822.25" font-family="monospace" font-size="10.00">rawdata/rnaseq/CCLE_RNAseq_genes_rpkm_20180929.gct.gz</text>
<text xml:space="preserve" text-anchor="start" x="700" y="-801" font-family="monospace" font-size="10.00">rawdata/rnaseq/CCLE_RNAseq_rsem_genes_tpm_20180929.txt</text>
<text xml:space="preserve" text-anchor="start" x="700" y="-779.75" font-family="monospace" font-size="10.00">rawdata/rnaseq/CCLE_RNAseq_rsem_transcripts_tpm_20180929.txt</text>
<text xml:space="preserve" text-anchor="start" x="1075.75" y="-755.7" font-family="sans" font-size="10.00"> </text>
<text xml:space="preserve" text-anchor="start" x="1078" y="-755.7" font-family="sans" font-weight="bold" font-size="14.00">output →</text>
<text xml:space="preserve" text-anchor="start" x="1141.75" y="-755.7" font-family="sans" font-size="10.00"> </text>
<text xml:space="preserve" text-anchor="start" x="700" y="-732" font-family="monospace" font-size="10.00">procdata/rnaseq/CCLE_RNASEQ_rse_list.RDS</text>
<text xml:space="preserve" text-anchor="start" x="700" y="-710.75" font-family="monospace" font-size="10.00">procdata/rnaseq/CCLE_RNAseq_genes_counts.tsv</text>
<text xml:space="preserve" text-anchor="start" x="700" y="-689.5" font-family="monospace" font-size="10.00">procdata/rnaseq/CCLE_RNAseq_genes_rpkm.tsv</text>
<text xml:space="preserve" text-anchor="start" x="700" y="-668.25" font-family="monospace" font-size="10.00">procdata/rnaseq/CCLE_RNAseq_genes_tpm.tsv</text>
<text xml:space="preserve" text-anchor="start" x="700" y="-647" font-family="monospace" font-size="10.00">procdata/rnaseq/CCLE_RNAseq_transcripts_tpm.tsv</text>
<polygon fill="#57d9ad" stroke="#57d9ad" points="694,-926 694,-926 1151,-926 1151,-926 694,-926"/>
<polygon fill="#57d9ad" stroke="#57d9ad" points="694,-772 694,-772 1151,-772 1151,-772 694,-772"/>
<polygon fill="none" stroke="#57d9ad" stroke-width="2" points="694,-636.25 694,-960.5 1150,-960.5 1150,-636.25 694,-636.25"/>
</g>
<!-- 3&#45;&gt;2 -->
<g id="edge7" class="edge">
<title>3&#45;&gt;2</title>
<path fill="none" stroke="grey" stroke-width="2" d="M1150.86,-747.04C1304.91,-713.77 1512.79,-670.03 1697,-635.25 1918.83,-593.36 2173.98,-551.08 2348.39,-523.08"/>
<polygon fill="grey" stroke="grey" stroke-width="2" points="2348.76,-526.56 2358.08,-521.52 2347.65,-519.65 2348.76,-526.56"/>
</g>
<!-- 4 -->
<g id="node5" class="node">
<title>4</title>
<text xml:space="preserve" text-anchor="start" x="153.25" y="-1236.9" font-family="sans" font-weight="bold" font-size="18.00">download_RNASEQ</text>
<text xml:space="preserve" text-anchor="start" x="7" y="-1208.2" font-family="sans" font-size="10.00"> </text>
<text xml:space="preserve" text-anchor="start" x="9.25" y="-1208.2" font-family="sans" font-weight="bold" font-size="14.00">↪ input</text>
<text xml:space="preserve" text-anchor="start" x="62.5" y="-1208.2" font-family="sans" font-size="10.00"> </text>
<text xml:space="preserve" text-anchor="start" x="7" y="-1184.5" font-family="monospace" font-size="10.00">data.broadinstitute.org/ccle/CCLE_RNAseq_genes_counts_20180929.gct.gz</text>
<text xml:space="preserve" text-anchor="start" x="7" y="-1163.25" font-family="monospace" font-size="10.00">data.broadinstitute.org/ccle/CCLE_RNAseq_genes_rpkm_20180929.gct.gz</text>
<text xml:space="preserve" text-anchor="start" x="7" y="-1142" font-family="monospace" font-size="10.00">data.broadinstitute.org/ccle/CCLE_RNAseq_rsem_genes_tpm_20180929.txt.gz</text>
<text xml:space="preserve" text-anchor="start" x="7" y="-1120.75" font-family="monospace" font-size="10.00">data.broadinstitute.org/ccle/CCLE_RNAseq_rsem_transcripts_tpm_20180929.txt.gz</text>
<text xml:space="preserve" text-anchor="start" x="400.75" y="-1096.7" font-family="sans" font-size="10.00"> </text>
<text xml:space="preserve" text-anchor="start" x="403" y="-1096.7" font-family="sans" font-weight="bold" font-size="14.00">output →</text>
<text xml:space="preserve" text-anchor="start" x="466.75" y="-1096.7" font-family="sans" font-size="10.00"> </text>
<text xml:space="preserve" text-anchor="start" x="7" y="-1073" font-family="monospace" font-size="10.00">rawdata/rnaseq/CCLE_RNAseq_genes_counts_20180929.gct.gz</text>
<text xml:space="preserve" text-anchor="start" x="7" y="-1051.75" font-family="monospace" font-size="10.00">rawdata/rnaseq/CCLE_RNAseq_genes_rpkm_20180929.gct.gz</text>
<text xml:space="preserve" text-anchor="start" x="7" y="-1030.5" font-family="monospace" font-size="10.00">rawdata/rnaseq/CCLE_RNAseq_rsem_genes_tpm_20180929.txt</text>
<text xml:space="preserve" text-anchor="start" x="7" y="-1009.25" font-family="monospace" font-size="10.00">rawdata/rnaseq/CCLE_RNAseq_rsem_transcripts_tpm_20180929.txt</text>
<polygon fill="#add957" stroke="#add957" points="1,-1224.5 1,-1224.5 476,-1224.5 476,-1224.5 1,-1224.5"/>
<polygon fill="#add957" stroke="#add957" points="1,-1113 1,-1113 476,-1113 476,-1113 1,-1113"/>
<polygon fill="none" stroke="#add957" stroke-width="2" points="1,-998.5 1,-1259 475,-1259 475,-998.5 1,-998.5"/>
</g>
<!-- 4&#45;&gt;3 -->
<g id="edge12" class="edge">
<title>4&#45;&gt;3</title>
<path fill="none" stroke="grey" stroke-width="2" d="M475.81,-1002.02C478.89,-1000.5 481.95,-998.99 485,-997.5 548.25,-966.52 617.39,-934.39 681.63,-905.25"/>
<polygon fill="grey" stroke="grey" stroke-width="2" points="682.72,-908.6 690.38,-901.29 679.83,-902.22 682.72,-908.6"/>
</g>
<!-- 5 -->
<g id="node6" class="node">
<title>5</title>
<text xml:space="preserve" text-anchor="start" x="585.38" y="-1159.9" font-family="sans" font-weight="bold" font-size="18.00">getGENCODEannotation</text>
<text xml:space="preserve" text-anchor="start" x="501" y="-1134" font-family="sans" font-size="10.00"> &#160;</text>
<text xml:space="preserve" text-anchor="start" x="816.75" y="-1109.95" font-family="sans" font-size="10.00"> </text>
<text xml:space="preserve" text-anchor="start" x="819" y="-1109.95" font-family="sans" font-weight="bold" font-size="14.00">output →</text>
<text xml:space="preserve" text-anchor="start" x="882.75" y="-1109.95" font-family="sans" font-size="10.00"> </text>
<text xml:space="preserve" text-anchor="start" x="501" y="-1086.25" font-family="monospace" font-size="10.00">{refDir}/{species}/{ref_build}_v{gencode_release}/annotation.gtf</text>
<polygon fill="#d95757" stroke="#d95757" points="495,-1147.5 495,-1147.5 892,-1147.5 892,-1147.5 495,-1147.5"/>
<polygon fill="#d95757" stroke="#d95757" points="495,-1126.25 495,-1126.25 892,-1126.25 892,-1126.25 495,-1126.25"/>
<polygon fill="none" stroke="#d95757" stroke-width="2" points="495,-1075.5 495,-1182 891,-1182 891,-1075.5 495,-1075.5"/>
</g>
<!-- 5&#45;&gt;3 -->
<g id="edge11" class="edge">
<title>5&#45;&gt;3</title>
<path fill="none" stroke="grey" stroke-width="2" d="M730.05,-1074.63C749.89,-1046.17 775.58,-1009.34 801.67,-971.92"/>
<polygon fill="grey" stroke="grey" stroke-width="2" points="804.45,-974.05 807.3,-963.84 798.71,-970.05 804.45,-974.05"/>
</g>
<!-- 6 -->
<g id="node7" class="node">
<title>6</title>
<text xml:space="preserve" text-anchor="start" x="1049.75" y="-1173.15" font-family="sans" font-weight="bold" font-size="18.00">downloadGenomeFiles</text>
<text xml:space="preserve" text-anchor="start" x="917" y="-1144.45" font-family="sans" font-size="10.00"> </text>
<text xml:space="preserve" text-anchor="start" x="919.25" y="-1144.45" font-family="sans" font-weight="bold" font-size="14.00">↪ input</text>
<text xml:space="preserve" text-anchor="start" x="972.5" y="-1144.45" font-family="sans" font-size="10.00"> </text>
<text xml:space="preserve" text-anchor="start" x="917" y="-1120.75" font-family="monospace" font-size="10.00">data.broadinstitute.org/ccle/gencode.v19.genes.v7_model.patched_contigs.gtf.gz</text>
<text xml:space="preserve" text-anchor="start" x="1316.75" y="-1096.7" font-family="sans" font-size="10.00"> </text>
<text xml:space="preserve" text-anchor="start" x="1319" y="-1096.7" font-family="sans" font-weight="bold" font-size="14.00">output →</text>
<text xml:space="preserve" text-anchor="start" x="1382.75" y="-1096.7" font-family="sans" font-size="10.00"> </text>
<text xml:space="preserve" text-anchor="start" x="917" y="-1073" font-family="monospace" font-size="10.00">metadata/referenceGenome/gencode.v19.genes.v7_model.patched_contigs.gtf.gz</text>
<polygon fill="#98d957" stroke="#98d957" points="911,-1160.75 911,-1160.75 1392,-1160.75 1392,-1160.75 911,-1160.75"/>
<polygon fill="#98d957" stroke="#98d957" points="911,-1113 911,-1113 1392,-1113 1392,-1113 911,-1113"/>
<polygon fill="none" stroke="#98d957" stroke-width="2" points="911,-1062.25 911,-1195.25 1391,-1195.25 1391,-1062.25 911,-1062.25"/>
</g>
<!-- 6&#45;&gt;3 -->
<g id="edge13" class="edge">
<title>6&#45;&gt;3</title>
<path fill="none" stroke="grey" stroke-width="2" d="M1104.66,-1061.3C1086.38,-1035.09 1064.46,-1003.65 1042.24,-971.8"/>
<polygon fill="grey" stroke="grey" stroke-width="2" points="1045.35,-970.13 1036.76,-963.93 1039.61,-974.14 1045.35,-970.13"/>
</g>
<!-- 7 -->
<g id="node8" class="node">
<title>7</title>
<text xml:space="preserve" text-anchor="start" x="1798.88" y="-842.77" font-family="sans" font-weight="bold" font-size="18.00">make_CNV_SE</text>
<text xml:space="preserve" text-anchor="start" x="1713" y="-814.08" font-family="sans" font-size="10.00"> </text>
<text xml:space="preserve" text-anchor="start" x="1715.25" y="-814.08" font-family="sans" font-weight="bold" font-size="14.00">↪ input</text>
<text xml:space="preserve" text-anchor="start" x="1768.5" y="-814.08" font-family="sans" font-size="10.00"> </text>
<text xml:space="preserve" text-anchor="start" x="1713" y="-790.38" font-family="monospace" font-size="10.00">rawdata/cnv/CCLE_copynumber_byGene_2013&#45;12&#45;03.txt</text>
<text xml:space="preserve" text-anchor="start" x="1938.75" y="-766.33" font-family="sans" font-size="10.00"> </text>
<text xml:space="preserve" text-anchor="start" x="1941" y="-766.33" font-family="sans" font-weight="bold" font-size="14.00">output →</text>
<text xml:space="preserve" text-anchor="start" x="2004.75" y="-766.33" font-family="sans" font-size="10.00"> </text>
<text xml:space="preserve" text-anchor="start" x="1713" y="-742.62" font-family="monospace" font-size="10.00">procdata/cnv/CNV_SE.RDS</text>
<polygon fill="#57add9" stroke="#57add9" points="1707,-830.38 1707,-830.38 2014,-830.38 2014,-830.38 1707,-830.38"/>
<polygon fill="#57add9" stroke="#57add9" points="1707,-782.62 1707,-782.62 2014,-782.62 2014,-782.62 1707,-782.62"/>
<polygon fill="none" stroke="#57add9" stroke-width="2" points="1707,-731.88 1707,-864.88 2013,-864.88 2013,-731.88 1707,-731.88"/>
</g>
<!-- 7&#45;&gt;2 -->
<g id="edge8" class="edge">
<title>7&#45;&gt;2</title>
<path fill="none" stroke="grey" stroke-width="2" d="M2005.57,-730.88C2070.73,-701.31 2148.59,-666.25 2219,-635.25 2261.02,-616.75 2306.1,-597.2 2349.21,-578.66"/>
<polygon fill="grey" stroke="grey" stroke-width="2" points="2350.43,-581.94 2358.24,-574.78 2347.67,-575.51 2350.43,-581.94"/>
</g>
<!-- 8 -->
<g id="node9" class="node">
<title>8</title>
<text xml:space="preserve" text-anchor="start" x="1644.62" y="-1173.15" font-family="sans" font-weight="bold" font-size="18.00">downloadCNV</text>
<text xml:space="preserve" text-anchor="start" x="1417" y="-1144.45" font-family="sans" font-size="10.00"> </text>
<text xml:space="preserve" text-anchor="start" x="1419.25" y="-1144.45" font-family="sans" font-weight="bold" font-size="14.00">↪ input</text>
<text xml:space="preserve" text-anchor="start" x="1472.5" y="-1144.45" font-family="sans" font-size="10.00"> </text>
<text xml:space="preserve" text-anchor="start" x="1417" y="-1120.75" font-family="monospace" font-size="10.00">data.broadinstitute.org/ccle_legacy_data/dna_copy_number/CCLE_copynumber_byGene_2013&#45;12&#45;03.txt.gz</text>
<text xml:space="preserve" text-anchor="start" x="1930.75" y="-1096.7" font-family="sans" font-size="10.00"> </text>
<text xml:space="preserve" text-anchor="start" x="1933" y="-1096.7" font-family="sans" font-weight="bold" font-size="14.00">output →</text>
<text xml:space="preserve" text-anchor="start" x="1996.75" y="-1096.7" font-family="sans" font-size="10.00"> </text>
<text xml:space="preserve" text-anchor="start" x="1417" y="-1073" font-family="monospace" font-size="10.00">rawdata/cnv/CCLE_copynumber_byGene_2013&#45;12&#45;03.txt</text>
<polygon fill="#57d9c3" stroke="#57d9c3" points="1411,-1160.75 1411,-1160.75 2006,-1160.75 2006,-1160.75 1411,-1160.75"/>
<polygon fill="#57d9c3" stroke="#57d9c3" points="1411,-1113 1411,-1113 2006,-1113 2006,-1113 1411,-1113"/>
<polygon fill="none" stroke="#57d9c3" stroke-width="2" points="1411,-1062.25 1411,-1195.25 2005,-1195.25 2005,-1062.25 1411,-1062.25"/>
</g>
<!-- 8&#45;&gt;7 -->
<g id="edge14" class="edge">
<title>8&#45;&gt;7</title>
<path fill="none" stroke="grey" stroke-width="2" d="M1738.76,-1061.3C1763.38,-1008.11 1797.96,-933.41 1823.89,-877.38"/>
<polygon fill="grey" stroke="grey" stroke-width="2" points="1826.99,-879.02 1828.01,-868.47 1820.64,-876.08 1826.99,-879.02"/>
</g>
<!-- 9 -->
<g id="node10" class="node">
<title>9</title>
<text xml:space="preserve" text-anchor="start" x="2277.38" y="-842.77" font-family="sans" font-weight="bold" font-size="18.00">make_Mutation_SE</text>
<text xml:space="preserve" text-anchor="start" x="2235" y="-814.08" font-family="sans" font-size="10.00"> </text>
<text xml:space="preserve" text-anchor="start" x="2237.25" y="-814.08" font-family="sans" font-weight="bold" font-size="14.00">↪ input</text>
<text xml:space="preserve" text-anchor="start" x="2290.5" y="-814.08" font-family="sans" font-size="10.00"> </text>
<text xml:space="preserve" text-anchor="start" x="2235" y="-790.38" font-family="monospace" font-size="10.00">procdata/mutation/preprocessedMutation.RDS</text>
<text xml:space="preserve" text-anchor="start" x="2418.75" y="-766.33" font-family="sans" font-size="10.00"> </text>
<text xml:space="preserve" text-anchor="start" x="2421" y="-766.33" font-family="sans" font-weight="bold" font-size="14.00">output →</text>
<text xml:space="preserve" text-anchor="start" x="2484.75" y="-766.33" font-family="sans" font-size="10.00"> </text>
<text xml:space="preserve" text-anchor="start" x="2235" y="-742.62" font-family="monospace" font-size="10.00">procdata/mutation/Mutation_SE.RDS</text>
<polygon fill="#576cd9" stroke="#576cd9" points="2229,-830.38 2229,-830.38 2494,-830.38 2494,-830.38 2229,-830.38"/>
<polygon fill="#576cd9" stroke="#576cd9" points="2229,-782.62 2229,-782.62 2494,-782.62 2494,-782.62 2229,-782.62"/>
<polygon fill="none" stroke="#576cd9" stroke-width="2" points="2229,-731.88 2229,-864.88 2493,-864.88 2493,-731.88 2229,-731.88"/>
</g>
<!-- 9&#45;&gt;2 -->
<g id="edge9" class="edge">
<title>9&#45;&gt;2</title>
<path fill="none" stroke="grey" stroke-width="2" d="M2403.29,-731.11C2425.86,-695.74 2454.34,-651.12 2480.63,-609.92"/>
<polygon fill="grey" stroke="grey" stroke-width="2" points="2483.56,-611.83 2485.99,-601.52 2477.66,-608.07 2483.56,-611.83"/>
</g>
<!-- 10 -->
<g id="node11" class="node">
<title>10</title>
<text xml:space="preserve" text-anchor="start" x="2226" y="-1194.4" font-family="sans" font-weight="bold" font-size="18.00">preprocessMutation</text>
<text xml:space="preserve" text-anchor="start" x="2031" y="-1165.7" font-family="sans" font-size="10.00"> </text>
<text xml:space="preserve" text-anchor="start" x="2033.25" y="-1165.7" font-family="sans" font-weight="bold" font-size="14.00">↪ input</text>
<text xml:space="preserve" text-anchor="start" x="2086.5" y="-1165.7" font-family="sans" font-size="10.00"> </text>
<text xml:space="preserve" text-anchor="start" x="2031" y="-1142" font-family="monospace" font-size="10.00">rawdata/mutation/CCLE_Oncomap3_2012&#45;04&#45;09.maf</text>
<text xml:space="preserve" text-anchor="start" x="2031" y="-1120.75" font-family="monospace" font-size="10.00">rawdata/mutation/CCLE_Oncomap3_Assays_2012&#45;04&#45;09.csv</text>
<text xml:space="preserve" text-anchor="start" x="2031" y="-1099.5" font-family="monospace" font-size="10.00">rawdata/mutation/CCLE_hybrid_capture1650_hg19_NoCommonSNPs_NoNeutralVariants_CDS_2012.05.07.maf</text>
<text xml:space="preserve" text-anchor="start" x="2532.75" y="-1075.45" font-family="sans" font-size="10.00"> </text>
<text xml:space="preserve" text-anchor="start" x="2535" y="-1075.45" font-family="sans" font-weight="bold" font-size="14.00">output →</text>
<text xml:space="preserve" text-anchor="start" x="2598.75" y="-1075.45" font-family="sans" font-size="10.00"> </text>
<text xml:space="preserve" text-anchor="start" x="2031" y="-1051.75" font-family="monospace" font-size="10.00">procdata/mutation/preprocessedMutation.RDS</text>
<polygon fill="#82d957" stroke="#82d957" points="2025,-1182 2025,-1182 2608,-1182 2608,-1182 2025,-1182"/>
<polygon fill="#82d957" stroke="#82d957" points="2025,-1091.75 2025,-1091.75 2608,-1091.75 2608,-1091.75 2025,-1091.75"/>
<polygon fill="none" stroke="#82d957" stroke-width="2" points="2025,-1041 2025,-1216.5 2607,-1216.5 2607,-1041 2025,-1041"/>
</g>
<!-- 10&#45;&gt;9 -->
<g id="edge15" class="edge">
<title>10&#45;&gt;9</title>
<path fill="none" stroke="grey" stroke-width="2" d="M2328,-1040.18C2334.9,-989.87 2343.49,-927.17 2350.17,-878.37"/>
<polygon fill="grey" stroke="grey" stroke-width="2" points="2353.62,-879.02 2351.51,-868.64 2346.68,-878.07 2353.62,-879.02"/>
</g>
<!-- 11 -->
<g id="node12" class="node">
<title>11</title>
<text xml:space="preserve" text-anchor="start" x="2230.12" y="-1492.9" font-family="sans" font-weight="bold" font-size="18.00">downloadMutation</text>
<text xml:space="preserve" text-anchor="start" x="1881" y="-1464.2" font-family="sans" font-size="10.00"> </text>
<text xml:space="preserve" text-anchor="start" x="1883.25" y="-1464.2" font-family="sans" font-weight="bold" font-size="14.00">↪ input</text>
<text xml:space="preserve" text-anchor="start" x="1936.5" y="-1464.2" font-family="sans" font-size="10.00"> </text>
<text xml:space="preserve" text-anchor="start" x="1881" y="-1440.5" font-family="monospace" font-size="10.00">data.broadinstitute.org/ccle_legacy_data/hybrid_capture_sequencing/CCLE_hybrid_capture1650_hg19_NoCommonSNPs_NoNeutralVariants_CDS_2012.05.07.maf</text>
<text xml:space="preserve" text-anchor="start" x="1881" y="-1419.25" font-family="monospace" font-size="10.00">data.broadinstitute.org/ccle_legacy_data/oncomap_mutations/CCLE_Oncomap3_2012&#45;04&#45;09.maf</text>
<text xml:space="preserve" text-anchor="start" x="1881" y="-1398" font-family="monospace" font-size="10.00">data.broadinstitute.org/ccle_legacy_data/oncomap_mutations/CCLE_Oncomap3_Assays_2012&#45;04&#45;09.csv</text>
<text xml:space="preserve" text-anchor="start" x="2682.75" y="-1373.95" font-family="sans" font-size="10.00"> </text>
<text xml:space="preserve" text-anchor="start" x="2685" y="-1373.95" font-family="sans" font-weight="bold" font-size="14.00">output →</text>
<text xml:space="preserve" text-anchor="start" x="2748.75" y="-1373.95" font-family="sans" font-size="10.00"> </text>
<text xml:space="preserve" text-anchor="start" x="1881" y="-1350.25" font-family="monospace" font-size="10.00">rawdata/mutation/CCLE_Oncomap3_2012&#45;04&#45;09.maf</text>
<text xml:space="preserve" text-anchor="start" x="1881" y="-1329" font-family="monospace" font-size="10.00">rawdata/mutation/CCLE_Oncomap3_Assays_2012&#45;04&#45;09.csv</text>
<text xml:space="preserve" text-anchor="start" x="1881" y="-1307.75" font-family="monospace" font-size="10.00">rawdata/mutation/CCLE_hybrid_capture1650_hg19_NoCommonSNPs_NoNeutralVariants_CDS_2012.05.07.maf</text>
<polygon fill="#5782d9" stroke="#5782d9" points="1875,-1480.5 1875,-1480.5 2758,-1480.5 2758,-1480.5 1875,-1480.5"/>
<polygon fill="#5782d9" stroke="#5782d9" points="1875,-1390.25 1875,-1390.25 2758,-1390.25 2758,-1390.25 1875,-1390.25"/>
<polygon fill="none" stroke="#5782d9" stroke-width="2" points="1875,-1297 1875,-1515 2757,-1515 2757,-1297 1875,-1297"/>
</g>
<!-- 11&#45;&gt;10 -->
<g id="edge16" class="edge">
<title>11&#45;&gt;10</title>
<path fill="none" stroke="grey" stroke-width="2" d="M2316,-1296.21C2316,-1274.46 2316,-1251.7 2316,-1230.24"/>
<polygon fill="grey" stroke="grey" stroke-width="2" points="2319.5,-1230.45 2316,-1220.45 2312.5,-1230.45 2319.5,-1230.45"/>
</g>
<!-- 12 -->
<g id="node13" class="node">
<title>12</title>
<text xml:space="preserve" text-anchor="start" x="2687.75" y="-874.65" font-family="sans" font-weight="bold" font-size="18.00">make_RPPA_SE</text>
<text xml:space="preserve" text-anchor="start" x="2564" y="-845.95" font-family="sans" font-size="10.00"> </text>
<text xml:space="preserve" text-anchor="start" x="2566.25" y="-845.95" font-family="sans" font-weight="bold" font-size="14.00">↪ input</text>
<text xml:space="preserve" text-anchor="start" x="2619.5" y="-845.95" font-family="sans" font-size="10.00"> </text>
<text xml:space="preserve" text-anchor="start" x="2564" y="-822.25" font-family="monospace" font-size="10.00">procdata/metadata/annotations/CCLE_sampleMetadata_annotated.tsv</text>
<text xml:space="preserve" text-anchor="start" x="2564" y="-801" font-family="monospace" font-size="10.00">rawdata/proteomics/TCPA_CCLE_RPPA500.tsv</text>
<text xml:space="preserve" text-anchor="start" x="2873.75" y="-776.95" font-family="sans" font-size="10.00"> </text>
<text xml:space="preserve" text-anchor="start" x="2876" y="-776.95" font-family="sans" font-weight="bold" font-size="14.00">output →</text>
<text xml:space="preserve" text-anchor="start" x="2939.75" y="-776.95" font-family="sans" font-size="10.00"> </text>
<text xml:space="preserve" text-anchor="start" x="2564" y="-753.25" font-family="monospace" font-size="10.00">procdata/proteomics/CCLE_RPPA_SE.RDS</text>
<text xml:space="preserve" text-anchor="start" x="2564" y="-732" font-family="monospace" font-size="10.00">procdata/proteomics/CCLE_RPPA_feature_metadata.tsv</text>
<text xml:space="preserve" text-anchor="start" x="2564" y="-710.75" font-family="monospace" font-size="10.00">procdata/proteomics/CCLE_RPPA_sample_metadata.tsv</text>
<polygon fill="#d96c57" stroke="#d96c57" points="2558,-862.25 2558,-862.25 2949,-862.25 2949,-862.25 2558,-862.25"/>
<polygon fill="#d96c57" stroke="#d96c57" points="2558,-793.25 2558,-793.25 2949,-793.25 2949,-793.25 2558,-793.25"/>
<polygon fill="none" stroke="#d96c57" stroke-width="2" points="2558,-700 2558,-896.75 2948,-896.75 2948,-700 2558,-700"/>
</g>
<!-- 12&#45;&gt;2 -->
<g id="edge6" class="edge">
<title>12&#45;&gt;2</title>
<path fill="none" stroke="grey" stroke-width="2" d="M2690.45,-699.35C2672.29,-670.9 2652.25,-639.5 2633.34,-609.88"/>
<polygon fill="grey" stroke="grey" stroke-width="2" points="2636.39,-608.15 2628.06,-601.61 2630.49,-611.92 2636.39,-608.15"/>
</g>
<!-- 13 -->
<g id="node14" class="node">
<title>13</title>
<text xml:space="preserve" text-anchor="start" x="2681.75" y="-1159.9" font-family="sans" font-weight="bold" font-size="18.00">download_RPPA</text>
<text xml:space="preserve" text-anchor="start" x="2633" y="-1134" font-family="sans" font-size="10.00"> &#160;</text>
<text xml:space="preserve" text-anchor="start" x="2804.75" y="-1109.95" font-family="sans" font-size="10.00"> </text>
<text xml:space="preserve" text-anchor="start" x="2807" y="-1109.95" font-family="sans" font-weight="bold" font-size="14.00">output →</text>
<text xml:space="preserve" text-anchor="start" x="2870.75" y="-1109.95" font-family="sans" font-size="10.00"> </text>
<text xml:space="preserve" text-anchor="start" x="2633" y="-1086.25" font-family="monospace" font-size="10.00">rawdata/proteomics/TCPA_CCLE_RPPA500.tsv</text>
<polygon fill="#57d96c" stroke="#57d96c" points="2627,-1147.5 2627,-1147.5 2880,-1147.5 2880,-1147.5 2627,-1147.5"/>
<polygon fill="#57d96c" stroke="#57d96c" points="2627,-1126.25 2627,-1126.25 2880,-1126.25 2880,-1126.25 2627,-1126.25"/>
<polygon fill="none" stroke="#57d96c" stroke-width="2" points="2627,-1075.5 2627,-1182 2879,-1182 2879,-1075.5 2627,-1075.5"/>
</g>
<!-- 13&#45;&gt;12 -->
<g id="edge18" class="edge">
<title>13&#45;&gt;12</title>
<path fill="none" stroke="grey" stroke-width="2" d="M2753,-1074.63C2753,-1030.34 2753,-965.75 2753,-910.27"/>
<polygon fill="grey" stroke="grey" stroke-width="2" points="2756.5,-910.51 2753,-900.51 2749.5,-910.51 2756.5,-910.51"/>
</g>
<!-- 14 -->
<g id="node15" class="node">
<title>14</title>
<text xml:space="preserve" text-anchor="start" x="2974.75" y="-1173.15" font-family="sans" font-weight="bold" font-size="18.00">annotate_sampleMetadata</text>
<text xml:space="preserve" text-anchor="start" x="2905" y="-1144.45" font-family="sans" font-size="10.00"> </text>
<text xml:space="preserve" text-anchor="start" x="2907.25" y="-1144.45" font-family="sans" font-weight="bold" font-size="14.00">↪ input</text>
<text xml:space="preserve" text-anchor="start" x="2960.5" y="-1144.45" font-family="sans" font-size="10.00"> </text>
<text xml:space="preserve" text-anchor="start" x="2905" y="-1120.75" font-family="monospace" font-size="10.00">procdata/metadata/preprocessed_sampleMetadata.tsv</text>
<text xml:space="preserve" text-anchor="start" x="3214.75" y="-1096.7" font-family="sans" font-size="10.00"> </text>
<text xml:space="preserve" text-anchor="start" x="3217" y="-1096.7" font-family="sans" font-weight="bold" font-size="14.00">output →</text>
<text xml:space="preserve" text-anchor="start" x="3280.75" y="-1096.7" font-family="sans" font-size="10.00"> </text>
<text xml:space="preserve" text-anchor="start" x="2905" y="-1073" font-family="monospace" font-size="10.00">procdata/metadata/annotations/CCLE_sampleMetadata_annotated.tsv</text>
<polygon fill="#d9d957" stroke="#d9d957" points="2899,-1160.75 2899,-1160.75 3290,-1160.75 3290,-1160.75 2899,-1160.75"/>
<polygon fill="#d9d957" stroke="#d9d957" points="2899,-1113 2899,-1113 3290,-1113 3290,-1113 2899,-1113"/>
<polygon fill="none" stroke="#d9d957" stroke-width="2" points="2899,-1062.25 2899,-1195.25 3289,-1195.25 3289,-1062.25 2899,-1062.25"/>
</g>
<!-- 14&#45;&gt;1 -->
<g id="edge5" class="edge">
<title>14&#45;&gt;1</title>
<path fill="none" stroke="grey" stroke-width="2" d="M3104.45,-1061.39C3128.15,-910.83 3186.21,-542.05 3215.5,-356.03"/>
<polygon fill="grey" stroke="grey" stroke-width="2" points="3218.95,-356.64 3217.04,-346.22 3212.03,-355.55 3218.95,-356.64"/>
</g>
<!-- 14&#45;&gt;2 -->
<g id="edge10" class="edge">
<title>14&#45;&gt;2</title>
<path fill="none" stroke="grey" stroke-width="2" d="M3094.1,-1061.64C3090.67,-957.61 3069,-755.21 2958,-635.25 2907.38,-580.55 2834.56,-546.44 2764.82,-525.2"/>
<polygon fill="grey" stroke="grey" stroke-width="2" points="2766.24,-521.97 2755.66,-522.5 2764.26,-528.68 2766.24,-521.97"/>
</g>
<!-- 14&#45;&gt;12 -->
<g id="edge17" class="edge">
<title>14&#45;&gt;12</title>
<path fill="none" stroke="grey" stroke-width="2" d="M3024.99,-1061.3C2978.82,-1016.83 2917.03,-957.33 2864.01,-906.27"/>
<polygon fill="grey" stroke="grey" stroke-width="2" points="2866.71,-904.02 2857.08,-899.6 2861.86,-909.06 2866.71,-904.02"/>
</g>
<!-- 18 -->
<g id="node19" class="node">
<title>18</title>
<text xml:space="preserve" text-anchor="start" x="3333.25" y="-895.9" font-family="sans" font-weight="bold" font-size="18.00">build_treatmentResponseExperiment</text>
<text xml:space="preserve" text-anchor="start" x="3301" y="-867.2" font-family="sans" font-size="10.00"> </text>
<text xml:space="preserve" text-anchor="start" x="3303.25" y="-867.2" font-family="sans" font-weight="bold" font-size="14.00">↪ input</text>
<text xml:space="preserve" text-anchor="start" x="3356.5" y="-867.2" font-family="sans" font-size="10.00"> </text>
<text xml:space="preserve" text-anchor="start" x="3301" y="-843.5" font-family="monospace" font-size="10.00">procdata/metadata/annotations/CCLE_sampleMetadata_annotated.tsv</text>
<text xml:space="preserve" text-anchor="start" x="3301" y="-822.25" font-family="monospace" font-size="10.00">procdata/metadata/annotations/CCLE_treatmentMetadata_annotated.tsv</text>
<text xml:space="preserve" text-anchor="start" x="3301" y="-801" font-family="monospace" font-size="10.00">rawdata/treatmentResponse/CCLE_GNF_data_090613.xls</text>
<text xml:space="preserve" text-anchor="start" x="3301" y="-779.75" font-family="monospace" font-size="10.00">rawdata/treatmentResponse/CCLE_NP24.2009_Drug_data_2015.02.24.csv</text>
<text xml:space="preserve" text-anchor="start" x="3628.75" y="-755.7" font-family="sans" font-size="10.00"> </text>
<text xml:space="preserve" text-anchor="start" x="3631" y="-755.7" font-family="sans" font-weight="bold" font-size="14.00">output →</text>
<text xml:space="preserve" text-anchor="start" x="3694.75" y="-755.7" font-family="sans" font-size="10.00"> </text>
<text xml:space="preserve" text-anchor="start" x="3301" y="-732" font-family="monospace" font-size="10.00">procdata/treatmentResponse/treatmentResponse_profiles.tsv</text>
<text xml:space="preserve" text-anchor="start" x="3301" y="-710.75" font-family="monospace" font-size="10.00">procdata/treatmentResponse/treatmentResponse_raw.tsv</text>
<text xml:space="preserve" text-anchor="start" x="3301" y="-689.5" font-family="monospace" font-size="10.00">results/treatmentResponse/treatmentResponseExperiment.rds</text>
<polygon fill="#57d957" stroke="#57d957" points="3295,-883.5 3295,-883.5 3704,-883.5 3704,-883.5 3295,-883.5"/>
<polygon fill="#57d957" stroke="#57d957" points="3295,-772 3295,-772 3704,-772 3704,-772 3295,-772"/>
<polygon fill="none" stroke="#57d957" stroke-width="2" points="3295,-678.75 3295,-918 3703,-918 3703,-678.75 3295,-678.75"/>
</g>
<!-- 14&#45;&gt;18 -->
<g id="edge24" class="edge">
<title>14&#45;&gt;18</title>
<path fill="none" stroke="grey" stroke-width="2" d="M3175.96,-1061.3C3223.59,-1022.68 3285.21,-972.71 3341.85,-926.8"/>
<polygon fill="grey" stroke="grey" stroke-width="2" points="3343.71,-929.79 3349.27,-920.78 3339.3,-924.36 3343.71,-929.79"/>
</g>
<!-- 15 -->
<g id="node16" class="node">
<title>15</title>
<text xml:space="preserve" text-anchor="start" x="3545.88" y="-1471.65" font-family="sans" font-weight="bold" font-size="18.00">preprocessMetadata</text>
<text xml:space="preserve" text-anchor="start" x="3481" y="-1442.95" font-family="sans" font-size="10.00"> </text>
<text xml:space="preserve" text-anchor="start" x="3483.25" y="-1442.95" font-family="sans" font-weight="bold" font-size="14.00">↪ input</text>
<text xml:space="preserve" text-anchor="start" x="3536.5" y="-1442.95" font-family="sans" font-size="10.00"> </text>
<text xml:space="preserve" text-anchor="start" x="3481" y="-1419.25" font-family="monospace" font-size="10.00">metadata/sampleAnnotation.txt</text>
<text xml:space="preserve" text-anchor="start" x="3481" y="-1398" font-family="monospace" font-size="10.00">metadata/treatmentAnnotation.csv</text>
<text xml:space="preserve" text-anchor="start" x="3724.75" y="-1373.95" font-family="sans" font-size="10.00"> </text>
<text xml:space="preserve" text-anchor="start" x="3727" y="-1373.95" font-family="sans" font-weight="bold" font-size="14.00">output →</text>
<text xml:space="preserve" text-anchor="start" x="3790.75" y="-1373.95" font-family="sans" font-size="10.00"> </text>
<text xml:space="preserve" text-anchor="start" x="3481" y="-1350.25" font-family="monospace" font-size="10.00">procdata/metadata/preprocessed_sampleMetadata.tsv</text>
<text xml:space="preserve" text-anchor="start" x="3481" y="-1329" font-family="monospace" font-size="10.00">procdata/metadata/preprocessed_treatmentMetadata.tsv</text>
<polygon fill="#57d998" stroke="#57d998" points="3475,-1459.25 3475,-1459.25 3800,-1459.25 3800,-1459.25 3475,-1459.25"/>
<polygon fill="#57d998" stroke="#57d998" points="3475,-1390.25 3475,-1390.25 3800,-1390.25 3800,-1390.25 3475,-1390.25"/>
<polygon fill="none" stroke="#57d998" stroke-width="2" points="3475,-1318.25 3475,-1493.75 3799,-1493.75 3799,-1318.25 3475,-1318.25"/>
</g>
<!-- 15&#45;&gt;14 -->
<g id="edge19" class="edge">
<title>15&#45;&gt;14</title>
<path fill="none" stroke="grey" stroke-width="2" d="M3474.2,-1341.4C3417.8,-1317.73 3354.76,-1289.43 3299,-1260 3266.73,-1242.97 3232.84,-1222.56 3202.13,-1203.02"/>
<polygon fill="grey" stroke="grey" stroke-width="2" points="3204.26,-1200.23 3193.95,-1197.78 3200.49,-1206.12 3204.26,-1200.23"/>
</g>
<!-- 20 -->
<g id="node21" class="node">
<title>20</title>
<text xml:space="preserve" text-anchor="start" x="4048.25" y="-1173.15" font-family="sans" font-weight="bold" font-size="18.00">annotate_treatmentMetadata</text>
<text xml:space="preserve" text-anchor="start" x="3983" y="-1144.45" font-family="sans" font-size="10.00"> </text>
<text xml:space="preserve" text-anchor="start" x="3985.25" y="-1144.45" font-family="sans" font-weight="bold" font-size="14.00">↪ input</text>
<text xml:space="preserve" text-anchor="start" x="4038.5" y="-1144.45" font-family="sans" font-size="10.00"> </text>
<text xml:space="preserve" text-anchor="start" x="3983" y="-1120.75" font-family="monospace" font-size="10.00">procdata/metadata/preprocessed_treatmentMetadata.tsv</text>
<text xml:space="preserve" text-anchor="start" x="4310.75" y="-1096.7" font-family="sans" font-size="10.00"> </text>
<text xml:space="preserve" text-anchor="start" x="4313" y="-1096.7" font-family="sans" font-weight="bold" font-size="14.00">output →</text>
<text xml:space="preserve" text-anchor="start" x="4376.75" y="-1096.7" font-family="sans" font-size="10.00"> </text>
<text xml:space="preserve" text-anchor="start" x="3983" y="-1073" font-family="monospace" font-size="10.00">procdata/metadata/annotations/CCLE_treatmentMetadata_annotated.tsv</text>
<polygon fill="#d9ad57" stroke="#d9ad57" points="3977,-1160.75 3977,-1160.75 4386,-1160.75 4386,-1160.75 3977,-1160.75"/>
<polygon fill="#d9ad57" stroke="#d9ad57" points="3977,-1113 3977,-1113 4386,-1113 4386,-1113 3977,-1113"/>
<polygon fill="none" stroke="#d9ad57" stroke-width="2" points="3977,-1062.25 3977,-1195.25 4385,-1195.25 4385,-1062.25 3977,-1062.25"/>
</g>
<!-- 15&#45;&gt;20 -->
<g id="edge25" class="edge">
<title>15&#45;&gt;20</title>
<path fill="none" stroke="grey" stroke-width="2" d="M3799.73,-1338.59C3853.69,-1315.23 3913.59,-1287.83 3967,-1260 4000.27,-1242.66 4035.41,-1222.23 4067.39,-1202.74"/>
<polygon fill="grey" stroke="grey" stroke-width="2" points="4068.82,-1205.97 4075.52,-1197.76 4065.17,-1200 4068.82,-1205.97"/>
</g>
<!-- 16 -->
<g id="node17" class="node">
<title>16</title>
<text xml:space="preserve" text-anchor="start" x="3246.75" y="-1663.9" font-family="sans" font-weight="bold" font-size="18.00">downloadSampleMetadata</text>
<text xml:space="preserve" text-anchor="start" x="3174" y="-1635.2" font-family="sans" font-size="10.00"> </text>
<text xml:space="preserve" text-anchor="start" x="3176.25" y="-1635.2" font-family="sans" font-weight="bold" font-size="14.00">↪ input</text>
<text xml:space="preserve" text-anchor="start" x="3229.5" y="-1635.2" font-family="sans" font-size="10.00"> </text>
<text xml:space="preserve" text-anchor="start" x="3174" y="-1611.5" font-family="monospace" font-size="10.00">data.broadinstitute.org/ccle/Cell_lines_annotations_20181226.txt</text>
<text xml:space="preserve" text-anchor="start" x="3489.75" y="-1587.45" font-family="sans" font-size="10.00"> </text>
<text xml:space="preserve" text-anchor="start" x="3492" y="-1587.45" font-family="sans" font-weight="bold" font-size="14.00">output →</text>
<text xml:space="preserve" text-anchor="start" x="3555.75" y="-1587.45" font-family="sans" font-size="10.00"> </text>
<text xml:space="preserve" text-anchor="start" x="3174" y="-1563.75" font-family="monospace" font-size="10.00">metadata/sampleAnnotation.txt</text>
<polygon fill="#d99857" stroke="#d99857" points="3168,-1651.5 3168,-1651.5 3565,-1651.5 3565,-1651.5 3168,-1651.5"/>
<polygon fill="#d99857" stroke="#d99857" points="3168,-1603.75 3168,-1603.75 3565,-1603.75 3565,-1603.75 3168,-1603.75"/>
<polygon fill="none" stroke="#d99857" stroke-width="2" points="3168,-1553 3168,-1686 3564,-1686 3564,-1553 3168,-1553"/>
</g>
<!-- 16&#45;&gt;15 -->
<g id="edge21" class="edge">
<title>16&#45;&gt;15</title>
<path fill="none" stroke="grey" stroke-width="2" d="M3451,-1552.16C3471.24,-1536.37 3493.22,-1519.21 3514.76,-1502.4"/>
<polygon fill="grey" stroke="grey" stroke-width="2" points="3516.83,-1505.22 3522.56,-1496.31 3512.53,-1499.7 3516.83,-1505.22"/>
</g>
<!-- 17 -->
<g id="node18" class="node">
<title>17</title>
<text xml:space="preserve" text-anchor="start" x="3774.5" y="-1663.9" font-family="sans" font-weight="bold" font-size="18.00">downloadTreatmentMetadata</text>
<text xml:space="preserve" text-anchor="start" x="3590" y="-1635.2" font-family="sans" font-size="10.00"> </text>
<text xml:space="preserve" text-anchor="start" x="3592.25" y="-1635.2" font-family="sans" font-weight="bold" font-size="14.00">↪ input</text>
<text xml:space="preserve" text-anchor="start" x="3645.5" y="-1635.2" font-family="sans" font-size="10.00"> </text>
<text xml:space="preserve" text-anchor="start" x="3590" y="-1611.5" font-family="monospace" font-size="10.00">data.broadinstitute.org/ccle_legacy_data/pharmacological_profiling/CCLE_NP24.2009_profiling_2012.02.20.csv</text>
<text xml:space="preserve" text-anchor="start" x="4157.75" y="-1587.45" font-family="sans" font-size="10.00"> </text>
<text xml:space="preserve" text-anchor="start" x="4160" y="-1587.45" font-family="sans" font-weight="bold" font-size="14.00">output →</text>
<text xml:space="preserve" text-anchor="start" x="4223.75" y="-1587.45" font-family="sans" font-size="10.00"> </text>
<text xml:space="preserve" text-anchor="start" x="3590" y="-1563.75" font-family="monospace" font-size="10.00">metadata/treatmentAnnotation.csv</text>
<polygon fill="#57d9d9" stroke="#57d9d9" points="3584,-1651.5 3584,-1651.5 4233,-1651.5 4233,-1651.5 3584,-1651.5"/>
<polygon fill="#57d9d9" stroke="#57d9d9" points="3584,-1603.75 3584,-1603.75 4233,-1603.75 4233,-1603.75 3584,-1603.75"/>
<polygon fill="none" stroke="#57d9d9" stroke-width="2" points="3584,-1553 3584,-1686 4232,-1686 4232,-1553 3584,-1553"/>
</g>
<!-- 17&#45;&gt;15 -->
<g id="edge20" class="edge">
<title>17&#45;&gt;15</title>
<path fill="none" stroke="grey" stroke-width="2" d="M3823,-1552.16C3802.76,-1536.37 3780.78,-1519.21 3759.24,-1502.4"/>
<polygon fill="grey" stroke="grey" stroke-width="2" points="3761.47,-1499.7 3751.44,-1496.31 3757.17,-1505.22 3761.47,-1499.7"/>
</g>
<!-- 18&#45;&gt;1 -->
<g id="edge3" class="edge">
<title>18&#45;&gt;1</title>
<path fill="none" stroke="grey" stroke-width="2" d="M3441.45,-677.83C3395.18,-581.73 3330.71,-447.83 3285.76,-354.47"/>
<polygon fill="grey" stroke="grey" stroke-width="2" points="3289.05,-353.22 3281.56,-345.73 3282.74,-356.26 3289.05,-353.22"/>
</g>
<!-- 19 -->
<g id="node20" class="node">
<title>19</title>
<text xml:space="preserve" text-anchor="start" x="3496.88" y="-1194.4" font-family="sans" font-weight="bold" font-size="18.00">download_treatmentResponse</text>
<text xml:space="preserve" text-anchor="start" x="3315" y="-1165.7" font-family="sans" font-size="10.00"> </text>
<text xml:space="preserve" text-anchor="start" x="3317.25" y="-1165.7" font-family="sans" font-weight="bold" font-size="14.00">↪ input</text>
<text xml:space="preserve" text-anchor="start" x="3370.5" y="-1165.7" font-family="sans" font-size="10.00"> </text>
<text xml:space="preserve" text-anchor="start" x="3315" y="-1142" font-family="monospace" font-size="10.00">data.broadinstitute.org/ccle_legacy_data/pharmacological_profiling/CCLE_GNF_data_090613.xls</text>
<text xml:space="preserve" text-anchor="start" x="3315" y="-1120.75" font-family="monospace" font-size="10.00">data.broadinstitute.org/ccle_legacy_data/pharmacological_profiling/CCLE_NP24.2009_Drug_data_2015.02.24.csv</text>
<text xml:space="preserve" text-anchor="start" x="3882.75" y="-1096.7" font-family="sans" font-size="10.00"> </text>
<text xml:space="preserve" text-anchor="start" x="3885" y="-1096.7" font-family="sans" font-weight="bold" font-size="14.00">output →</text>
<text xml:space="preserve" text-anchor="start" x="3948.75" y="-1096.7" font-family="sans" font-size="10.00"> </text>
<text xml:space="preserve" text-anchor="start" x="3315" y="-1073" font-family="monospace" font-size="10.00">rawdata/treatmentResponse/CCLE_GNF_data_090613.xls</text>
<text xml:space="preserve" text-anchor="start" x="3315" y="-1051.75" font-family="monospace" font-size="10.00">rawdata/treatmentResponse/CCLE_NP24.2009_Drug_data_2015.02.24.csv</text>
<polygon fill="#57d982" stroke="#57d982" points="3309,-1182 3309,-1182 3958,-1182 3958,-1182 3309,-1182"/>
<polygon fill="#57d982" stroke="#57d982" points="3309,-1113 3309,-1113 3958,-1113 3958,-1113 3309,-1113"/>
<polygon fill="none" stroke="#57d982" stroke-width="2" points="3309,-1041 3309,-1216.5 3957,-1216.5 3957,-1041 3309,-1041"/>
</g>
<!-- 19&#45;&gt;18 -->
<g id="edge22" class="edge">
<title>19&#45;&gt;18</title>
<path fill="none" stroke="grey" stroke-width="2" d="M3597.27,-1040.18C3583.55,-1006.58 3567.59,-967.46 3552.57,-930.64"/>
<polygon fill="grey" stroke="grey" stroke-width="2" points="3555.89,-929.52 3548.87,-921.58 3549.41,-932.16 3555.89,-929.52"/>
</g>
<!-- 20&#45;&gt;1 -->
<g id="edge4" class="edge">
<title>20&#45;&gt;1</title>
<path fill="none" stroke="grey" stroke-width="2" d="M4122.94,-1061.44C4036.88,-964.37 3868.8,-779.48 3713,-635.25 3603.28,-533.68 3470.96,-427.15 3373.06,-351.08"/>
<polygon fill="grey" stroke="grey" stroke-width="2" points="3375.24,-348.34 3365.19,-344.98 3370.95,-353.87 3375.24,-348.34"/>
</g>
<!-- 20&#45;&gt;18 -->
<g id="edge23" class="edge">
<title>20&#45;&gt;18</title>
<path fill="none" stroke="grey" stroke-width="2" d="M4078.8,-1061.36C4043.95,-1039.86 4004.35,-1016.64 3967,-997.5 3886.64,-956.32 3795.74,-916.4 3715.56,-883.31"/>
<polygon fill="grey" stroke="grey" stroke-width="2" points="3717.2,-880.2 3706.62,-879.63 3714.53,-886.67 3717.2,-880.2"/>
</g>
</g>
</svg>
