<?xml version="1.0" encoding="UTF-8" standalone="no"?>
<!DOCTYPE svg PUBLIC "-//W3C//DTD SVG 1.1//EN"
 "http://www.w3.org/Graphics/SVG/1.1/DTD/svg11.dtd">
<!-- Generated by graphviz version 2.43.0 (0)
 -->
<!-- Title: snakemake_dag Pages: 1 -->
<svg width="4260pt" height="1340pt"
 viewBox="0.00 0.00 4260.00 1340.00" xmlns="http://www.w3.org/2000/svg" xmlns:xlink="http://www.w3.org/1999/xlink">
<g id="graph0" class="graph" transform="scale(1 1) rotate(0) translate(4 1336)">
<title>snakemake_dag</title>
<polygon fill="white" stroke="transparent" points="-4,4 -4,-1336 4256,-1336 4256,4 -4,4"/>
<!-- 0 -->
<g id="node1" class="node">
<title>0</title>
<text text-anchor="start" x="3146.5" y="-93.6" font-family="sans" font-weight="bold" font-size="18.00">all</text>
<text text-anchor="start" x="3095.5" y="-69.8" font-family="sans" font-size="10.00"> </text>
<text text-anchor="start" x="3099.5" y="-69.8" font-family="sans" font-weight="bold" font-size="14.00">↪ input</text>
<text text-anchor="start" x="3157.5" y="-69.8" font-family="sans" font-size="10.00"> </text>
<text text-anchor="start" x="3095.5" y="-50" font-family="monospace" font-size="10.00">results/CCLE_PSet.RDS</text>
<text text-anchor="start" x="3144.5" y="-29.8" font-family="sans" font-size="10.00"> </text>
<text text-anchor="start" x="3148.5" y="-29.8" font-family="sans" font-weight="bold" font-size="14.00">output →</text>
<text text-anchor="start" x="3218.5" y="-29.8" font-family="sans" font-size="10.00"> </text>
<text text-anchor="start" x="3095.5" y="-10" font-family="monospace" font-size="10.00">results/exports</text>
<polygon fill="#d9b157" stroke="#d9b157" points="3089.5,-84 3089.5,-84 3229.5,-84 3229.5,-84 3089.5,-84"/>
<polygon fill="#d9b157" stroke="#d9b157" points="3089.5,-44 3089.5,-44 3229.5,-44 3229.5,-44 3089.5,-44"/>
<polygon fill="none" stroke="#d9b157" stroke-width="2" points="3089,-1 3089,-113 3228,-113 3228,-1 3089,-1"/>
</g>
<!-- 1 -->
<g id="node2" class="node">
<title>1</title>
<text text-anchor="start" x="3062.5" y="-297.6" font-family="sans" font-weight="bold" font-size="18.00">build_PharmacoSet</text>
<text text-anchor="start" x="2960.5" y="-273.8" font-family="sans" font-size="10.00"> </text>
<text text-anchor="start" x="2964.5" y="-273.8" font-family="sans" font-weight="bold" font-size="14.00">↪ input</text>
<text text-anchor="start" x="3022.5" y="-273.8" font-family="sans" font-size="10.00"> </text>
<text text-anchor="start" x="2960.5" y="-254" font-family="monospace" font-size="10.00">procdata/metadata/annotations/CCLE_sampleMetadata_annotated.tsv</text>
<text text-anchor="start" x="2960.5" y="-236" font-family="monospace" font-size="10.00">procdata/metadata/annotations/CCLE_treatmentMetadata_annotated.tsv</text>
<text text-anchor="start" x="2960.5" y="-218" font-family="monospace" font-size="10.00">procdata/treatmentResponse/treatmentResponseExperiment.rds</text>
<text text-anchor="start" x="2960.5" y="-200" font-family="monospace" font-size="10.00">results/CCLE_MultiAssayExperiment.RDS</text>
<text text-anchor="start" x="3279.5" y="-179.8" font-family="sans" font-size="10.00"> </text>
<text text-anchor="start" x="3283.5" y="-179.8" font-family="sans" font-weight="bold" font-size="14.00">output →</text>
<text text-anchor="start" x="3353.5" y="-179.8" font-family="sans" font-size="10.00"> </text>
<text text-anchor="start" x="2960.5" y="-160" font-family="monospace" font-size="10.00">results/CCLE_PSet.RDS</text>
<polygon fill="#57c8d9" stroke="#57c8d9" points="2954.5,-288 2954.5,-288 3364.5,-288 3364.5,-288 2954.5,-288"/>
<polygon fill="#57c8d9" stroke="#57c8d9" points="2954.5,-194 2954.5,-194 3364.5,-194 3364.5,-194 2954.5,-194"/>
<polygon fill="none" stroke="#57c8d9" stroke-width="2" points="2954,-151 2954,-317 3363,-317 3363,-151 2954,-151"/>
</g>
<!-- 1&#45;&gt;0 -->
<g id="edge1" class="edge">
<title>1&#45;&gt;0</title>
<path fill="none" stroke="grey" stroke-width="2" d="M3158.5,-149.86C3158.5,-141.42 3158.5,-132.94 3158.5,-124.71"/>
<polygon fill="grey" stroke="grey" stroke-width="2" points="3162,-124.45 3158.5,-114.45 3155,-124.45 3162,-124.45"/>
</g>
<!-- 2 -->
<g id="node3" class="node">
<title>2</title>
<text text-anchor="start" x="2557" y="-501.6" font-family="sans" font-weight="bold" font-size="18.00">build_MultiAssayExperiment</text>
<text text-anchor="start" x="2509.5" y="-477.8" font-family="sans" font-size="10.00"> </text>
<text text-anchor="start" x="2513.5" y="-477.8" font-family="sans" font-weight="bold" font-size="14.00">↪ input</text>
<text text-anchor="start" x="2571.5" y="-477.8" font-family="sans" font-size="10.00"> </text>
<text text-anchor="start" x="2509.5" y="-458" font-family="monospace" font-size="10.00">procdata/cnv/CNV_SE.RDS</text>
<text text-anchor="start" x="2509.5" y="-440" font-family="monospace" font-size="10.00">procdata/metadata/annotations/CCLE_sampleMetadata_annotated.tsv</text>
<text text-anchor="start" x="2509.5" y="-422" font-family="monospace" font-size="10.00">procdata/mutation/Mutation_SE.RDS</text>
<text text-anchor="start" x="2509.5" y="-404" font-family="monospace" font-size="10.00">procdata/rnaseq/CCLE_RNASEQ_rse_list.RDS</text>
<text text-anchor="start" x="2810.5" y="-383.8" font-family="sans" font-size="10.00"> </text>
<text text-anchor="start" x="2814.5" y="-383.8" font-family="sans" font-weight="bold" font-size="14.00">output →</text>
<text text-anchor="start" x="2884.5" y="-383.8" font-family="sans" font-size="10.00"> </text>
<text text-anchor="start" x="2509.5" y="-364" font-family="monospace" font-size="10.00">results/CCLE_MultiAssayExperiment.RDS</text>
<polygon fill="#57d9bc" stroke="#57d9bc" points="2503.5,-492 2503.5,-492 2895.5,-492 2895.5,-492 2503.5,-492"/>
<polygon fill="#57d9bc" stroke="#57d9bc" points="2503.5,-398 2503.5,-398 2895.5,-398 2895.5,-398 2503.5,-398"/>
<polygon fill="none" stroke="#57d9bc" stroke-width="2" points="2503,-355 2503,-521 2894,-521 2894,-355 2503,-355"/>
</g>
<!-- 2&#45;&gt;1 -->
<g id="edge3" class="edge">
<title>2&#45;&gt;1</title>
<path fill="none" stroke="grey" stroke-width="2" d="M2887.59,-353.96C2911.54,-343.45 2936.1,-332.66 2960.19,-322.08"/>
<polygon fill="grey" stroke="grey" stroke-width="2" points="2961.65,-325.26 2969.4,-318.04 2958.84,-318.86 2961.65,-325.26"/>
</g>
<!-- 3 -->
<g id="node4" class="node">
<title>3</title>
<text text-anchor="start" x="962" y="-831.6" font-family="sans" font-weight="bold" font-size="18.00">make_RNASEQ_SE</text>
<text text-anchor="start" x="829.5" y="-807.8" font-family="sans" font-size="10.00"> </text>
<text text-anchor="start" x="833.5" y="-807.8" font-family="sans" font-weight="bold" font-size="14.00">↪ input</text>
<text text-anchor="start" x="891.5" y="-807.8" font-family="sans" font-size="10.00"> </text>
<text text-anchor="start" x="829.5" y="-788" font-family="monospace" font-size="10.00">metadata/homo_sapiens/GRCh37_v19/annotation.gtf</text>
<text text-anchor="start" x="829.5" y="-770" font-family="monospace" font-size="10.00">metadata/referenceGenome/gencode.v19.genes.v7_model.patched_contigs.gtf.gz</text>
<text text-anchor="start" x="829.5" y="-752" font-family="monospace" font-size="10.00">rawdata/rnaseq/CCLE_RNAseq_genes_counts_20180929.gct.gz</text>
<text text-anchor="start" x="829.5" y="-734" font-family="monospace" font-size="10.00">rawdata/rnaseq/CCLE_RNAseq_genes_rpkm_20180929.gct.gz</text>
<text text-anchor="start" x="829.5" y="-716" font-family="monospace" font-size="10.00">rawdata/rnaseq/CCLE_RNAseq_rsem_genes_tpm_20180929.txt</text>
<text text-anchor="start" x="829.5" y="-698" font-family="monospace" font-size="10.00">rawdata/rnaseq/CCLE_RNAseq_rsem_transcripts_tpm_20180929.txt</text>
<text text-anchor="start" x="1196.5" y="-677.8" font-family="sans" font-size="10.00"> </text>
<text text-anchor="start" x="1200.5" y="-677.8" font-family="sans" font-weight="bold" font-size="14.00">output →</text>
<text text-anchor="start" x="1270.5" y="-677.8" font-family="sans" font-size="10.00"> </text>
<text text-anchor="start" x="829.5" y="-658" font-family="monospace" font-size="10.00">procdata/rnaseq/CCLE_RNASEQ_rse_list.RDS</text>
<text text-anchor="start" x="829.5" y="-640" font-family="monospace" font-size="10.00">procdata/rnaseq/CCLE_RNAseq_genes_counts.tsv</text>
<text text-anchor="start" x="829.5" y="-622" font-family="monospace" font-size="10.00">procdata/rnaseq/CCLE_RNAseq_genes_rpkm.tsv</text>
<text text-anchor="start" x="829.5" y="-604" font-family="monospace" font-size="10.00">procdata/rnaseq/CCLE_RNAseq_genes_tpm.tsv</text>
<text text-anchor="start" x="829.5" y="-586" font-family="monospace" font-size="10.00">procdata/rnaseq/CCLE_RNAseq_metadata.json</text>
<text text-anchor="start" x="829.5" y="-568" font-family="monospace" font-size="10.00">procdata/rnaseq/CCLE_RNAseq_transcripts_tpm.tsv</text>
<polygon fill="#d95757" stroke="#d95757" points="823.5,-822 823.5,-822 1281.5,-822 1281.5,-822 823.5,-822"/>
<polygon fill="#d95757" stroke="#d95757" points="823.5,-692 823.5,-692 1281.5,-692 1281.5,-692 823.5,-692"/>
<polygon fill="none" stroke="#d95757" stroke-width="2" points="823,-559 823,-851 1280,-851 1280,-559 823,-559"/>
</g>
<!-- 3&#45;&gt;2 -->
<g id="edge8" class="edge">
<title>3&#45;&gt;2</title>
<path fill="none" stroke="grey" stroke-width="2" d="M1281.37,-667.01C1603.19,-615.23 2183.15,-521.92 2491.93,-472.24"/>
<polygon fill="grey" stroke="grey" stroke-width="2" points="2492.57,-475.68 2501.89,-470.63 2491.46,-468.77 2492.57,-475.68"/>
</g>
<!-- 4 -->
<g id="node5" class="node">
<title>4</title>
<text text-anchor="start" x="1278.5" y="-1089.6" font-family="sans" font-weight="bold" font-size="18.00">download_RNASEQ</text>
<text text-anchor="start" x="1069.5" y="-1065.8" font-family="sans" font-size="10.00"> </text>
<text text-anchor="start" x="1073.5" y="-1065.8" font-family="sans" font-weight="bold" font-size="14.00">↪ input</text>
<text text-anchor="start" x="1131.5" y="-1065.8" font-family="sans" font-size="10.00"> </text>
<text text-anchor="start" x="1069.5" y="-1046" font-family="monospace" font-size="10.00">.snakemake/storage/http/data.broadinstitute.org/ccle/CCLE_RNAseq_genes_counts_20180929.gct.gz</text>
<text text-anchor="start" x="1069.5" y="-1028" font-family="monospace" font-size="10.00">.snakemake/storage/http/data.broadinstitute.org/ccle/CCLE_RNAseq_genes_rpkm_20180929.gct.gz</text>
<text text-anchor="start" x="1069.5" y="-1010" font-family="monospace" font-size="10.00">.snakemake/storage/http/data.broadinstitute.org/ccle/CCLE_RNAseq_rsem_genes_tpm_20180929.txt.gz</text>
<text text-anchor="start" x="1069.5" y="-992" font-family="monospace" font-size="10.00">.snakemake/storage/http/data.broadinstitute.org/ccle/CCLE_RNAseq_rsem_transcripts_tpm_20180929.txt.gz</text>
<text text-anchor="start" x="1598.5" y="-971.8" font-family="sans" font-size="10.00"> </text>
<text text-anchor="start" x="1602.5" y="-971.8" font-family="sans" font-weight="bold" font-size="14.00">output →</text>
<text text-anchor="start" x="1672.5" y="-971.8" font-family="sans" font-size="10.00"> </text>
<text text-anchor="start" x="1069.5" y="-952" font-family="monospace" font-size="10.00">rawdata/rnaseq/CCLE_RNAseq_genes_counts_20180929.gct.gz</text>
<text text-anchor="start" x="1069.5" y="-934" font-family="monospace" font-size="10.00">rawdata/rnaseq/CCLE_RNAseq_genes_rpkm_20180929.gct.gz</text>
<text text-anchor="start" x="1069.5" y="-916" font-family="monospace" font-size="10.00">rawdata/rnaseq/CCLE_RNAseq_rsem_genes_tpm_20180929.txt</text>
<text text-anchor="start" x="1069.5" y="-898" font-family="monospace" font-size="10.00">rawdata/rnaseq/CCLE_RNAseq_rsem_transcripts_tpm_20180929.txt</text>
<polygon fill="#579bd9" stroke="#579bd9" points="1063.5,-1080 1063.5,-1080 1683.5,-1080 1683.5,-1080 1063.5,-1080"/>
<polygon fill="#579bd9" stroke="#579bd9" points="1063.5,-986 1063.5,-986 1683.5,-986 1683.5,-986 1063.5,-986"/>
<polygon fill="none" stroke="#579bd9" stroke-width="2" points="1063,-889 1063,-1109 1682,-1109 1682,-889 1063,-889"/>
</g>
<!-- 4&#45;&gt;3 -->
<g id="edge12" class="edge">
<title>4&#45;&gt;3</title>
<path fill="none" stroke="grey" stroke-width="2" d="M1251.14,-887.61C1240.86,-878.25 1230.34,-868.69 1219.78,-859.08"/>
<polygon fill="grey" stroke="grey" stroke-width="2" points="1221.84,-856.22 1212.09,-852.08 1217.13,-861.4 1221.84,-856.22"/>
</g>
<!-- 5 -->
<g id="node6" class="node">
<title>5</title>
<text text-anchor="start" x="80" y="-1024.6" font-family="sans" font-weight="bold" font-size="18.00">getGENCODEannotation</text>
<text text-anchor="start" x="7.5" y="-1003" font-family="sans" font-size="10.00"> &#160;</text>
<text text-anchor="start" x="314.5" y="-982.8" font-family="sans" font-size="10.00"> </text>
<text text-anchor="start" x="318.5" y="-982.8" font-family="sans" font-weight="bold" font-size="14.00">output →</text>
<text text-anchor="start" x="388.5" y="-982.8" font-family="sans" font-size="10.00"> </text>
<text text-anchor="start" x="7.5" y="-963" font-family="monospace" font-size="10.00">{refDir}/{species}/{ref_build}_v{gencode_release}/annotation.gtf</text>
<polygon fill="#d98457" stroke="#d98457" points="1.5,-1015 1.5,-1015 399.5,-1015 399.5,-1015 1.5,-1015"/>
<polygon fill="#d98457" stroke="#d98457" points="1.5,-997 1.5,-997 399.5,-997 399.5,-997 1.5,-997"/>
<polygon fill="none" stroke="#d98457" stroke-width="2" points="1,-954 1,-1044 398,-1044 398,-954 1,-954"/>
</g>
<!-- 5&#45;&gt;3 -->
<g id="edge10" class="edge">
<title>5&#45;&gt;3</title>
<path fill="none" stroke="grey" stroke-width="2" d="M275.68,-952.74C314.26,-931.11 362.37,-906.07 407.5,-888 537.98,-835.74 688.95,-792.23 811.91,-760.87"/>
<polygon fill="grey" stroke="grey" stroke-width="2" points="813.01,-764.2 821.84,-758.35 811.28,-757.42 813.01,-764.2"/>
</g>
<!-- 6 -->
<g id="node7" class="node">
<title>6</title>
<text text-anchor="start" x="618" y="-1035.6" font-family="sans" font-weight="bold" font-size="18.00">downloadGenomeFiles</text>
<text text-anchor="start" x="424.5" y="-1011.8" font-family="sans" font-size="10.00"> </text>
<text text-anchor="start" x="428.5" y="-1011.8" font-family="sans" font-weight="bold" font-size="14.00">↪ input</text>
<text text-anchor="start" x="486.5" y="-1011.8" font-family="sans" font-size="10.00"> </text>
<text text-anchor="start" x="424.5" y="-992" font-family="monospace" font-size="10.00">.snakemake/storage/HTTP/data.broadinstitute.org/ccle/gencode.v19.genes.v7_model.patched_contigs.gtf.gz</text>
<text text-anchor="start" x="959.5" y="-971.8" font-family="sans" font-size="10.00"> </text>
<text text-anchor="start" x="963.5" y="-971.8" font-family="sans" font-weight="bold" font-size="14.00">output →</text>
<text text-anchor="start" x="1033.5" y="-971.8" font-family="sans" font-size="10.00"> </text>
<text text-anchor="start" x="424.5" y="-952" font-family="monospace" font-size="10.00">metadata/referenceGenome/gencode.v19.genes.v7_model.patched_contigs.gtf.gz</text>
<polygon fill="#576dd9" stroke="#576dd9" points="418.5,-1026 418.5,-1026 1044.5,-1026 1044.5,-1026 418.5,-1026"/>
<polygon fill="#576dd9" stroke="#576dd9" points="418.5,-986 418.5,-986 1044.5,-986 1044.5,-986 418.5,-986"/>
<polygon fill="none" stroke="#576dd9" stroke-width="2" points="418,-943 418,-1055 1043,-1055 1043,-943 418,-943"/>
</g>
<!-- 6&#45;&gt;3 -->
<g id="edge11" class="edge">
<title>6&#45;&gt;3</title>
<path fill="none" stroke="grey" stroke-width="2" d="M792.39,-941.7C818.62,-917.84 850.58,-888.77 882.98,-859.29"/>
<polygon fill="grey" stroke="grey" stroke-width="2" points="885.74,-861.52 890.78,-852.2 881.03,-856.34 885.74,-861.52"/>
</g>
<!-- 7 -->
<g id="node8" class="node">
<title>7</title>
<text text-anchor="start" x="2162" y="-741.6" font-family="sans" font-weight="bold" font-size="18.00">make_CNV_SE</text>
<text text-anchor="start" x="2084.5" y="-717.8" font-family="sans" font-size="10.00"> </text>
<text text-anchor="start" x="2088.5" y="-717.8" font-family="sans" font-weight="bold" font-size="14.00">↪ input</text>
<text text-anchor="start" x="2146.5" y="-717.8" font-family="sans" font-size="10.00"> </text>
<text text-anchor="start" x="2084.5" y="-698" font-family="monospace" font-size="10.00">rawdata/cnv/CCLE_copynumber_byGene_2013&#45;12&#45;03.txt</text>
<text text-anchor="start" x="2301.5" y="-677.8" font-family="sans" font-size="10.00"> </text>
<text text-anchor="start" x="2305.5" y="-677.8" font-family="sans" font-weight="bold" font-size="14.00">output →</text>
<text text-anchor="start" x="2375.5" y="-677.8" font-family="sans" font-size="10.00"> </text>
<text text-anchor="start" x="2084.5" y="-658" font-family="monospace" font-size="10.00">procdata/cnv/CNV_SE.RDS</text>
<polygon fill="#8fd957" stroke="#8fd957" points="2078.5,-732 2078.5,-732 2386.5,-732 2386.5,-732 2078.5,-732"/>
<polygon fill="#8fd957" stroke="#8fd957" points="2078.5,-692 2078.5,-692 2386.5,-692 2386.5,-692 2078.5,-692"/>
<polygon fill="none" stroke="#8fd957" stroke-width="2" points="2078,-649 2078,-761 2385,-761 2385,-649 2078,-649"/>
</g>
<!-- 7&#45;&gt;2 -->
<g id="edge7" class="edge">
<title>7&#45;&gt;2</title>
<path fill="none" stroke="grey" stroke-width="2" d="M2330.25,-647.96C2391.99,-612.93 2472.83,-567.06 2543.03,-527.22"/>
<polygon fill="grey" stroke="grey" stroke-width="2" points="2545.01,-530.12 2551.98,-522.14 2541.56,-524.03 2545.01,-530.12"/>
</g>
<!-- 8 -->
<g id="node9" class="node">
<title>8</title>
<text text-anchor="start" x="2002" y="-1035.6" font-family="sans" font-weight="bold" font-size="18.00">downloadCNV</text>
<text text-anchor="start" x="1708.5" y="-1011.8" font-family="sans" font-size="10.00"> </text>
<text text-anchor="start" x="1712.5" y="-1011.8" font-family="sans" font-weight="bold" font-size="14.00">↪ input</text>
<text text-anchor="start" x="1770.5" y="-1011.8" font-family="sans" font-size="10.00"> </text>
<text text-anchor="start" x="1708.5" y="-992" font-family="monospace" font-size="10.00">.snakemake/storage/http/data.broadinstitute.org/ccle_legacy_data/dna_copy_number/CCLE_copynumber_byGene_2013&#45;12&#45;03.txt.gz</text>
<text text-anchor="start" x="2357.5" y="-971.8" font-family="sans" font-size="10.00"> </text>
<text text-anchor="start" x="2361.5" y="-971.8" font-family="sans" font-weight="bold" font-size="14.00">output →</text>
<text text-anchor="start" x="2431.5" y="-971.8" font-family="sans" font-size="10.00"> </text>
<text text-anchor="start" x="1708.5" y="-952" font-family="monospace" font-size="10.00">rawdata/cnv/CCLE_copynumber_byGene_2013&#45;12&#45;03.txt</text>
<polygon fill="#a6d957" stroke="#a6d957" points="1702.5,-1026 1702.5,-1026 2442.5,-1026 2442.5,-1026 1702.5,-1026"/>
<polygon fill="#a6d957" stroke="#a6d957" points="1702.5,-986 1702.5,-986 2442.5,-986 2442.5,-986 1702.5,-986"/>
<polygon fill="none" stroke="#a6d957" stroke-width="2" points="1702,-943 1702,-1055 2441,-1055 2441,-943 1702,-943"/>
</g>
<!-- 8&#45;&gt;7 -->
<g id="edge13" class="edge">
<title>8&#45;&gt;7</title>
<path fill="none" stroke="grey" stroke-width="2" d="M2102.35,-941.7C2129.08,-892.92 2167.76,-822.33 2195.81,-771.13"/>
<polygon fill="grey" stroke="grey" stroke-width="2" points="2199.01,-772.58 2200.75,-762.13 2192.87,-769.22 2199.01,-772.58"/>
</g>
<!-- 9 -->
<g id="node10" class="node">
<title>9</title>
<text text-anchor="start" x="2605.5" y="-741.6" font-family="sans" font-weight="bold" font-size="18.00">make_Mutation_SE</text>
<text text-anchor="start" x="2572.5" y="-717.8" font-family="sans" font-size="10.00"> </text>
<text text-anchor="start" x="2576.5" y="-717.8" font-family="sans" font-weight="bold" font-size="14.00">↪ input</text>
<text text-anchor="start" x="2634.5" y="-717.8" font-family="sans" font-size="10.00"> </text>
<text text-anchor="start" x="2572.5" y="-698" font-family="monospace" font-size="10.00">procdata/mutation/preprocessedMutation.RDS</text>
<text text-anchor="start" x="2747.5" y="-677.8" font-family="sans" font-size="10.00"> </text>
<text text-anchor="start" x="2751.5" y="-677.8" font-family="sans" font-weight="bold" font-size="14.00">output →</text>
<text text-anchor="start" x="2821.5" y="-677.8" font-family="sans" font-size="10.00"> </text>
<text text-anchor="start" x="2572.5" y="-658" font-family="monospace" font-size="10.00">procdata/mutation/Mutation_SE.RDS</text>
<polygon fill="#bcd957" stroke="#bcd957" points="2566.5,-732 2566.5,-732 2832.5,-732 2832.5,-732 2566.5,-732"/>
<polygon fill="#bcd957" stroke="#bcd957" points="2566.5,-692 2566.5,-692 2832.5,-692 2832.5,-692 2566.5,-692"/>
<polygon fill="none" stroke="#bcd957" stroke-width="2" points="2566,-649 2566,-761 2831,-761 2831,-649 2566,-649"/>
</g>
<!-- 9&#45;&gt;2 -->
<g id="edge9" class="edge">
<title>9&#45;&gt;2</title>
<path fill="none" stroke="grey" stroke-width="2" d="M2698.5,-647.8C2698.5,-614.26 2698.5,-570.82 2698.5,-532.26"/>
<polygon fill="grey" stroke="grey" stroke-width="2" points="2702,-532.05 2698.5,-522.05 2695,-532.05 2702,-532.05"/>
</g>
<!-- 10 -->
<g id="node11" class="node">
<title>10</title>
<text text-anchor="start" x="2652" y="-1053.6" font-family="sans" font-weight="bold" font-size="18.00">preprocessMutation</text>
<text text-anchor="start" x="2467.5" y="-1029.8" font-family="sans" font-size="10.00"> </text>
<text text-anchor="start" x="2471.5" y="-1029.8" font-family="sans" font-weight="bold" font-size="14.00">↪ input</text>
<text text-anchor="start" x="2529.5" y="-1029.8" font-family="sans" font-size="10.00"> </text>
<text text-anchor="start" x="2467.5" y="-1010" font-family="monospace" font-size="10.00">rawdata/mutation/CCLE_Oncomap3_2012&#45;04&#45;09.maf</text>
<text text-anchor="start" x="2467.5" y="-992" font-family="monospace" font-size="10.00">rawdata/mutation/CCLE_Oncomap3_Assays_2012&#45;04&#45;09.csv</text>
<text text-anchor="start" x="2467.5" y="-974" font-family="monospace" font-size="10.00">rawdata/mutation/CCLE_hybrid_capture1650_hg19_NoCommonSNPs_NoNeutralVariants_CDS_2012.05.07.maf</text>
<text text-anchor="start" x="2960.5" y="-953.8" font-family="sans" font-size="10.00"> </text>
<text text-anchor="start" x="2964.5" y="-953.8" font-family="sans" font-weight="bold" font-size="14.00">output →</text>
<text text-anchor="start" x="3034.5" y="-953.8" font-family="sans" font-size="10.00"> </text>
<text text-anchor="start" x="2467.5" y="-934" font-family="monospace" font-size="10.00">procdata/mutation/preprocessedMutation.RDS</text>
<polygon fill="#57d979" stroke="#57d979" points="2461.5,-1044 2461.5,-1044 3045.5,-1044 3045.5,-1044 2461.5,-1044"/>
<polygon fill="#57d979" stroke="#57d979" points="2461.5,-968 2461.5,-968 3045.5,-968 3045.5,-968 2461.5,-968"/>
<polygon fill="none" stroke="#57d979" stroke-width="2" points="2461,-925 2461,-1073 3044,-1073 3044,-925 2461,-925"/>
</g>
<!-- 10&#45;&gt;9 -->
<g id="edge14" class="edge">
<title>10&#45;&gt;9</title>
<path fill="none" stroke="grey" stroke-width="2" d="M2738.8,-923.94C2730.15,-877.13 2719.06,-817.17 2710.7,-771.99"/>
<polygon fill="grey" stroke="grey" stroke-width="2" points="2714.12,-771.2 2708.86,-762 2707.23,-772.47 2714.12,-771.2"/>
</g>
<!-- 11 -->
<g id="node12" class="node">
<title>11</title>
<text text-anchor="start" x="2252.5" y="-1311.6" font-family="sans" font-weight="bold" font-size="18.00">downloadMutation</text>
<text text-anchor="start" x="1838.5" y="-1287.8" font-family="sans" font-size="10.00"> </text>
<text text-anchor="start" x="1842.5" y="-1287.8" font-family="sans" font-weight="bold" font-size="14.00">↪ input</text>
<text text-anchor="start" x="1900.5" y="-1287.8" font-family="sans" font-size="10.00"> </text>
<text text-anchor="start" x="1838.5" y="-1268" font-family="monospace" font-size="10.00">.snakemake/storage/http/data.broadinstitute.org/ccle_legacy_data/hybrid_capture_sequencing/CCLE_hybrid_capture1650_hg19_NoCommonSNPs_NoNeutralVariants_CDS_2012.05.07.maf</text>
<text text-anchor="start" x="1838.5" y="-1250" font-family="monospace" font-size="10.00">.snakemake/storage/http/data.broadinstitute.org/ccle_legacy_data/oncomap_mutations/CCLE_Oncomap3_2012&#45;04&#45;09.maf</text>
<text text-anchor="start" x="1838.5" y="-1232" font-family="monospace" font-size="10.00">.snakemake/storage/http/data.broadinstitute.org/ccle_legacy_data/oncomap_mutations/CCLE_Oncomap3_Assays_2012&#45;04&#45;09.csv</text>
<text text-anchor="start" x="2775.5" y="-1211.8" font-family="sans" font-size="10.00"> </text>
<text text-anchor="start" x="2779.5" y="-1211.8" font-family="sans" font-weight="bold" font-size="14.00">output →</text>
<text text-anchor="start" x="2849.5" y="-1211.8" font-family="sans" font-size="10.00"> </text>
<text text-anchor="start" x="1838.5" y="-1192" font-family="monospace" font-size="10.00">rawdata/mutation/CCLE_Oncomap3_2012&#45;04&#45;09.maf</text>
<text text-anchor="start" x="1838.5" y="-1174" font-family="monospace" font-size="10.00">rawdata/mutation/CCLE_Oncomap3_Assays_2012&#45;04&#45;09.csv</text>
<text text-anchor="start" x="1838.5" y="-1156" font-family="monospace" font-size="10.00">rawdata/mutation/CCLE_hybrid_capture1650_hg19_NoCommonSNPs_NoNeutralVariants_CDS_2012.05.07.maf</text>
<polygon fill="#57d962" stroke="#57d962" points="1832.5,-1302 1832.5,-1302 2860.5,-1302 2860.5,-1302 1832.5,-1302"/>
<polygon fill="#57d962" stroke="#57d962" points="1832.5,-1226 1832.5,-1226 2860.5,-1226 2860.5,-1226 1832.5,-1226"/>
<polygon fill="none" stroke="#57d962" stroke-width="2" points="1832,-1147 1832,-1331 2859,-1331 2859,-1147 1832,-1147"/>
</g>
<!-- 11&#45;&gt;10 -->
<g id="edge15" class="edge">
<title>11&#45;&gt;10</title>
<path fill="none" stroke="grey" stroke-width="2" d="M2502.86,-1145.98C2540.55,-1123.94 2580.47,-1100.6 2617.07,-1079.2"/>
<polygon fill="grey" stroke="grey" stroke-width="2" points="2618.94,-1082.16 2625.8,-1074.09 2615.4,-1076.12 2618.94,-1082.16"/>
</g>
<!-- 12 -->
<g id="node13" class="node">
<title>12</title>
<text text-anchor="start" x="2913.5" y="-741.6" font-family="sans" font-weight="bold" font-size="18.00">annotate_sampleMetadata</text>
<text text-anchor="start" x="2857.5" y="-717.8" font-family="sans" font-size="10.00"> </text>
<text text-anchor="start" x="2861.5" y="-717.8" font-family="sans" font-weight="bold" font-size="14.00">↪ input</text>
<text text-anchor="start" x="2919.5" y="-717.8" font-family="sans" font-size="10.00"> </text>
<text text-anchor="start" x="2857.5" y="-698" font-family="monospace" font-size="10.00">procdata/metadata/preprocessed_sampleMetadata.tsv</text>
<text text-anchor="start" x="3158.5" y="-677.8" font-family="sans" font-size="10.00"> </text>
<text text-anchor="start" x="3162.5" y="-677.8" font-family="sans" font-weight="bold" font-size="14.00">output →</text>
<text text-anchor="start" x="3232.5" y="-677.8" font-family="sans" font-size="10.00"> </text>
<text text-anchor="start" x="2857.5" y="-658" font-family="monospace" font-size="10.00">procdata/metadata/annotations/CCLE_sampleMetadata_annotated.tsv</text>
<polygon fill="#57b1d9" stroke="#57b1d9" points="2851.5,-732 2851.5,-732 3243.5,-732 3243.5,-732 2851.5,-732"/>
<polygon fill="#57b1d9" stroke="#57b1d9" points="2851.5,-692 2851.5,-692 3243.5,-692 3243.5,-692 2851.5,-692"/>
<polygon fill="none" stroke="#57b1d9" stroke-width="2" points="2851,-649 2851,-761 3242,-761 3242,-649 2851,-649"/>
</g>
<!-- 12&#45;&gt;1 -->
<g id="edge5" class="edge">
<title>12&#45;&gt;1</title>
<path fill="none" stroke="grey" stroke-width="2" d="M3038.06,-647.86C3029.75,-576.85 3023.11,-452.01 3060.5,-354 3064.04,-344.72 3068.62,-335.62 3073.85,-326.86"/>
<polygon fill="grey" stroke="grey" stroke-width="2" points="3076.93,-328.54 3079.29,-318.21 3071.01,-324.81 3076.93,-328.54"/>
</g>
<!-- 12&#45;&gt;2 -->
<g id="edge6" class="edge">
<title>12&#45;&gt;2</title>
<path fill="none" stroke="grey" stroke-width="2" d="M2972.7,-647.8C2927.15,-613.12 2867.71,-567.85 2815.82,-528.34"/>
<polygon fill="grey" stroke="grey" stroke-width="2" points="2817.63,-525.32 2807.56,-522.05 2813.39,-530.89 2817.63,-525.32"/>
</g>
<!-- 13 -->
<g id="node14" class="node">
<title>13</title>
<text text-anchor="start" x="3172.5" y="-1053.6" font-family="sans" font-weight="bold" font-size="18.00">preprocessMetadata</text>
<text text-anchor="start" x="3119.5" y="-1029.8" font-family="sans" font-size="10.00"> </text>
<text text-anchor="start" x="3123.5" y="-1029.8" font-family="sans" font-weight="bold" font-size="14.00">↪ input</text>
<text text-anchor="start" x="3181.5" y="-1029.8" font-family="sans" font-size="10.00"> </text>
<text text-anchor="start" x="3119.5" y="-1010" font-family="monospace" font-size="10.00">metadata/sampleAnnotation.txt</text>
<text text-anchor="start" x="3119.5" y="-992" font-family="monospace" font-size="10.00">metadata/treatmentAnnotation.csv</text>
<text text-anchor="start" x="3354.5" y="-971.8" font-family="sans" font-size="10.00"> </text>
<text text-anchor="start" x="3358.5" y="-971.8" font-family="sans" font-weight="bold" font-size="14.00">output →</text>
<text text-anchor="start" x="3428.5" y="-971.8" font-family="sans" font-size="10.00"> </text>
<text text-anchor="start" x="3119.5" y="-952" font-family="monospace" font-size="10.00">procdata/metadata/preprocessed_sampleMetadata.tsv</text>
<text text-anchor="start" x="3119.5" y="-934" font-family="monospace" font-size="10.00">procdata/metadata/preprocessed_treatmentMetadata.tsv</text>
<polygon fill="#d96d57" stroke="#d96d57" points="3113.5,-1044 3113.5,-1044 3439.5,-1044 3439.5,-1044 3113.5,-1044"/>
<polygon fill="#d96d57" stroke="#d96d57" points="3113.5,-986 3113.5,-986 3439.5,-986 3439.5,-986 3113.5,-986"/>
<polygon fill="none" stroke="#d96d57" stroke-width="2" points="3113,-925 3113,-1073 3438,-1073 3438,-925 3113,-925"/>
</g>
<!-- 13&#45;&gt;12 -->
<g id="edge16" class="edge">
<title>13&#45;&gt;12</title>
<path fill="none" stroke="grey" stroke-width="2" d="M3217.42,-923.94C3180.17,-876.44 3132.3,-815.4 3096.7,-770.01"/>
<polygon fill="grey" stroke="grey" stroke-width="2" points="3099.35,-767.71 3090.42,-762 3093.84,-772.03 3099.35,-767.71"/>
</g>
<!-- 16 -->
<g id="node17" class="node">
<title>16</title>
<text text-anchor="start" x="3324" y="-786.6" font-family="sans" font-weight="bold" font-size="18.00">build_treatmentResponseExperiment</text>
<text text-anchor="start" x="3314.5" y="-762.8" font-family="sans" font-size="10.00"> </text>
<text text-anchor="start" x="3318.5" y="-762.8" font-family="sans" font-weight="bold" font-size="14.00">↪ input</text>
<text text-anchor="start" x="3376.5" y="-762.8" font-family="sans" font-size="10.00"> </text>
<text text-anchor="start" x="3314.5" y="-743" font-family="monospace" font-size="10.00">procdata/metadata/preprocessed_sampleMetadata.tsv</text>
<text text-anchor="start" x="3314.5" y="-725" font-family="monospace" font-size="10.00">procdata/metadata/preprocessed_treatmentMetadata.tsv</text>
<text text-anchor="start" x="3314.5" y="-707" font-family="monospace" font-size="10.00">rawdata/treatmentResponse/CCLE_GNF_data_090613.xls</text>
<text text-anchor="start" x="3314.5" y="-689" font-family="monospace" font-size="10.00">rawdata/treatmentResponse/CCLE_NP24.2009_Drug_data_2015.02.24.csv</text>
<text text-anchor="start" x="3627.5" y="-668.8" font-family="sans" font-size="10.00"> </text>
<text text-anchor="start" x="3631.5" y="-668.8" font-family="sans" font-weight="bold" font-size="14.00">output →</text>
<text text-anchor="start" x="3701.5" y="-668.8" font-family="sans" font-size="10.00"> </text>
<text text-anchor="start" x="3314.5" y="-649" font-family="monospace" font-size="10.00">procdata/treatmentResponse/treatmentResponseExperiment.rds</text>
<text text-anchor="start" x="3314.5" y="-631" font-family="monospace" font-size="10.00">procdata/treatmentResponse/treatmentResponse_profiles.tsv</text>
<text text-anchor="start" x="3314.5" y="-613" font-family="monospace" font-size="10.00">procdata/treatmentResponse/treatmentResponse_raw.tsv</text>
<polygon fill="#d99b57" stroke="#d99b57" points="3308.5,-777 3308.5,-777 3712.5,-777 3712.5,-777 3308.5,-777"/>
<polygon fill="#d99b57" stroke="#d99b57" points="3308.5,-683 3308.5,-683 3712.5,-683 3712.5,-683 3308.5,-683"/>
<polygon fill="none" stroke="#d99b57" stroke-width="2" points="3308,-604 3308,-806 3711,-806 3711,-604 3308,-604"/>
</g>
<!-- 13&#45;&gt;16 -->
<g id="edge19" class="edge">
<title>13&#45;&gt;16</title>
<path fill="none" stroke="grey" stroke-width="2" d="M3334.85,-923.94C3361.22,-891.03 3392.8,-851.62 3421.81,-815.42"/>
<polygon fill="grey" stroke="grey" stroke-width="2" points="3424.83,-817.26 3428.35,-807.26 3419.37,-812.88 3424.83,-817.26"/>
</g>
<!-- 18 -->
<g id="node19" class="node">
<title>18</title>
<text text-anchor="start" x="3128" y="-474.6" font-family="sans" font-weight="bold" font-size="18.00">annotate_treatmentMetadata</text>
<text text-anchor="start" x="3077.5" y="-450.8" font-family="sans" font-size="10.00"> </text>
<text text-anchor="start" x="3081.5" y="-450.8" font-family="sans" font-weight="bold" font-size="14.00">↪ input</text>
<text text-anchor="start" x="3139.5" y="-450.8" font-family="sans" font-size="10.00"> </text>
<text text-anchor="start" x="3077.5" y="-431" font-family="monospace" font-size="10.00">procdata/metadata/preprocessed_treatmentMetadata.tsv</text>
<text text-anchor="start" x="3396.5" y="-410.8" font-family="sans" font-size="10.00"> </text>
<text text-anchor="start" x="3400.5" y="-410.8" font-family="sans" font-weight="bold" font-size="14.00">output →</text>
<text text-anchor="start" x="3470.5" y="-410.8" font-family="sans" font-size="10.00"> </text>
<text text-anchor="start" x="3077.5" y="-391" font-family="monospace" font-size="10.00">procdata/metadata/annotations/CCLE_treatmentMetadata_annotated.tsv</text>
<polygon fill="#62d957" stroke="#62d957" points="3071.5,-465 3071.5,-465 3481.5,-465 3481.5,-465 3071.5,-465"/>
<polygon fill="#62d957" stroke="#62d957" points="3071.5,-425 3071.5,-425 3481.5,-425 3481.5,-425 3071.5,-425"/>
<polygon fill="none" stroke="#62d957" stroke-width="2" points="3071,-382 3071,-494 3480,-494 3480,-382 3071,-382"/>
</g>
<!-- 13&#45;&gt;18 -->
<g id="edge21" class="edge">
<title>13&#45;&gt;18</title>
<path fill="none" stroke="grey" stroke-width="2" d="M3275.5,-923.77C3275.5,-814.12 3275.5,-610.53 3275.5,-505.5"/>
<polygon fill="grey" stroke="grey" stroke-width="2" points="3279,-505.34 3275.5,-495.34 3272,-505.34 3279,-505.34"/>
</g>
<!-- 14 -->
<g id="node15" class="node">
<title>14</title>
<text text-anchor="start" x="3829.5" y="-1275.6" font-family="sans" font-weight="bold" font-size="18.00">downloadSampleMetadata</text>
<text text-anchor="start" x="3698.5" y="-1251.8" font-family="sans" font-size="10.00"> </text>
<text text-anchor="start" x="3702.5" y="-1251.8" font-family="sans" font-weight="bold" font-size="14.00">↪ input</text>
<text text-anchor="start" x="3760.5" y="-1251.8" font-family="sans" font-size="10.00"> </text>
<text text-anchor="start" x="3698.5" y="-1232" font-family="monospace" font-size="10.00">.snakemake/storage/HTTP/data.broadinstitute.org/ccle/Cell_lines_annotations_20181226.txt</text>
<text text-anchor="start" x="4149.5" y="-1211.8" font-family="sans" font-size="10.00"> </text>
<text text-anchor="start" x="4153.5" y="-1211.8" font-family="sans" font-weight="bold" font-size="14.00">output →</text>
<text text-anchor="start" x="4223.5" y="-1211.8" font-family="sans" font-size="10.00"> </text>
<text text-anchor="start" x="3698.5" y="-1192" font-family="monospace" font-size="10.00">metadata/sampleAnnotation.txt</text>
<polygon fill="#d9c857" stroke="#d9c857" points="3692.5,-1266 3692.5,-1266 4234.5,-1266 4234.5,-1266 3692.5,-1266"/>
<polygon fill="#d9c857" stroke="#d9c857" points="3692.5,-1226 3692.5,-1226 4234.5,-1226 4234.5,-1226 3692.5,-1226"/>
<polygon fill="none" stroke="#d9c857" stroke-width="2" points="3692,-1183 3692,-1295 4233,-1295 4233,-1183 3692,-1183"/>
</g>
<!-- 14&#45;&gt;13 -->
<g id="edge17" class="edge">
<title>14&#45;&gt;13</title>
<path fill="none" stroke="grey" stroke-width="2" d="M3806.63,-1181.95C3766.25,-1168.82 3722.57,-1155.81 3681.5,-1146 3579.16,-1121.55 3545.95,-1147.15 3447.5,-1110 3426.41,-1102.04 3405.19,-1091.25 3385.2,-1079.52"/>
<polygon fill="grey" stroke="grey" stroke-width="2" points="3386.78,-1076.4 3376.41,-1074.26 3383.19,-1082.4 3386.78,-1076.4"/>
</g>
<!-- 15 -->
<g id="node16" class="node">
<title>15</title>
<text text-anchor="start" x="3128" y="-1275.6" font-family="sans" font-weight="bold" font-size="18.00">downloadTreatmentMetadata</text>
<text text-anchor="start" x="2885.5" y="-1251.8" font-family="sans" font-size="10.00"> </text>
<text text-anchor="start" x="2889.5" y="-1251.8" font-family="sans" font-weight="bold" font-size="14.00">↪ input</text>
<text text-anchor="start" x="2947.5" y="-1251.8" font-family="sans" font-size="10.00"> </text>
<text text-anchor="start" x="2885.5" y="-1232" font-family="monospace" font-size="10.00">.snakemake/storage/HTTP/data.broadinstitute.org/ccle_legacy_data/pharmacological_profiling/CCLE_NP24.2009_profiling_2012.02.20.csv</text>
<text text-anchor="start" x="3588.5" y="-1211.8" font-family="sans" font-size="10.00"> </text>
<text text-anchor="start" x="3592.5" y="-1211.8" font-family="sans" font-weight="bold" font-size="14.00">output →</text>
<text text-anchor="start" x="3662.5" y="-1211.8" font-family="sans" font-size="10.00"> </text>
<text text-anchor="start" x="2885.5" y="-1192" font-family="monospace" font-size="10.00">metadata/treatmentAnnotation.csv</text>
<polygon fill="#d3d957" stroke="#d3d957" points="2879.5,-1266 2879.5,-1266 3673.5,-1266 3673.5,-1266 2879.5,-1266"/>
<polygon fill="#d3d957" stroke="#d3d957" points="2879.5,-1226 2879.5,-1226 3673.5,-1226 3673.5,-1226 2879.5,-1226"/>
<polygon fill="none" stroke="#d3d957" stroke-width="2" points="2879,-1183 2879,-1295 3672,-1295 3672,-1183 2879,-1183"/>
</g>
<!-- 15&#45;&gt;13 -->
<g id="edge18" class="edge">
<title>15&#45;&gt;13</title>
<path fill="none" stroke="grey" stroke-width="2" d="M3275.5,-1181.9C3275.5,-1152.88 3275.5,-1116.86 3275.5,-1084.55"/>
<polygon fill="grey" stroke="grey" stroke-width="2" points="3279,-1084.2 3275.5,-1074.2 3272,-1084.2 3279,-1084.2"/>
</g>
<!-- 16&#45;&gt;1 -->
<g id="edge4" class="edge">
<title>16&#45;&gt;1</title>
<path fill="none" stroke="grey" stroke-width="2" d="M3531.37,-602.75C3541.71,-526.9 3542.12,-424.47 3489.5,-354 3460.85,-315.63 3418.69,-289.6 3373.99,-271.95"/>
<polygon fill="grey" stroke="grey" stroke-width="2" points="3375,-268.59 3364.41,-268.31 3372.52,-275.13 3375,-268.59"/>
</g>
<!-- 17 -->
<g id="node18" class="node">
<title>17</title>
<text text-anchor="start" x="3703" y="-1053.6" font-family="sans" font-weight="bold" font-size="18.00">download_treatmentResponse</text>
<text text-anchor="start" x="3464.5" y="-1029.8" font-family="sans" font-size="10.00"> </text>
<text text-anchor="start" x="3468.5" y="-1029.8" font-family="sans" font-weight="bold" font-size="14.00">↪ input</text>
<text text-anchor="start" x="3526.5" y="-1029.8" font-family="sans" font-size="10.00"> </text>
<text text-anchor="start" x="3464.5" y="-1010" font-family="monospace" font-size="10.00">.snakemake/storage/HTTP/data.broadinstitute.org/ccle_legacy_data/pharmacological_profiling/CCLE_GNF_data_090613.xls</text>
<text text-anchor="start" x="3464.5" y="-992" font-family="monospace" font-size="10.00">.snakemake/storage/HTTP/data.broadinstitute.org/ccle_legacy_data/pharmacological_profiling/CCLE_NP24.2009_Drug_data_2015.02.24.csv</text>
<text text-anchor="start" x="4167.5" y="-971.8" font-family="sans" font-size="10.00"> </text>
<text text-anchor="start" x="4171.5" y="-971.8" font-family="sans" font-weight="bold" font-size="14.00">output →</text>
<text text-anchor="start" x="4241.5" y="-971.8" font-family="sans" font-size="10.00"> </text>
<text text-anchor="start" x="3464.5" y="-952" font-family="monospace" font-size="10.00">rawdata/treatmentResponse/CCLE_GNF_data_090613.xls</text>
<text text-anchor="start" x="3464.5" y="-934" font-family="monospace" font-size="10.00">rawdata/treatmentResponse/CCLE_NP24.2009_Drug_data_2015.02.24.csv</text>
<polygon fill="#57d9a6" stroke="#57d9a6" points="3458.5,-1044 3458.5,-1044 4252.5,-1044 4252.5,-1044 3458.5,-1044"/>
<polygon fill="#57d9a6" stroke="#57d9a6" points="3458.5,-986 3458.5,-986 4252.5,-986 4252.5,-986 3458.5,-986"/>
<polygon fill="none" stroke="#57d9a6" stroke-width="2" points="3458,-925 3458,-1073 4251,-1073 4251,-925 3458,-925"/>
</g>
<!-- 17&#45;&gt;16 -->
<g id="edge20" class="edge">
<title>17&#45;&gt;16</title>
<path fill="none" stroke="grey" stroke-width="2" d="M3767,-923.94C3727.54,-890.55 3680.18,-850.46 3636.89,-813.82"/>
<polygon fill="grey" stroke="grey" stroke-width="2" points="3639.04,-811.05 3629.14,-807.26 3634.52,-816.4 3639.04,-811.05"/>
</g>
<!-- 18&#45;&gt;1 -->
<g id="edge2" class="edge">
<title>18&#45;&gt;1</title>
<path fill="none" stroke="grey" stroke-width="2" d="M3243.06,-381C3233.42,-364.34 3222.58,-345.63 3211.97,-327.31"/>
<polygon fill="grey" stroke="grey" stroke-width="2" points="3214.82,-325.25 3206.78,-318.36 3208.76,-328.76 3214.82,-325.25"/>
</g>
</g>
</svg>
