<?xml version="1.0" encoding="UTF-8" standalone="no"?>
<!DOCTYPE svg PUBLIC "-//W3C//DTD SVG 1.1//EN"
 "http://www.w3.org/Graphics/SVG/1.1/DTD/svg11.dtd">
<!-- Generated by graphviz version 2.43.0 (0)
 -->
<!-- Title: snakemake_dag Pages: 1 -->
<svg width="1178pt" height="404pt"
 viewBox="0.00 0.00 1177.50 404.00" xmlns="http://www.w3.org/2000/svg" xmlns:xlink="http://www.w3.org/1999/xlink">
<g id="graph0" class="graph" transform="scale(1 1) rotate(0) translate(4 400)">
<title>snakemake_dag</title>
<polygon fill="white" stroke="transparent" points="-4,4 -4,-400 1173.5,-400 1173.5,4 -4,4"/>
<!-- 0 -->
<g id="node1" class="node">
<title>0</title>
<path fill="none" stroke="#d88556" stroke-width="2" d="M835,-36C835,-36 805,-36 805,-36 799,-36 793,-30 793,-24 793,-24 793,-12 793,-12 793,-6 799,0 805,0 805,0 835,0 835,0 841,0 847,-6 847,-12 847,-12 847,-24 847,-24 847,-30 841,-36 835,-36"/>
<text text-anchor="middle" x="820" y="-15.5" font-family="sans" font-size="10.00">all</text>
</g>
<!-- 1 -->
<g id="node2" class="node">
<title>1</title>
<path fill="none" stroke="#d8b456" stroke-width="2" d="M863,-108C863,-108 777,-108 777,-108 771,-108 765,-102 765,-96 765,-96 765,-84 765,-84 765,-78 771,-72 777,-72 777,-72 863,-72 863,-72 869,-72 875,-78 875,-84 875,-84 875,-96 875,-96 875,-102 869,-108 863,-108"/>
<text text-anchor="middle" x="820" y="-87.5" font-family="sans" font-size="10.00">build_PharmacoSet</text>
</g>
<!-- 1&#45;&gt;0 -->
<g id="edge1" class="edge">
<title>1&#45;&gt;0</title>
<path fill="none" stroke="grey" stroke-width="2" d="M820,-71.7C820,-63.98 820,-54.71 820,-46.11"/>
<polygon fill="grey" stroke="grey" stroke-width="2" points="823.5,-46.1 820,-36.1 816.5,-46.1 823.5,-46.1"/>
</g>
<!-- 2 -->
<g id="node3" class="node">
<title>2</title>
<path fill="none" stroke="#d89c56" stroke-width="2" d="M652,-180C652,-180 520,-180 520,-180 514,-180 508,-174 508,-168 508,-168 508,-156 508,-156 508,-150 514,-144 520,-144 520,-144 652,-144 652,-144 658,-144 664,-150 664,-156 664,-156 664,-168 664,-168 664,-174 658,-180 652,-180"/>
<text text-anchor="middle" x="586" y="-159.5" font-family="sans" font-size="10.00">build_MultiAssayExperiment</text>
</g>
<!-- 2&#45;&gt;1 -->
<g id="edge3" class="edge">
<title>2&#45;&gt;1</title>
<path fill="none" stroke="grey" stroke-width="2" d="M642.94,-143.97C676.83,-133.83 719.93,-120.94 755.12,-110.41"/>
<polygon fill="grey" stroke="grey" stroke-width="2" points="756.24,-113.73 764.82,-107.51 754.24,-107.02 756.24,-113.73"/>
</g>
<!-- 3 -->
<g id="node4" class="node">
<title>3</title>
<path fill="none" stroke="#ced856" stroke-width="2" d="M311.5,-252C311.5,-252 228.5,-252 228.5,-252 222.5,-252 216.5,-246 216.5,-240 216.5,-240 216.5,-228 216.5,-228 216.5,-222 222.5,-216 228.5,-216 228.5,-216 311.5,-216 311.5,-216 317.5,-216 323.5,-222 323.5,-228 323.5,-228 323.5,-240 323.5,-240 323.5,-246 317.5,-252 311.5,-252"/>
<text text-anchor="middle" x="270" y="-231.5" font-family="sans" font-size="10.00">make_RNASEQ_SE</text>
</g>
<!-- 3&#45;&gt;2 -->
<g id="edge9" class="edge">
<title>3&#45;&gt;2</title>
<path fill="none" stroke="grey" stroke-width="2" d="M323.61,-221.13C371.61,-210.49 442.89,-194.7 499.05,-182.26"/>
<polygon fill="grey" stroke="grey" stroke-width="2" points="499.99,-185.64 508.99,-180.06 498.47,-178.8 499.99,-185.64"/>
</g>
<!-- 4 -->
<g id="node5" class="node">
<title>4</title>
<path fill="none" stroke="#566bd8" stroke-width="2" d="M98,-324C98,-324 12,-324 12,-324 6,-324 0,-318 0,-312 0,-312 0,-300 0,-300 0,-294 6,-288 12,-288 12,-288 98,-288 98,-288 104,-288 110,-294 110,-300 110,-300 110,-312 110,-312 110,-318 104,-324 98,-324"/>
<text text-anchor="middle" x="55" y="-303.5" font-family="sans" font-size="10.00">download_RNASEQ</text>
</g>
<!-- 4&#45;&gt;3 -->
<g id="edge12" class="edge">
<title>4&#45;&gt;3</title>
<path fill="none" stroke="grey" stroke-width="2" d="M107.32,-287.97C137.62,-278.1 175.95,-265.62 207.79,-255.25"/>
<polygon fill="grey" stroke="grey" stroke-width="2" points="209.02,-258.53 217.45,-252.11 206.85,-251.88 209.02,-258.53"/>
</g>
<!-- 5 -->
<g id="node6" class="node">
<title>5</title>
<path fill="none" stroke="#9fd856" stroke-width="2" d="M250,-324C250,-324 140,-324 140,-324 134,-324 128,-318 128,-312 128,-312 128,-300 128,-300 128,-294 134,-288 140,-288 140,-288 250,-288 250,-288 256,-288 262,-294 262,-300 262,-300 262,-312 262,-312 262,-318 256,-324 250,-324"/>
<text text-anchor="middle" x="195" y="-303.5" font-family="sans" font-size="10.00">getGENCODEannotation</text>
</g>
<!-- 5&#45;&gt;3 -->
<g id="edge11" class="edge">
<title>5&#45;&gt;3</title>
<path fill="none" stroke="grey" stroke-width="2" d="M213.54,-287.7C222.8,-279.05 234.16,-268.45 244.26,-259.03"/>
<polygon fill="grey" stroke="grey" stroke-width="2" points="246.75,-261.49 251.67,-252.1 241.98,-256.37 246.75,-261.49"/>
</g>
<!-- 6 -->
<g id="node7" class="node">
<title>6</title>
<path fill="none" stroke="#70d856" stroke-width="2" d="M396,-324C396,-324 292,-324 292,-324 286,-324 280,-318 280,-312 280,-312 280,-300 280,-300 280,-294 286,-288 292,-288 292,-288 396,-288 396,-288 402,-288 408,-294 408,-300 408,-300 408,-312 408,-312 408,-318 402,-324 396,-324"/>
<text text-anchor="middle" x="344" y="-303.5" font-family="sans" font-size="10.00">downloadGenomeFiles</text>
</g>
<!-- 6&#45;&gt;3 -->
<g id="edge10" class="edge">
<title>6&#45;&gt;3</title>
<path fill="none" stroke="grey" stroke-width="2" d="M325.71,-287.7C316.57,-279.05 305.36,-268.45 295.4,-259.03"/>
<polygon fill="grey" stroke="grey" stroke-width="2" points="297.75,-256.43 288.08,-252.1 292.94,-261.52 297.75,-256.43"/>
</g>
<!-- 7 -->
<g id="node8" class="node">
<title>7</title>
<path fill="none" stroke="#d85656" stroke-width="2" d="M500.5,-252C500.5,-252 437.5,-252 437.5,-252 431.5,-252 425.5,-246 425.5,-240 425.5,-240 425.5,-228 425.5,-228 425.5,-222 431.5,-216 437.5,-216 437.5,-216 500.5,-216 500.5,-216 506.5,-216 512.5,-222 512.5,-228 512.5,-228 512.5,-240 512.5,-240 512.5,-246 506.5,-252 500.5,-252"/>
<text text-anchor="middle" x="469" y="-231.5" font-family="sans" font-size="10.00">make_CNV_SE</text>
</g>
<!-- 7&#45;&gt;2 -->
<g id="edge8" class="edge">
<title>7&#45;&gt;2</title>
<path fill="none" stroke="grey" stroke-width="2" d="M497.62,-215.88C512.92,-206.72 531.94,-195.34 548.42,-185.48"/>
<polygon fill="grey" stroke="grey" stroke-width="2" points="550.48,-188.33 557.27,-180.19 546.89,-182.32 550.48,-188.33"/>
</g>
<!-- 8 -->
<g id="node9" class="node">
<title>8</title>
<path fill="none" stroke="#5682d8" stroke-width="2" d="M499.5,-324C499.5,-324 438.5,-324 438.5,-324 432.5,-324 426.5,-318 426.5,-312 426.5,-312 426.5,-300 426.5,-300 426.5,-294 432.5,-288 438.5,-288 438.5,-288 499.5,-288 499.5,-288 505.5,-288 511.5,-294 511.5,-300 511.5,-300 511.5,-312 511.5,-312 511.5,-318 505.5,-324 499.5,-324"/>
<text text-anchor="middle" x="469" y="-303.5" font-family="sans" font-size="10.00">downloadCNV</text>
</g>
<!-- 8&#45;&gt;7 -->
<g id="edge13" class="edge">
<title>8&#45;&gt;7</title>
<path fill="none" stroke="grey" stroke-width="2" d="M469,-287.7C469,-279.98 469,-270.71 469,-262.11"/>
<polygon fill="grey" stroke="grey" stroke-width="2" points="472.5,-262.1 469,-252.1 465.5,-262.1 472.5,-262.1"/>
</g>
<!-- 9 -->
<g id="node10" class="node">
<title>9</title>
<path fill="none" stroke="#56d8c9" stroke-width="2" d="M629,-252C629,-252 543,-252 543,-252 537,-252 531,-246 531,-240 531,-240 531,-228 531,-228 531,-222 537,-216 543,-216 543,-216 629,-216 629,-216 635,-216 641,-222 641,-228 641,-228 641,-240 641,-240 641,-246 635,-252 629,-252"/>
<text text-anchor="middle" x="586" y="-231.5" font-family="sans" font-size="10.00">make_Mutation_SE</text>
</g>
<!-- 9&#45;&gt;2 -->
<g id="edge7" class="edge">
<title>9&#45;&gt;2</title>
<path fill="none" stroke="grey" stroke-width="2" d="M586,-215.7C586,-207.98 586,-198.71 586,-190.11"/>
<polygon fill="grey" stroke="grey" stroke-width="2" points="589.5,-190.1 586,-180.1 582.5,-190.1 589.5,-190.1"/>
</g>
<!-- 10 -->
<g id="node11" class="node">
<title>10</title>
<path fill="none" stroke="#569ad8" stroke-width="2" d="M630.5,-324C630.5,-324 541.5,-324 541.5,-324 535.5,-324 529.5,-318 529.5,-312 529.5,-312 529.5,-300 529.5,-300 529.5,-294 535.5,-288 541.5,-288 541.5,-288 630.5,-288 630.5,-288 636.5,-288 642.5,-294 642.5,-300 642.5,-300 642.5,-312 642.5,-312 642.5,-318 636.5,-324 630.5,-324"/>
<text text-anchor="middle" x="586" y="-303.5" font-family="sans" font-size="10.00">preprocessMutation</text>
</g>
<!-- 10&#45;&gt;9 -->
<g id="edge14" class="edge">
<title>10&#45;&gt;9</title>
<path fill="none" stroke="grey" stroke-width="2" d="M586,-287.7C586,-279.98 586,-270.71 586,-262.11"/>
<polygon fill="grey" stroke="grey" stroke-width="2" points="589.5,-262.1 586,-252.1 582.5,-262.1 589.5,-262.1"/>
</g>
<!-- 11 -->
<g id="node12" class="node">
<title>11</title>
<path fill="none" stroke="#56d882" stroke-width="2" d="M627.5,-396C627.5,-396 544.5,-396 544.5,-396 538.5,-396 532.5,-390 532.5,-384 532.5,-384 532.5,-372 532.5,-372 532.5,-366 538.5,-360 544.5,-360 544.5,-360 627.5,-360 627.5,-360 633.5,-360 639.5,-366 639.5,-372 639.5,-372 639.5,-384 639.5,-384 639.5,-390 633.5,-396 627.5,-396"/>
<text text-anchor="middle" x="586" y="-375.5" font-family="sans" font-size="10.00">downloadMutation</text>
</g>
<!-- 11&#45;&gt;10 -->
<g id="edge15" class="edge">
<title>11&#45;&gt;10</title>
<path fill="none" stroke="grey" stroke-width="2" d="M586,-359.7C586,-351.98 586,-342.71 586,-334.11"/>
<polygon fill="grey" stroke="grey" stroke-width="2" points="589.5,-334.1 586,-324.1 582.5,-334.1 589.5,-334.1"/>
</g>
<!-- 12 -->
<g id="node13" class="node">
<title>12</title>
<path fill="none" stroke="#56b1d8" stroke-width="2" d="M795,-252C795,-252 671,-252 671,-252 665,-252 659,-246 659,-240 659,-240 659,-228 659,-228 659,-222 665,-216 671,-216 671,-216 795,-216 795,-216 801,-216 807,-222 807,-228 807,-228 807,-240 807,-240 807,-246 801,-252 795,-252"/>
<text text-anchor="middle" x="733" y="-231.5" font-family="sans" font-size="10.00">annotate_sampleMetadata</text>
</g>
<!-- 12&#45;&gt;1 -->
<g id="edge5" class="edge">
<title>12&#45;&gt;1</title>
<path fill="none" stroke="grey" stroke-width="2" d="M743.49,-215.87C758.58,-191.24 786.52,-145.64 804.14,-116.88"/>
<polygon fill="grey" stroke="grey" stroke-width="2" points="807.23,-118.54 809.47,-108.19 801.26,-114.89 807.23,-118.54"/>
</g>
<!-- 12&#45;&gt;2 -->
<g id="edge6" class="edge">
<title>12&#45;&gt;2</title>
<path fill="none" stroke="grey" stroke-width="2" d="M697.04,-215.88C677.12,-206.39 652.18,-194.51 630.98,-184.42"/>
<polygon fill="grey" stroke="grey" stroke-width="2" points="632.38,-181.21 621.84,-180.07 629.37,-187.53 632.38,-181.21"/>
</g>
<!-- 16 -->
<g id="node17" class="node">
<title>16</title>
<path fill="none" stroke="#56c9d8" stroke-width="2" d="M983,-180C983,-180 809,-180 809,-180 803,-180 797,-174 797,-168 797,-168 797,-156 797,-156 797,-150 803,-144 809,-144 809,-144 983,-144 983,-144 989,-144 995,-150 995,-156 995,-156 995,-168 995,-168 995,-174 989,-180 983,-180"/>
<text text-anchor="middle" x="896" y="-159.5" font-family="sans" font-size="10.00">build_treatmentResponseExperiment</text>
</g>
<!-- 12&#45;&gt;16 -->
<g id="edge21" class="edge">
<title>12&#45;&gt;16</title>
<path fill="none" stroke="grey" stroke-width="2" d="M772.87,-215.88C795.16,-206.31 823.12,-194.3 846.76,-184.15"/>
<polygon fill="grey" stroke="grey" stroke-width="2" points="848.45,-187.23 856.26,-180.07 845.69,-180.8 848.45,-187.23"/>
</g>
<!-- 13 -->
<g id="node14" class="node">
<title>13</title>
<path fill="none" stroke="#56d86b" stroke-width="2" d="M959,-324C959,-324 867,-324 867,-324 861,-324 855,-318 855,-312 855,-312 855,-300 855,-300 855,-294 861,-288 867,-288 867,-288 959,-288 959,-288 965,-288 971,-294 971,-300 971,-300 971,-312 971,-312 971,-318 965,-324 959,-324"/>
<text text-anchor="middle" x="913" y="-303.5" font-family="sans" font-size="10.00">preprocessMetadata</text>
</g>
<!-- 13&#45;&gt;12 -->
<g id="edge16" class="edge">
<title>13&#45;&gt;12</title>
<path fill="none" stroke="grey" stroke-width="2" d="M868.97,-287.88C844.03,-278.18 812.66,-265.98 786.34,-255.74"/>
<polygon fill="grey" stroke="grey" stroke-width="2" points="787.48,-252.43 776.89,-252.07 784.94,-258.95 787.48,-252.43"/>
</g>
<!-- 18 -->
<g id="node19" class="node">
<title>18</title>
<path fill="none" stroke="#56d89a" stroke-width="2" d="M1157.5,-252C1157.5,-252 1020.5,-252 1020.5,-252 1014.5,-252 1008.5,-246 1008.5,-240 1008.5,-240 1008.5,-228 1008.5,-228 1008.5,-222 1014.5,-216 1020.5,-216 1020.5,-216 1157.5,-216 1157.5,-216 1163.5,-216 1169.5,-222 1169.5,-228 1169.5,-228 1169.5,-240 1169.5,-240 1169.5,-246 1163.5,-252 1157.5,-252"/>
<text text-anchor="middle" x="1089" y="-231.5" font-family="sans" font-size="10.00">annotate_treatmentMetadata</text>
</g>
<!-- 13&#45;&gt;18 -->
<g id="edge22" class="edge">
<title>13&#45;&gt;18</title>
<path fill="none" stroke="grey" stroke-width="2" d="M956.05,-287.88C980.33,-278.22 1010.84,-266.09 1036.51,-255.88"/>
<polygon fill="grey" stroke="grey" stroke-width="2" points="1038.09,-259.02 1046.09,-252.07 1035.5,-252.51 1038.09,-259.02"/>
</g>
<!-- 14 -->
<g id="node15" class="node">
<title>14</title>
<path fill="none" stroke="#d86e56" stroke-width="2" d="M1060.5,-396C1060.5,-396 937.5,-396 937.5,-396 931.5,-396 925.5,-390 925.5,-384 925.5,-384 925.5,-372 925.5,-372 925.5,-366 931.5,-360 937.5,-360 937.5,-360 1060.5,-360 1060.5,-360 1066.5,-360 1072.5,-366 1072.5,-372 1072.5,-372 1072.5,-384 1072.5,-384 1072.5,-390 1066.5,-396 1060.5,-396"/>
<text text-anchor="middle" x="999" y="-375.5" font-family="sans" font-size="10.00">downloadSampleMetadata</text>
</g>
<!-- 14&#45;&gt;13 -->
<g id="edge18" class="edge">
<title>14&#45;&gt;13</title>
<path fill="none" stroke="grey" stroke-width="2" d="M977.74,-359.7C966.91,-350.88 953.58,-340.03 941.84,-330.47"/>
<polygon fill="grey" stroke="grey" stroke-width="2" points="943.98,-327.7 934.01,-324.1 939.56,-333.13 943.98,-327.7"/>
</g>
<!-- 15 -->
<g id="node16" class="node">
<title>15</title>
<path fill="none" stroke="#88d856" stroke-width="2" d="M895,-396C895,-396 759,-396 759,-396 753,-396 747,-390 747,-384 747,-384 747,-372 747,-372 747,-366 753,-360 759,-360 759,-360 895,-360 895,-360 901,-360 907,-366 907,-372 907,-372 907,-384 907,-384 907,-390 901,-396 895,-396"/>
<text text-anchor="middle" x="827" y="-375.5" font-family="sans" font-size="10.00">downloadTreatmentMetadata</text>
</g>
<!-- 15&#45;&gt;13 -->
<g id="edge17" class="edge">
<title>15&#45;&gt;13</title>
<path fill="none" stroke="grey" stroke-width="2" d="M848.26,-359.7C859.09,-350.88 872.42,-340.03 884.16,-330.47"/>
<polygon fill="grey" stroke="grey" stroke-width="2" points="886.44,-333.13 891.99,-324.1 882.02,-327.7 886.44,-333.13"/>
</g>
<!-- 16&#45;&gt;1 -->
<g id="edge2" class="edge">
<title>16&#45;&gt;1</title>
<path fill="none" stroke="grey" stroke-width="2" d="M877.21,-143.7C867.83,-135.05 856.32,-124.45 846.09,-115.03"/>
<polygon fill="grey" stroke="grey" stroke-width="2" points="848.3,-112.3 838.57,-108.1 843.55,-117.45 848.3,-112.3"/>
</g>
<!-- 17 -->
<g id="node18" class="node">
<title>17</title>
<path fill="none" stroke="#59d856" stroke-width="2" d="M978.5,-252C978.5,-252 837.5,-252 837.5,-252 831.5,-252 825.5,-246 825.5,-240 825.5,-240 825.5,-228 825.5,-228 825.5,-222 831.5,-216 837.5,-216 837.5,-216 978.5,-216 978.5,-216 984.5,-216 990.5,-222 990.5,-228 990.5,-228 990.5,-240 990.5,-240 990.5,-246 984.5,-252 978.5,-252"/>
<text text-anchor="middle" x="908" y="-231.5" font-family="sans" font-size="10.00">download_treatmentResponse</text>
</g>
<!-- 17&#45;&gt;16 -->
<g id="edge20" class="edge">
<title>17&#45;&gt;16</title>
<path fill="none" stroke="grey" stroke-width="2" d="M905.03,-215.7C903.71,-207.98 902.12,-198.71 900.65,-190.11"/>
<polygon fill="grey" stroke="grey" stroke-width="2" points="904.07,-189.37 898.93,-180.1 897.17,-190.55 904.07,-189.37"/>
</g>
<!-- 18&#45;&gt;1 -->
<g id="edge4" class="edge">
<title>18&#45;&gt;1</title>
<path fill="none" stroke="grey" stroke-width="2" d="M1077.19,-215.99C1062.36,-195.89 1035.07,-162.81 1004,-144 967.87,-122.12 922.28,-108.91 885.52,-101.14"/>
<polygon fill="grey" stroke="grey" stroke-width="2" points="885.9,-97.65 875.4,-99.1 884.51,-104.51 885.9,-97.65"/>
</g>
<!-- 18&#45;&gt;16 -->
<g id="edge19" class="edge">
<title>18&#45;&gt;16</title>
<path fill="none" stroke="grey" stroke-width="2" d="M1041.79,-215.88C1014.93,-206.14 981.12,-193.87 952.82,-183.61"/>
<polygon fill="grey" stroke="grey" stroke-width="2" points="953.65,-180.19 943.06,-180.07 951.27,-186.77 953.65,-180.19"/>
</g>
</g>
</svg>
