<?xml version="1.0" encoding="UTF-8" standalone="no"?>
<!DOCTYPE svg PUBLIC "-//W3C//DTD SVG 1.1//EN"
 "http://www.w3.org/Graphics/SVG/1.1/DTD/svg11.dtd">
<!-- Generated by graphviz version 2.43.0 (0)
 -->
<!-- Title: snakemake_dag Pages: 1 -->
<svg width="1069pt" height="404pt"
 viewBox="0.00 0.00 1069.00 404.00" xmlns="http://www.w3.org/2000/svg" xmlns:xlink="http://www.w3.org/1999/xlink">
<g id="graph0" class="graph" transform="scale(1 1) rotate(0) translate(4 400)">
<title>snakemake_dag</title>
<polygon fill="white" stroke="transparent" points="-4,4 -4,-400 1065,-400 1065,4 -4,4"/>
<!-- 0 -->
<g id="node1" class="node">
<title>0</title>
<path fill="none" stroke="#56d892" stroke-width="2" d="M798,-36C798,-36 768,-36 768,-36 762,-36 756,-30 756,-24 756,-24 756,-12 756,-12 756,-6 762,0 768,0 768,0 798,0 798,0 804,0 810,-6 810,-12 810,-12 810,-24 810,-24 810,-30 804,-36 798,-36"/>
<text text-anchor="middle" x="783" y="-15.5" font-family="sans" font-size="10.00">all</text>
</g>
<!-- 1 -->
<g id="node2" class="node">
<title>1</title>
<path fill="none" stroke="#566bd8" stroke-width="2" d="M826,-108C826,-108 740,-108 740,-108 734,-108 728,-102 728,-96 728,-96 728,-84 728,-84 728,-78 734,-72 740,-72 740,-72 826,-72 826,-72 832,-72 838,-78 838,-84 838,-84 838,-96 838,-96 838,-102 832,-108 826,-108"/>
<text text-anchor="middle" x="783" y="-87.5" font-family="sans" font-size="10.00">build_PharmacoSet</text>
</g>
<!-- 1&#45;&gt;0 -->
<g id="edge1" class="edge">
<title>1&#45;&gt;0</title>
<path fill="none" stroke="grey" stroke-width="2" d="M783,-71.7C783,-63.98 783,-54.71 783,-46.11"/>
<polygon fill="grey" stroke="grey" stroke-width="2" points="786.5,-46.1 783,-36.1 779.5,-46.1 786.5,-46.1"/>
</g>
<!-- 2 -->
<g id="node3" class="node">
<title>2</title>
<path fill="none" stroke="#d88556" stroke-width="2" d="M652,-180C652,-180 520,-180 520,-180 514,-180 508,-174 508,-168 508,-168 508,-156 508,-156 508,-150 514,-144 520,-144 520,-144 652,-144 652,-144 658,-144 664,-150 664,-156 664,-156 664,-168 664,-168 664,-174 658,-180 652,-180"/>
<text text-anchor="middle" x="586" y="-159.5" font-family="sans" font-size="10.00">build_MultiAssayExperiment</text>
</g>
<!-- 2&#45;&gt;1 -->
<g id="edge2" class="edge">
<title>2&#45;&gt;1</title>
<path fill="none" stroke="grey" stroke-width="2" d="M633.94,-143.97C661.47,-134.19 696.22,-121.84 725.24,-111.52"/>
<polygon fill="grey" stroke="grey" stroke-width="2" points="726.59,-114.76 734.85,-108.11 724.25,-108.16 726.59,-114.76"/>
</g>
<!-- 3 -->
<g id="node4" class="node">
<title>3</title>
<path fill="none" stroke="#d6d856" stroke-width="2" d="M326.5,-252C326.5,-252 243.5,-252 243.5,-252 237.5,-252 231.5,-246 231.5,-240 231.5,-240 231.5,-228 231.5,-228 231.5,-222 237.5,-216 243.5,-216 243.5,-216 326.5,-216 326.5,-216 332.5,-216 338.5,-222 338.5,-228 338.5,-228 338.5,-240 338.5,-240 338.5,-246 332.5,-252 326.5,-252"/>
<text text-anchor="middle" x="285" y="-231.5" font-family="sans" font-size="10.00">make_RNASEQ_SE</text>
</g>
<!-- 3&#45;&gt;2 -->
<g id="edge9" class="edge">
<title>3&#45;&gt;2</title>
<path fill="none" stroke="grey" stroke-width="2" d="M338.81,-220.49C384.41,-209.88 450.53,-194.51 502.91,-182.32"/>
<polygon fill="grey" stroke="grey" stroke-width="2" points="503.92,-185.68 512.86,-180.01 502.33,-178.86 503.92,-185.68"/>
</g>
<!-- 4 -->
<g id="node5" class="node">
<title>4</title>
<path fill="none" stroke="#56d87b" stroke-width="2" d="M396,-324C396,-324 310,-324 310,-324 304,-324 298,-318 298,-312 298,-312 298,-300 298,-300 298,-294 304,-288 310,-288 310,-288 396,-288 396,-288 402,-288 408,-294 408,-300 408,-300 408,-312 408,-312 408,-318 402,-324 396,-324"/>
<text text-anchor="middle" x="353" y="-303.5" font-family="sans" font-size="10.00">download_RNASEQ</text>
</g>
<!-- 4&#45;&gt;3 -->
<g id="edge12" class="edge">
<title>4&#45;&gt;3</title>
<path fill="none" stroke="grey" stroke-width="2" d="M336.19,-287.7C327.87,-279.14 317.69,-268.66 308.61,-259.3"/>
<polygon fill="grey" stroke="grey" stroke-width="2" points="311.09,-256.84 301.62,-252.1 306.07,-261.72 311.09,-256.84"/>
</g>
<!-- 5 -->
<g id="node6" class="node">
<title>5</title>
<path fill="none" stroke="#d85656" stroke-width="2" d="M122,-324C122,-324 12,-324 12,-324 6,-324 0,-318 0,-312 0,-312 0,-300 0,-300 0,-294 6,-288 12,-288 12,-288 122,-288 122,-288 128,-288 134,-294 134,-300 134,-300 134,-312 134,-312 134,-318 128,-324 122,-324"/>
<text text-anchor="middle" x="67" y="-303.5" font-family="sans" font-size="10.00">getGENCODEannotation</text>
</g>
<!-- 5&#45;&gt;3 -->
<g id="edge11" class="edge">
<title>5&#45;&gt;3</title>
<path fill="none" stroke="grey" stroke-width="2" d="M120.05,-287.97C150.77,-278.1 189.64,-265.62 221.92,-255.25"/>
<polygon fill="grey" stroke="grey" stroke-width="2" points="223.26,-258.5 231.71,-252.11 221.12,-251.84 223.26,-258.5"/>
</g>
<!-- 6 -->
<g id="node7" class="node">
<title>6</title>
<path fill="none" stroke="#78d856" stroke-width="2" d="M268,-324C268,-324 164,-324 164,-324 158,-324 152,-318 152,-312 152,-312 152,-300 152,-300 152,-294 158,-288 164,-288 164,-288 268,-288 268,-288 274,-288 280,-294 280,-300 280,-300 280,-312 280,-312 280,-318 274,-324 268,-324"/>
<text text-anchor="middle" x="216" y="-303.5" font-family="sans" font-size="10.00">downloadGenomeFiles</text>
</g>
<!-- 6&#45;&gt;3 -->
<g id="edge10" class="edge">
<title>6&#45;&gt;3</title>
<path fill="none" stroke="grey" stroke-width="2" d="M233.06,-287.7C241.5,-279.14 251.82,-268.66 261.04,-259.3"/>
<polygon fill="grey" stroke="grey" stroke-width="2" points="263.61,-261.68 268.14,-252.1 258.63,-256.77 263.61,-261.68"/>
</g>
<!-- 7 -->
<g id="node8" class="node">
<title>7</title>
<path fill="none" stroke="#5682d8" stroke-width="2" d="M500.5,-252C500.5,-252 437.5,-252 437.5,-252 431.5,-252 425.5,-246 425.5,-240 425.5,-240 425.5,-228 425.5,-228 425.5,-222 431.5,-216 437.5,-216 437.5,-216 500.5,-216 500.5,-216 506.5,-216 512.5,-222 512.5,-228 512.5,-228 512.5,-240 512.5,-240 512.5,-246 506.5,-252 500.5,-252"/>
<text text-anchor="middle" x="469" y="-231.5" font-family="sans" font-size="10.00">make_CNV_SE</text>
</g>
<!-- 7&#45;&gt;2 -->
<g id="edge8" class="edge">
<title>7&#45;&gt;2</title>
<path fill="none" stroke="grey" stroke-width="2" d="M497.62,-215.88C512.92,-206.72 531.94,-195.34 548.42,-185.48"/>
<polygon fill="grey" stroke="grey" stroke-width="2" points="550.48,-188.33 557.27,-180.19 546.89,-182.32 550.48,-188.33"/>
</g>
<!-- 8 -->
<g id="node9" class="node">
<title>8</title>
<path fill="none" stroke="#56d863" stroke-width="2" d="M499.5,-324C499.5,-324 438.5,-324 438.5,-324 432.5,-324 426.5,-318 426.5,-312 426.5,-312 426.5,-300 426.5,-300 426.5,-294 432.5,-288 438.5,-288 438.5,-288 499.5,-288 499.5,-288 505.5,-288 511.5,-294 511.5,-300 511.5,-300 511.5,-312 511.5,-312 511.5,-318 505.5,-324 499.5,-324"/>
<text text-anchor="middle" x="469" y="-303.5" font-family="sans" font-size="10.00">downloadCNV</text>
</g>
<!-- 8&#45;&gt;7 -->
<g id="edge13" class="edge">
<title>8&#45;&gt;7</title>
<path fill="none" stroke="grey" stroke-width="2" d="M469,-287.7C469,-279.98 469,-270.71 469,-262.11"/>
<polygon fill="grey" stroke="grey" stroke-width="2" points="472.5,-262.1 469,-252.1 465.5,-262.1 472.5,-262.1"/>
</g>
<!-- 9 -->
<g id="node10" class="node">
<title>9</title>
<path fill="none" stroke="#d89c56" stroke-width="2" d="M629,-252C629,-252 543,-252 543,-252 537,-252 531,-246 531,-240 531,-240 531,-228 531,-228 531,-222 537,-216 543,-216 543,-216 629,-216 629,-216 635,-216 641,-222 641,-228 641,-228 641,-240 641,-240 641,-246 635,-252 629,-252"/>
<text text-anchor="middle" x="586" y="-231.5" font-family="sans" font-size="10.00">make_Mutation_SE</text>
</g>
<!-- 9&#45;&gt;2 -->
<g id="edge6" class="edge">
<title>9&#45;&gt;2</title>
<path fill="none" stroke="grey" stroke-width="2" d="M586,-215.7C586,-207.98 586,-198.71 586,-190.11"/>
<polygon fill="grey" stroke="grey" stroke-width="2" points="589.5,-190.1 586,-180.1 582.5,-190.1 589.5,-190.1"/>
</g>
<!-- 10 -->
<g id="node11" class="node">
<title>10</title>
<path fill="none" stroke="#56c9d8" stroke-width="2" d="M630.5,-324C630.5,-324 541.5,-324 541.5,-324 535.5,-324 529.5,-318 529.5,-312 529.5,-312 529.5,-300 529.5,-300 529.5,-294 535.5,-288 541.5,-288 541.5,-288 630.5,-288 630.5,-288 636.5,-288 642.5,-294 642.5,-300 642.5,-300 642.5,-312 642.5,-312 642.5,-318 636.5,-324 630.5,-324"/>
<text text-anchor="middle" x="586" y="-303.5" font-family="sans" font-size="10.00">preprocessMutation</text>
</g>
<!-- 10&#45;&gt;9 -->
<g id="edge14" class="edge">
<title>10&#45;&gt;9</title>
<path fill="none" stroke="grey" stroke-width="2" d="M586,-287.7C586,-279.98 586,-270.71 586,-262.11"/>
<polygon fill="grey" stroke="grey" stroke-width="2" points="589.5,-262.1 586,-252.1 582.5,-262.1 589.5,-262.1"/>
</g>
<!-- 11 -->
<g id="node12" class="node">
<title>11</title>
<path fill="none" stroke="#d8c356" stroke-width="2" d="M627.5,-396C627.5,-396 544.5,-396 544.5,-396 538.5,-396 532.5,-390 532.5,-384 532.5,-384 532.5,-372 532.5,-372 532.5,-366 538.5,-360 544.5,-360 544.5,-360 627.5,-360 627.5,-360 633.5,-360 639.5,-366 639.5,-372 639.5,-372 639.5,-384 639.5,-384 639.5,-390 633.5,-396 627.5,-396"/>
<text text-anchor="middle" x="586" y="-375.5" font-family="sans" font-size="10.00">downloadMutation</text>
</g>
<!-- 11&#45;&gt;10 -->
<g id="edge15" class="edge">
<title>11&#45;&gt;10</title>
<path fill="none" stroke="grey" stroke-width="2" d="M586,-359.7C586,-351.98 586,-342.71 586,-334.11"/>
<polygon fill="grey" stroke="grey" stroke-width="2" points="589.5,-334.1 586,-324.1 582.5,-334.1 589.5,-334.1"/>
</g>
<!-- 12 -->
<g id="node13" class="node">
<title>12</title>
<path fill="none" stroke="#d8b456" stroke-width="2" d="M795,-252C795,-252 671,-252 671,-252 665,-252 659,-246 659,-240 659,-240 659,-228 659,-228 659,-222 665,-216 671,-216 671,-216 795,-216 795,-216 801,-216 807,-222 807,-228 807,-228 807,-240 807,-240 807,-246 801,-252 795,-252"/>
<text text-anchor="middle" x="733" y="-231.5" font-family="sans" font-size="10.00">annotate_sampleMetadata</text>
</g>
<!-- 12&#45;&gt;1 -->
<g id="edge5" class="edge">
<title>12&#45;&gt;1</title>
<path fill="none" stroke="grey" stroke-width="2" d="M733.79,-215.71C735.12,-197.35 738.64,-167.76 748,-144 751.78,-134.41 757.47,-124.75 763.17,-116.36"/>
<polygon fill="grey" stroke="grey" stroke-width="2" points="766.08,-118.3 769.03,-108.12 760.38,-114.24 766.08,-118.3"/>
</g>
<!-- 12&#45;&gt;2 -->
<g id="edge7" class="edge">
<title>12&#45;&gt;2</title>
<path fill="none" stroke="grey" stroke-width="2" d="M697.04,-215.88C677.12,-206.39 652.18,-194.51 630.98,-184.42"/>
<polygon fill="grey" stroke="grey" stroke-width="2" points="632.38,-181.21 621.84,-180.07 629.37,-187.53 632.38,-181.21"/>
</g>
<!-- 13 -->
<g id="node14" class="node">
<title>13</title>
<path fill="none" stroke="#a7d856" stroke-width="2" d="M865,-324C865,-324 773,-324 773,-324 767,-324 761,-318 761,-312 761,-312 761,-300 761,-300 761,-294 767,-288 773,-288 773,-288 865,-288 865,-288 871,-288 877,-294 877,-300 877,-300 877,-312 877,-312 877,-318 871,-324 865,-324"/>
<text text-anchor="middle" x="819" y="-303.5" font-family="sans" font-size="10.00">preprocessMetadata</text>
</g>
<!-- 13&#45;&gt;12 -->
<g id="edge16" class="edge">
<title>13&#45;&gt;12</title>
<path fill="none" stroke="grey" stroke-width="2" d="M797.74,-287.7C786.91,-278.88 773.58,-268.03 761.84,-258.47"/>
<polygon fill="grey" stroke="grey" stroke-width="2" points="763.98,-255.7 754.01,-252.1 759.56,-261.13 763.98,-255.7"/>
</g>
<!-- 16 -->
<g id="node17" class="node">
<title>16</title>
<path fill="none" stroke="#56d8a2" stroke-width="2" d="M1049,-252C1049,-252 875,-252 875,-252 869,-252 863,-246 863,-240 863,-240 863,-228 863,-228 863,-222 869,-216 875,-216 875,-216 1049,-216 1049,-216 1055,-216 1061,-222 1061,-228 1061,-228 1061,-240 1061,-240 1061,-246 1055,-252 1049,-252"/>
<text text-anchor="middle" x="962" y="-231.5" font-family="sans" font-size="10.00">build_treatmentResponseExperiment</text>
</g>
<!-- 13&#45;&gt;16 -->
<g id="edge19" class="edge">
<title>13&#45;&gt;16</title>
<path fill="none" stroke="grey" stroke-width="2" d="M853.98,-287.88C873.2,-278.47 897.23,-266.71 917.74,-256.67"/>
<polygon fill="grey" stroke="grey" stroke-width="2" points="919.44,-259.73 926.88,-252.19 916.36,-253.44 919.44,-259.73"/>
</g>
<!-- 18 -->
<g id="node19" class="node">
<title>18</title>
<path fill="none" stroke="#56b1d8" stroke-width="2" d="M906.5,-180C906.5,-180 769.5,-180 769.5,-180 763.5,-180 757.5,-174 757.5,-168 757.5,-168 757.5,-156 757.5,-156 757.5,-150 763.5,-144 769.5,-144 769.5,-144 906.5,-144 906.5,-144 912.5,-144 918.5,-150 918.5,-156 918.5,-156 918.5,-168 918.5,-168 918.5,-174 912.5,-180 906.5,-180"/>
<text text-anchor="middle" x="838" y="-159.5" font-family="sans" font-size="10.00">annotate_treatmentMetadata</text>
</g>
<!-- 13&#45;&gt;18 -->
<g id="edge21" class="edge">
<title>13&#45;&gt;18</title>
<path fill="none" stroke="grey" stroke-width="2" d="M821.29,-287.87C824.53,-263.67 830.48,-219.21 834.33,-190.39"/>
<polygon fill="grey" stroke="grey" stroke-width="2" points="837.84,-190.57 835.7,-180.19 830.9,-189.64 837.84,-190.57"/>
</g>
<!-- 14 -->
<g id="node15" class="node">
<title>14</title>
<path fill="none" stroke="#d86e56" stroke-width="2" d="M1019.5,-396C1019.5,-396 896.5,-396 896.5,-396 890.5,-396 884.5,-390 884.5,-384 884.5,-384 884.5,-372 884.5,-372 884.5,-366 890.5,-360 896.5,-360 896.5,-360 1019.5,-360 1019.5,-360 1025.5,-360 1031.5,-366 1031.5,-372 1031.5,-372 1031.5,-384 1031.5,-384 1031.5,-390 1025.5,-396 1019.5,-396"/>
<text text-anchor="middle" x="958" y="-375.5" font-family="sans" font-size="10.00">downloadSampleMetadata</text>
</g>
<!-- 14&#45;&gt;13 -->
<g id="edge17" class="edge">
<title>14&#45;&gt;13</title>
<path fill="none" stroke="grey" stroke-width="2" d="M924,-359.88C905.4,-350.51 882.17,-338.81 862.29,-328.8"/>
<polygon fill="grey" stroke="grey" stroke-width="2" points="863.64,-325.56 853.13,-324.19 860.49,-331.81 863.64,-325.56"/>
</g>
<!-- 15 -->
<g id="node16" class="node">
<title>15</title>
<path fill="none" stroke="#8fd856" stroke-width="2" d="M854,-396C854,-396 718,-396 718,-396 712,-396 706,-390 706,-384 706,-384 706,-372 706,-372 706,-366 712,-360 718,-360 718,-360 854,-360 854,-360 860,-360 866,-366 866,-372 866,-372 866,-384 866,-384 866,-390 860,-396 854,-396"/>
<text text-anchor="middle" x="786" y="-375.5" font-family="sans" font-size="10.00">downloadTreatmentMetadata</text>
</g>
<!-- 15&#45;&gt;13 -->
<g id="edge18" class="edge">
<title>15&#45;&gt;13</title>
<path fill="none" stroke="grey" stroke-width="2" d="M794.16,-359.7C797.91,-351.73 802.45,-342.1 806.62,-333.26"/>
<polygon fill="grey" stroke="grey" stroke-width="2" points="809.84,-334.64 810.94,-324.1 803.51,-331.66 809.84,-334.64"/>
</g>
<!-- 16&#45;&gt;1 -->
<g id="edge3" class="edge">
<title>16&#45;&gt;1</title>
<path fill="none" stroke="grey" stroke-width="2" d="M959.57,-215.95C955.89,-196.12 947.06,-163.62 927,-144 905.63,-123.1 875.32,-110.33 848.02,-102.59"/>
<polygon fill="grey" stroke="grey" stroke-width="2" points="848.69,-99.15 838.12,-99.96 846.89,-105.91 848.69,-99.15"/>
</g>
<!-- 17 -->
<g id="node18" class="node">
<title>17</title>
<path fill="none" stroke="#56d8d0" stroke-width="2" d="M1048.5,-324C1048.5,-324 907.5,-324 907.5,-324 901.5,-324 895.5,-318 895.5,-312 895.5,-312 895.5,-300 895.5,-300 895.5,-294 901.5,-288 907.5,-288 907.5,-288 1048.5,-288 1048.5,-288 1054.5,-288 1060.5,-294 1060.5,-300 1060.5,-300 1060.5,-312 1060.5,-312 1060.5,-318 1054.5,-324 1048.5,-324"/>
<text text-anchor="middle" x="978" y="-303.5" font-family="sans" font-size="10.00">download_treatmentResponse</text>
</g>
<!-- 17&#45;&gt;16 -->
<g id="edge20" class="edge">
<title>17&#45;&gt;16</title>
<path fill="none" stroke="grey" stroke-width="2" d="M974.04,-287.7C972.28,-279.98 970.16,-270.71 968.2,-262.11"/>
<polygon fill="grey" stroke="grey" stroke-width="2" points="971.55,-261.07 965.91,-252.1 964.73,-262.63 971.55,-261.07"/>
</g>
<!-- 18&#45;&gt;1 -->
<g id="edge4" class="edge">
<title>18&#45;&gt;1</title>
<path fill="none" stroke="grey" stroke-width="2" d="M824.4,-143.7C817.88,-135.39 809.93,-125.28 802.75,-116.14"/>
<polygon fill="grey" stroke="grey" stroke-width="2" points="805.37,-113.81 796.44,-108.1 799.87,-118.13 805.37,-113.81"/>
</g>
</g>
</svg>
