<?xml version="1.0" encoding="UTF-8" standalone="no"?>
<!DOCTYPE svg PUBLIC "-//W3C//DTD SVG 1.1//EN"
 "http://www.w3.org/Graphics/SVG/1.1/DTD/svg11.dtd">
<!-- Generated by graphviz version 13.1.2 (20250809.0930)
 -->
<!-- Title: snakemake_dag Pages: 1 -->
<svg width="1237pt" height="476pt"
 viewBox="0.00 0.00 1237.00 476.00" xmlns="http://www.w3.org/2000/svg" xmlns:xlink="http://www.w3.org/1999/xlink">
<g id="graph0" class="graph" transform="scale(1 1) rotate(0) translate(4 472)">
<title>snakemake_dag</title>
<polygon fill="white" stroke="none" points="-4,4 -4,-472 1232.88,-472 1232.88,4 -4,4"/>
<!-- 0 -->
<g id="node1" class="node">
<title>0</title>
<path fill="none" stroke="#afd856" stroke-width="2" d="M882.88,-36C882.88,-36 852.88,-36 852.88,-36 846.88,-36 840.88,-30 840.88,-24 840.88,-24 840.88,-12 840.88,-12 840.88,-6 846.88,0 852.88,0 852.88,0 882.88,0 882.88,0 888.88,0 894.88,-6 894.88,-12 894.88,-12 894.88,-24 894.88,-24 894.88,-30 888.88,-36 882.88,-36"/>
<text xml:space="preserve" text-anchor="middle" x="867.88" y="-15.62" font-family="sans" font-size="10.00">all</text>
</g>
<!-- 1 -->
<g id="node2" class="node">
<title>1</title>
<path fill="none" stroke="#56a9d8" stroke-width="2" d="M908.12,-108C908.12,-108 827.62,-108 827.62,-108 821.62,-108 815.62,-102 815.62,-96 815.62,-96 815.62,-84 815.62,-84 815.62,-78 821.62,-72 827.62,-72 827.62,-72 908.12,-72 908.12,-72 914.12,-72 920.12,-78 920.12,-84 920.12,-84 920.12,-96 920.12,-96 920.12,-102 914.12,-108 908.12,-108"/>
<text xml:space="preserve" text-anchor="middle" x="867.88" y="-87.62" font-family="sans" font-size="10.00">build_PharmacoSet</text>
</g>
<!-- 1&#45;&gt;0 -->
<g id="edge1" class="edge">
<title>1&#45;&gt;0</title>
<path fill="none" stroke="grey" stroke-width="2" d="M867.88,-71.34C867.88,-64.75 867.88,-57.08 867.88,-49.67"/>
<polygon fill="grey" stroke="grey" stroke-width="2" points="871.38,-49.93 867.88,-39.93 864.38,-49.93 871.38,-49.93"/>
</g>
<!-- 2 -->
<g id="node3" class="node">
<title>2</title>
<path fill="none" stroke="#56d8c1" stroke-width="2" d="M681.12,-180C681.12,-180 558.62,-180 558.62,-180 552.62,-180 546.62,-174 546.62,-168 546.62,-168 546.62,-156 546.62,-156 546.62,-150 552.62,-144 558.62,-144 558.62,-144 681.12,-144 681.12,-144 687.12,-144 693.12,-150 693.12,-156 693.12,-156 693.12,-168 693.12,-168 693.12,-174 687.12,-180 681.12,-180"/>
<text xml:space="preserve" text-anchor="middle" x="619.88" y="-159.62" font-family="sans" font-size="10.00">build_MultiAssayExperiment</text>
</g>
<!-- 2&#45;&gt;1 -->
<g id="edge2" class="edge">
<title>2&#45;&gt;1</title>
<path fill="none" stroke="grey" stroke-width="2" d="M683.42,-143.06C720.04,-132.73 765.97,-119.76 802.84,-109.36"/>
<polygon fill="grey" stroke="grey" stroke-width="2" points="803.38,-112.84 812.05,-106.76 801.48,-106.1 803.38,-112.84"/>
</g>
<!-- 3 -->
<g id="node4" class="node">
<title>3</title>
<path fill="none" stroke="#56d8a9" stroke-width="2" d="M295.5,-252C295.5,-252 220.25,-252 220.25,-252 214.25,-252 208.25,-246 208.25,-240 208.25,-240 208.25,-228 208.25,-228 208.25,-222 214.25,-216 220.25,-216 220.25,-216 295.5,-216 295.5,-216 301.5,-216 307.5,-222 307.5,-228 307.5,-228 307.5,-240 307.5,-240 307.5,-246 301.5,-252 295.5,-252"/>
<text xml:space="preserve" text-anchor="middle" x="257.88" y="-231.62" font-family="sans" font-size="10.00">make_RNASEQ_SE</text>
</g>
<!-- 3&#45;&gt;2 -->
<g id="edge9" class="edge">
<title>3&#45;&gt;2</title>
<path fill="none" stroke="grey" stroke-width="2" d="M308.21,-223.27C366.4,-212.01 463.16,-193.3 533.46,-179.71"/>
<polygon fill="grey" stroke="grey" stroke-width="2" points="533.69,-183.23 542.85,-177.89 532.37,-176.36 533.69,-183.23"/>
</g>
<!-- 4 -->
<g id="node5" class="node">
<title>4</title>
<path fill="none" stroke="#80d856" stroke-width="2" d="M91.75,-324C91.75,-324 12,-324 12,-324 6,-324 0,-318 0,-312 0,-312 0,-300 0,-300 0,-294 6,-288 12,-288 12,-288 91.75,-288 91.75,-288 97.75,-288 103.75,-294 103.75,-300 103.75,-300 103.75,-312 103.75,-312 103.75,-318 97.75,-324 91.75,-324"/>
<text xml:space="preserve" text-anchor="middle" x="51.88" y="-303.62" font-family="sans" font-size="10.00">download_RNASEQ</text>
</g>
<!-- 4&#45;&gt;3 -->
<g id="edge12" class="edge">
<title>4&#45;&gt;3</title>
<path fill="none" stroke="grey" stroke-width="2" d="M104.66,-287.06C132.3,-277.67 166.33,-266.11 195.29,-256.27"/>
<polygon fill="grey" stroke="grey" stroke-width="2" points="196.15,-259.67 204.49,-253.14 193.9,-253.04 196.15,-259.67"/>
</g>
<!-- 5 -->
<g id="node6" class="node">
<title>5</title>
<path fill="none" stroke="#56d89a" stroke-width="2" d="M238.12,-324C238.12,-324 133.62,-324 133.62,-324 127.63,-324 121.62,-318 121.62,-312 121.62,-312 121.62,-300 121.62,-300 121.62,-294 127.62,-288 133.62,-288 133.62,-288 238.12,-288 238.12,-288 244.12,-288 250.12,-294 250.12,-300 250.12,-300 250.12,-312 250.12,-312 250.12,-318 244.12,-324 238.12,-324"/>
<text xml:space="preserve" text-anchor="middle" x="185.88" y="-303.62" font-family="sans" font-size="10.00">getGENCODEannotation</text>
</g>
<!-- 5&#45;&gt;3 -->
<g id="edge13" class="edge">
<title>5&#45;&gt;3</title>
<path fill="none" stroke="grey" stroke-width="2" d="M204.04,-287.34C212,-279.6 221.51,-270.36 230.3,-261.81"/>
<polygon fill="grey" stroke="grey" stroke-width="2" points="232.56,-264.49 237.29,-255.01 227.68,-259.47 232.56,-264.49"/>
</g>
<!-- 6 -->
<g id="node7" class="node">
<title>6</title>
<path fill="none" stroke="#d89556" stroke-width="2" d="M377.75,-324C377.75,-324 280,-324 280,-324 274,-324 268,-318 268,-312 268,-312 268,-300 268,-300 268,-294 274,-288 280,-288 280,-288 377.75,-288 377.75,-288 383.75,-288 389.75,-294 389.75,-300 389.75,-300 389.75,-312 389.75,-312 389.75,-318 383.75,-324 377.75,-324"/>
<text xml:space="preserve" text-anchor="middle" x="328.88" y="-303.62" font-family="sans" font-size="10.00">downloadGenomeFiles</text>
</g>
<!-- 6&#45;&gt;3 -->
<g id="edge11" class="edge">
<title>6&#45;&gt;3</title>
<path fill="none" stroke="grey" stroke-width="2" d="M310.96,-287.34C303.11,-279.6 293.74,-270.36 285.06,-261.81"/>
<polygon fill="grey" stroke="grey" stroke-width="2" points="287.77,-259.56 278.19,-255.03 282.85,-264.54 287.77,-259.56"/>
</g>
<!-- 7 -->
<g id="node8" class="node">
<title>7</title>
<path fill="none" stroke="#d86e56" stroke-width="2" d="M477.12,-252C477.12,-252 420.62,-252 420.62,-252 414.62,-252 408.62,-246 408.62,-240 408.62,-240 408.62,-228 408.62,-228 408.62,-222 414.62,-216 420.62,-216 420.62,-216 477.12,-216 477.12,-216 483.12,-216 489.12,-222 489.12,-228 489.12,-228 489.12,-240 489.12,-240 489.12,-246 483.12,-252 477.12,-252"/>
<text xml:space="preserve" text-anchor="middle" x="448.88" y="-231.62" font-family="sans" font-size="10.00">make_CNV_SE</text>
</g>
<!-- 7&#45;&gt;2 -->
<g id="edge6" class="edge">
<title>7&#45;&gt;2</title>
<path fill="none" stroke="grey" stroke-width="2" d="M489.83,-216.23C512.06,-207.13 539.87,-195.75 564.05,-185.85"/>
<polygon fill="grey" stroke="grey" stroke-width="2" points="565.23,-189.15 573.16,-182.12 562.58,-182.67 565.23,-189.15"/>
</g>
<!-- 8 -->
<g id="node9" class="node">
<title>8</title>
<path fill="none" stroke="#68d856" stroke-width="2" d="M476.12,-324C476.12,-324 419.62,-324 419.62,-324 413.62,-324 407.62,-318 407.62,-312 407.62,-312 407.62,-300 407.62,-300 407.62,-294 413.62,-288 419.62,-288 419.62,-288 476.12,-288 476.12,-288 482.12,-288 488.12,-294 488.12,-300 488.12,-300 488.12,-312 488.12,-312 488.12,-318 482.12,-324 476.12,-324"/>
<text xml:space="preserve" text-anchor="middle" x="447.88" y="-303.62" font-family="sans" font-size="10.00">downloadCNV</text>
</g>
<!-- 8&#45;&gt;7 -->
<g id="edge14" class="edge">
<title>8&#45;&gt;7</title>
<path fill="none" stroke="grey" stroke-width="2" d="M448.13,-287.34C448.22,-280.75 448.33,-273.08 448.44,-265.67"/>
<polygon fill="grey" stroke="grey" stroke-width="2" points="451.93,-265.98 448.58,-255.93 444.93,-265.88 451.93,-265.98"/>
</g>
<!-- 9 -->
<g id="node10" class="node">
<title>9</title>
<path fill="none" stroke="#569ad8" stroke-width="2" d="M602.38,-252C602.38,-252 523.38,-252 523.38,-252 517.38,-252 511.38,-246 511.38,-240 511.38,-240 511.38,-228 511.38,-228 511.38,-222 517.38,-216 523.38,-216 523.38,-216 602.38,-216 602.38,-216 608.38,-216 614.38,-222 614.38,-228 614.38,-228 614.38,-240 614.38,-240 614.38,-246 608.38,-252 602.38,-252"/>
<text xml:space="preserve" text-anchor="middle" x="562.88" y="-231.62" font-family="sans" font-size="10.00">make_Mutation_SE</text>
</g>
<!-- 9&#45;&gt;2 -->
<g id="edge8" class="edge">
<title>9&#45;&gt;2</title>
<path fill="none" stroke="grey" stroke-width="2" d="M577.26,-215.34C583.29,-207.93 590.44,-199.14 597.15,-190.9"/>
<polygon fill="grey" stroke="grey" stroke-width="2" points="599.79,-193.21 603.39,-183.25 594.36,-188.79 599.79,-193.21"/>
</g>
<!-- 10 -->
<g id="node11" class="node">
<title>10</title>
<path fill="none" stroke="#d8c356" stroke-width="2" d="M603.38,-324C603.38,-324 518.38,-324 518.38,-324 512.38,-324 506.38,-318 506.38,-312 506.38,-312 506.38,-300 506.38,-300 506.38,-294 512.38,-288 518.38,-288 518.38,-288 603.38,-288 603.38,-288 609.38,-288 615.38,-294 615.38,-300 615.38,-300 615.38,-312 615.38,-312 615.38,-318 609.38,-324 603.38,-324"/>
<text xml:space="preserve" text-anchor="middle" x="560.88" y="-303.62" font-family="sans" font-size="10.00">preprocessMutation</text>
</g>
<!-- 10&#45;&gt;9 -->
<g id="edge15" class="edge">
<title>10&#45;&gt;9</title>
<path fill="none" stroke="grey" stroke-width="2" d="M561.38,-287.34C561.57,-280.75 561.79,-273.08 562,-265.67"/>
<polygon fill="grey" stroke="grey" stroke-width="2" points="565.49,-266.02 562.28,-255.93 558.49,-265.82 565.49,-266.02"/>
</g>
<!-- 11 -->
<g id="node12" class="node">
<title>11</title>
<path fill="none" stroke="#97d856" stroke-width="2" d="M600.38,-396C600.38,-396 521.38,-396 521.38,-396 515.38,-396 509.38,-390 509.38,-384 509.38,-384 509.38,-372 509.38,-372 509.38,-366 515.38,-360 521.38,-360 521.38,-360 600.38,-360 600.38,-360 606.38,-360 612.38,-366 612.38,-372 612.38,-372 612.38,-384 612.38,-384 612.38,-390 606.38,-396 600.38,-396"/>
<text xml:space="preserve" text-anchor="middle" x="560.88" y="-375.62" font-family="sans" font-size="10.00">downloadMutation</text>
</g>
<!-- 11&#45;&gt;10 -->
<g id="edge16" class="edge">
<title>11&#45;&gt;10</title>
<path fill="none" stroke="grey" stroke-width="2" d="M560.88,-359.34C560.88,-352.75 560.88,-345.08 560.88,-337.67"/>
<polygon fill="grey" stroke="grey" stroke-width="2" points="564.38,-337.93 560.88,-327.93 557.38,-337.93 564.38,-337.93"/>
</g>
<!-- 12 -->
<g id="node13" class="node">
<title>12</title>
<path fill="none" stroke="#59d856" stroke-width="2" d="M708.38,-252C708.38,-252 647.38,-252 647.38,-252 641.38,-252 635.38,-246 635.38,-240 635.38,-240 635.38,-228 635.38,-228 635.38,-222 641.38,-216 647.38,-216 647.38,-216 708.38,-216 708.38,-216 714.38,-216 720.38,-222 720.38,-228 720.38,-228 720.38,-240 720.38,-240 720.38,-246 714.38,-252 708.38,-252"/>
<text xml:space="preserve" text-anchor="middle" x="677.88" y="-231.62" font-family="sans" font-size="10.00">make_RPPA_SE</text>
</g>
<!-- 12&#45;&gt;2 -->
<g id="edge7" class="edge">
<title>12&#45;&gt;2</title>
<path fill="none" stroke="grey" stroke-width="2" d="M663.24,-215.34C657.1,-207.93 649.82,-199.14 642.99,-190.9"/>
<polygon fill="grey" stroke="grey" stroke-width="2" points="645.71,-188.7 636.64,-183.23 640.32,-193.17 645.71,-188.7"/>
</g>
<!-- 13 -->
<g id="node14" class="node">
<title>13</title>
<path fill="none" stroke="#56c1d8" stroke-width="2" d="M710.62,-324C710.62,-324 645.12,-324 645.12,-324 639.12,-324 633.12,-318 633.12,-312 633.12,-312 633.12,-300 633.12,-300 633.12,-294 639.12,-288 645.12,-288 645.12,-288 710.62,-288 710.62,-288 716.62,-288 722.62,-294 722.62,-300 722.62,-300 722.62,-312 722.62,-312 722.62,-318 716.62,-324 710.62,-324"/>
<text xml:space="preserve" text-anchor="middle" x="677.88" y="-303.62" font-family="sans" font-size="10.00">download_RPPA</text>
</g>
<!-- 13&#45;&gt;12 -->
<g id="edge17" class="edge">
<title>13&#45;&gt;12</title>
<path fill="none" stroke="grey" stroke-width="2" d="M677.88,-287.34C677.88,-280.75 677.88,-273.08 677.88,-265.67"/>
<polygon fill="grey" stroke="grey" stroke-width="2" points="681.38,-265.93 677.88,-255.93 674.38,-265.93 681.38,-265.93"/>
</g>
<!-- 14 -->
<g id="node15" class="node">
<title>14</title>
<path fill="none" stroke="#566bd8" stroke-width="2" d="M868.75,-324C868.75,-324 753,-324 753,-324 747,-324 741,-318 741,-312 741,-312 741,-300 741,-300 741,-294 747,-288 753,-288 753,-288 868.75,-288 868.75,-288 874.75,-288 880.75,-294 880.75,-300 880.75,-300 880.75,-312 880.75,-312 880.75,-318 874.75,-324 868.75,-324"/>
<text xml:space="preserve" text-anchor="middle" x="810.88" y="-303.62" font-family="sans" font-size="10.00">annotate_sampleMetadata</text>
</g>
<!-- 14&#45;&gt;1 -->
<g id="edge5" class="edge">
<title>14&#45;&gt;1</title>
<path fill="none" stroke="grey" stroke-width="2" d="M815.64,-287.12C825.38,-250.54 847.69,-166.77 859.76,-121.45"/>
<polygon fill="grey" stroke="grey" stroke-width="2" points="863.12,-122.47 862.31,-111.9 856.35,-120.66 863.12,-122.47"/>
</g>
<!-- 14&#45;&gt;2 -->
<g id="edge10" class="edge">
<title>14&#45;&gt;2</title>
<path fill="none" stroke="grey" stroke-width="2" d="M797.92,-287.07C783.17,-267.62 757.51,-236.61 729.88,-216 714.41,-204.47 696.04,-194.44 678.79,-186.3"/>
<polygon fill="grey" stroke="grey" stroke-width="2" points="680.37,-183.18 669.82,-182.22 677.48,-189.55 680.37,-183.18"/>
</g>
<!-- 14&#45;&gt;12 -->
<g id="edge18" class="edge">
<title>14&#45;&gt;12</title>
<path fill="none" stroke="grey" stroke-width="2" d="M776.97,-287.15C760.63,-278.56 740.81,-268.12 723.2,-258.85"/>
<polygon fill="grey" stroke="grey" stroke-width="2" points="724.88,-255.78 714.4,-254.22 721.62,-261.98 724.88,-255.78"/>
</g>
<!-- 18 -->
<g id="node19" class="node">
<title>18</title>
<path fill="none" stroke="#56d86b" stroke-width="2" d="M1049.5,-252C1049.5,-252 884.25,-252 884.25,-252 878.25,-252 872.25,-246 872.25,-240 872.25,-240 872.25,-228 872.25,-228 872.25,-222 878.25,-216 884.25,-216 884.25,-216 1049.5,-216 1049.5,-216 1055.5,-216 1061.5,-222 1061.5,-228 1061.5,-228 1061.5,-240 1061.5,-240 1061.5,-246 1055.5,-252 1049.5,-252"/>
<text xml:space="preserve" text-anchor="middle" x="966.88" y="-231.62" font-family="sans" font-size="10.00">build_treatmentResponseExperiment</text>
</g>
<!-- 14&#45;&gt;18 -->
<g id="edge22" class="edge">
<title>14&#45;&gt;18</title>
<path fill="none" stroke="grey" stroke-width="2" d="M850.64,-287.15C870.28,-278.34 894.21,-267.61 915.24,-258.17"/>
<polygon fill="grey" stroke="grey" stroke-width="2" points="916.46,-261.46 924.15,-254.17 913.59,-255.07 916.46,-261.46"/>
</g>
<!-- 15 -->
<g id="node16" class="node">
<title>15</title>
<path fill="none" stroke="#d85656" stroke-width="2" d="M1024.5,-396C1024.5,-396 937.25,-396 937.25,-396 931.25,-396 925.25,-390 925.25,-384 925.25,-384 925.25,-372 925.25,-372 925.25,-366 931.25,-360 937.25,-360 937.25,-360 1024.5,-360 1024.5,-360 1030.5,-360 1036.5,-366 1036.5,-372 1036.5,-372 1036.5,-384 1036.5,-384 1036.5,-390 1030.5,-396 1024.5,-396"/>
<text xml:space="preserve" text-anchor="middle" x="980.88" y="-375.62" font-family="sans" font-size="10.00">preprocessMetadata</text>
</g>
<!-- 15&#45;&gt;14 -->
<g id="edge19" class="edge">
<title>15&#45;&gt;14</title>
<path fill="none" stroke="grey" stroke-width="2" d="M937.54,-359.15C915.84,-350.22 889.33,-339.31 866.18,-329.77"/>
<polygon fill="grey" stroke="grey" stroke-width="2" points="867.81,-326.66 857.23,-326.09 865.14,-333.13 867.81,-326.66"/>
</g>
<!-- 20 -->
<g id="node21" class="node">
<title>20</title>
<path fill="none" stroke="#d88556" stroke-width="2" d="M1216.88,-324C1216.88,-324 1086.88,-324 1086.88,-324 1080.88,-324 1074.88,-318 1074.88,-312 1074.88,-312 1074.88,-300 1074.88,-300 1074.88,-294 1080.88,-288 1086.88,-288 1086.88,-288 1216.88,-288 1216.88,-288 1222.88,-288 1228.88,-294 1228.88,-300 1228.88,-300 1228.88,-312 1228.88,-312 1228.88,-318 1222.88,-324 1216.88,-324"/>
<text xml:space="preserve" text-anchor="middle" x="1151.88" y="-303.62" font-family="sans" font-size="10.00">annotate_treatmentMetadata</text>
</g>
<!-- 15&#45;&gt;20 -->
<g id="edge25" class="edge">
<title>15&#45;&gt;20</title>
<path fill="none" stroke="grey" stroke-width="2" d="M1024.47,-359.15C1046.29,-350.22 1072.96,-339.31 1096.24,-329.77"/>
<polygon fill="grey" stroke="grey" stroke-width="2" points="1097.33,-333.11 1105.26,-326.08 1094.68,-326.63 1097.33,-333.11"/>
</g>
<!-- 16 -->
<g id="node17" class="node">
<title>16</title>
<path fill="none" stroke="#d8ac56" stroke-width="2" d="M955.38,-468C955.38,-468 840.38,-468 840.38,-468 834.38,-468 828.38,-462 828.38,-456 828.38,-456 828.38,-444 828.38,-444 828.38,-438 834.38,-432 840.38,-432 840.38,-432 955.38,-432 955.38,-432 961.38,-432 967.38,-438 967.38,-444 967.38,-444 967.38,-456 967.38,-456 967.38,-462 961.38,-468 955.38,-468"/>
<text xml:space="preserve" text-anchor="middle" x="897.88" y="-447.62" font-family="sans" font-size="10.00">downloadSampleMetadata</text>
</g>
<!-- 16&#45;&gt;15 -->
<g id="edge20" class="edge">
<title>16&#45;&gt;15</title>
<path fill="none" stroke="grey" stroke-width="2" d="M918.82,-431.34C928.18,-423.44 939.42,-413.96 949.74,-405.26"/>
<polygon fill="grey" stroke="grey" stroke-width="2" points="951.95,-407.98 957.33,-398.85 947.43,-402.62 951.95,-407.98"/>
</g>
<!-- 17 -->
<g id="node18" class="node">
<title>17</title>
<path fill="none" stroke="#c6d856" stroke-width="2" d="M1127.88,-468C1127.88,-468 997.88,-468 997.88,-468 991.88,-468 985.88,-462 985.88,-456 985.88,-456 985.88,-444 985.88,-444 985.88,-438 991.88,-432 997.88,-432 997.88,-432 1127.88,-432 1127.88,-432 1133.88,-432 1139.88,-438 1139.88,-444 1139.88,-444 1139.88,-456 1139.88,-456 1139.88,-462 1133.88,-468 1127.88,-468"/>
<text xml:space="preserve" text-anchor="middle" x="1062.88" y="-447.62" font-family="sans" font-size="10.00">downloadTreatmentMetadata</text>
</g>
<!-- 17&#45;&gt;15 -->
<g id="edge21" class="edge">
<title>17&#45;&gt;15</title>
<path fill="none" stroke="grey" stroke-width="2" d="M1042.18,-431.34C1032.93,-423.44 1021.83,-413.96 1011.64,-405.26"/>
<polygon fill="grey" stroke="grey" stroke-width="2" points="1014.03,-402.7 1004.15,-398.87 1009.48,-408.02 1014.03,-402.7"/>
</g>
<!-- 18&#45;&gt;1 -->
<g id="edge3" class="edge">
<title>18&#45;&gt;1</title>
<path fill="none" stroke="grey" stroke-width="2" d="M954.34,-215.02C937.53,-190.9 907.5,-147.83 887.63,-119.34"/>
<polygon fill="grey" stroke="grey" stroke-width="2" points="890.63,-117.52 882.04,-111.32 884.89,-121.53 890.63,-117.52"/>
</g>
<!-- 19 -->
<g id="node20" class="node">
<title>19</title>
<path fill="none" stroke="#5682d8" stroke-width="2" d="M1044.75,-324C1044.75,-324 911,-324 911,-324 905,-324 899,-318 899,-312 899,-312 899,-300 899,-300 899,-294 905,-288 911,-288 911,-288 1044.75,-288 1044.75,-288 1050.75,-288 1056.75,-294 1056.75,-300 1056.75,-300 1056.75,-312 1056.75,-312 1056.75,-318 1050.75,-324 1044.75,-324"/>
<text xml:space="preserve" text-anchor="middle" x="977.88" y="-303.62" font-family="sans" font-size="10.00">download_treatmentResponse</text>
</g>
<!-- 19&#45;&gt;18 -->
<g id="edge23" class="edge">
<title>19&#45;&gt;18</title>
<path fill="none" stroke="grey" stroke-width="2" d="M975.1,-287.34C974.06,-280.75 972.86,-273.08 971.69,-265.67"/>
<polygon fill="grey" stroke="grey" stroke-width="2" points="975.17,-265.23 970.16,-255.89 968.25,-266.31 975.17,-265.23"/>
</g>
<!-- 20&#45;&gt;1 -->
<g id="edge4" class="edge">
<title>20&#45;&gt;1</title>
<path fill="none" stroke="grey" stroke-width="2" d="M1138.23,-287.25C1123.08,-268.24 1097.25,-237.87 1070.88,-216 1021.51,-175.07 957.54,-137.9 914.73,-114.93"/>
<polygon fill="grey" stroke="grey" stroke-width="2" points="916.39,-111.85 905.92,-110.25 913.11,-118.03 916.39,-111.85"/>
</g>
<!-- 20&#45;&gt;18 -->
<g id="edge24" class="edge">
<title>20&#45;&gt;18</title>
<path fill="none" stroke="grey" stroke-width="2" d="M1104.71,-287.15C1080.89,-278.14 1051.73,-267.11 1026.37,-257.51"/>
<polygon fill="grey" stroke="grey" stroke-width="2" points="1027.69,-254.27 1017.1,-254.01 1025.22,-260.82 1027.69,-254.27"/>
</g>
</g>
</svg>
